{
.appVersion = "3133";
.formatVersion = 3;
axes = (
{
name = Weight;
tag = wght;
}
);
customParameters = (
{
name = fsType;
value = (
);
},
{
name = "Use Typo Metrics";
value = 1;
}
);
date = "2022-09-28 07:24:35 +0000";
familyName = Bolderslant;
featurePrefixes = (
{
automatic = 1;
code = "languagesystem DFLT dflt;

languagesystem latn dflt;
languagesystem latn CAT;
";
name = Languagesystems;
}
);
features = (
{
automatic = 1;
code = "feature locl;
feature ordn;
feature case;
";
tag = aalt;
},
{
automatic = 1;
code = "lookup locl_latn_0 {
	script latn;
	language CAT;
	sub l periodcentered' l by periodcentered.loclCAT;
	sub L periodcentered' L by periodcentered.loclCAT.case;
} locl_latn_0;
";
tag = locl;
},
{
automatic = 1;
code = "sub [zero one two three four five six seven eight nine] [A a]' by ordfeminine;
sub [zero one two three four five six seven eight nine] [O o]' by ordmasculine;
";
tag = ordn;
},
{
automatic = 1;
code = "sub periodcentered.loclCAT by periodcentered.loclCAT.case;
";
tag = case;
}
);
fontMaster = (
{
axesValues = (
100
);
customParameters = (
{
name = winAscent;
value = 936;
},
{
name = winDescent;
value = 309;
}
);
id = m01;
metricValues = (
{
pos = 900;
},
{
pos = 720;
},
{
over = 15;
pos = 500;
},
{
},
{
pos = -300;
}
);
name = Regular;
}
);
glyphs = (
{
glyphname = A;
kernLeft = A;
kernRight = A;
lastChange = "2022-10-02 03:16:31 +0000";
layers = (
{
anchors = (
{
name = bottom;
pos = (142,104);
},
{
name = ogonek;
pos = (256,118);
},
{
name = top;
pos = (503,634);
}
);
layerId = m01;
shapes = (
{
closed = 1;
nodes = (
(283,395,o),
(302,398,o),
(321,398,c),
(329,398,o),
(334,401,o),
(338,408,c),
(352,435,o),
(396,494,o),
(410,520,c),
(411,523,o),
(413,524,o),
(412,529,c),
(369,497,o),
(300,431,o),
(264,393,c)
);
},
{
closed = 1;
nodes = (
(288,336,o),
(277,333,o),
(266,331,c),
(243,327,o),
(221,322,o),
(200,317,c),
(193,315,o),
(189,312,o),
(185,307,c),
(153,268,o),
(105,191,o),
(80,147,c),
(74,136,o),
(68,125,o),
(65,113,c),
(61,99,o),
(52,91,o),
(39,90,c),
(27,90,o),
(16,98,o),
(11,111,c),
(6,123,o),
(8,135,o),
(13,146,c),
(20,164,o),
(30,181,o),
(41,198,c),
(51,213,o),
(79,265,o),
(91,283,c),
(78,279,o),
(67,277,o),
(59,267,c),
(54,260,o),
(47,256,o),
(38,255,c),
(22,254,o),
(8,261,o),
(3,273,c),
(-3,286,o),
(2,303,o),
(13,313,c),
(18,317,o),
(24,320,o),
(30,323,c),
(66,340,o),
(105,353,o),
(143,363,c),
(153,366,o),
(160,370,o),
(167,378,c),
(235,456,o),
(342,556,o),
(429,613,c),
(437,619,o),
(446,624,o),
(455,629,c),
(474,639,o),
(489,636,o),
(502,623,c),
(525,601,o),
(520,586,o),
(510,570,c),
(471,511,o),
(409,417,o),
(377,355,c),
(352,306,o),
(311,219,o),
(292,168,c),
(288,158,o),
(286,149,o),
(286,138,c),
(286,123,o),
(277,112,o),
(263,109,c),
(250,106,o),
(237,113,o),
(230,127,c),
(225,139,o),
(225,150,o),
(228,162,c),
(234,185,o),
(243,207,o),
(252,229,c),
(261,249,o),
(287,304,o),
(296,324,c),
(297,328,o),
(300,331,o),
(300,336,c)
);
}
);
width = 368;
}
);
unicode = 65;
},
{
glyphname = AE;
kernLeft = A;
kernRight = E;
lastChange = "2022-09-29 03:54:10 +0000";
layers = (
{
layerId = m01;
shapes = (
{
closed = 1;
nodes = (
(324,412,o),
(332,413,o),
(341,415,c),
(344,416,o),
(346,417,o),
(348,420,c),
(359,438,o),
(370,456,o),
(382,477,c),
(358,453,o),
(338,432,o),
(315,410,c)
);
},
{
closed = 1;
nodes = (
(105,289,o),
(84,281,o),
(63,271,c),
(59,270,o),
(57,267,o),
(54,264,c),
(40,250,o),
(22,250,o),
(10,263,c),
(-3,277,o),
(-3,298,o),
(11,310,c),
(18,317,o),
(27,320,o),
(36,324,c),
(85,347,o),
(137,363,o),
(189,378,c),
(199,381,o),
(208,386,o),
(215,394,c),
(269,452,o),
(325,508,o),
(383,563,c),
(388,568,o),
(394,573,o),
(397,580,c),
(405,593,o),
(441,617,o),
(454,616,c),
(475,614,o),
(494,619,o),
(514,620,c),
(559,624,o),
(604,624,o),
(650,619,c),
(660,618,o),
(669,616,o),
(678,611,c),
(688,605,o),
(694,597,o),
(697,586,c),
(700,575,o),
(697,565,o),
(688,558,c),
(679,551,o),
(668,548,o),
(658,553,c),
(645,561,o),
(631,562,o),
(616,562,c),
(581,564,o),
(545,565,o),
(510,560,c),
(504,559,o),
(499,558,o),
(496,552,c),
(477,515,o),
(454,480,o),
(432,445,c),
(430,441,o),
(427,438,o),
(427,432,c),
(444,433,o),
(461,435,o),
(478,437,c),
(501,439,o),
(523,440,o),
(546,436,c),
(554,434,o),
(562,431,o),
(569,426,c),
(582,417,o),
(585,405,o),
(583,390,c),
(581,376,o),
(571,369,o),
(558,365,c),
(548,362,o),
(538,364,o),
(532,372,c),
(526,378,o),
(520,379,o),
(513,379,c),
(473,379,o),
(433,372,o),
(393,365,c),
(388,364,o),
(384,363,o),
(381,357,c),
(360,316,o),
(338,276,o),
(322,232,c),
(322,231,o),
(322,229,o),
(322,228,c),
(325,224,o),
(328,226,o),
(331,226,c),
(377,232,o),
(423,235,o),
(470,233,c),
(480,233,o),
(491,232,o),
(501,231,c),
(505,231,o),
(508,230,o),
(511,229,c),
(528,223,o),
(537,210,o),
(535,195,c),
(532,180,o),
(519,170,o),
(501,171,c),
(457,175,o),
(413,174,o),
(369,170,c),
(350,169,o),
(332,166,o),
(313,164,c),
(308,163,o),
(304,160,o),
(300,158,c),
(286,150,o),
(263,154,o),
(252,165,c),
(241,176,o),
(241,194,o),
(252,206,c),
(258,211,o),
(261,217,o),
(261,225,c),
(261,239,o),
(266,252,o),
(271,264,c),
(279,286,o),
(290,307,o),
(300,329,c),
(302,334,o),
(306,338,o),
(306,344,c),
(303,346,o),
(301,345,o),
(298,345,c),
(280,340,o),
(262,336,o),
(244,331,c),
(239,330,o),
(234,327,o),
(231,323,c),
(194,281,o),
(158,238,o),
(128,191,c),
(119,177,o),
(110,163,o),
(106,147,c),
(103,137,o),
(96,130,o),
(86,128,c),
(75,126,o),
(65,130,o),
(58,139,c),
(50,148,o),
(48,159,o),
(51,171,c),
(54,182,o),
(59,192,o),
(64,201,c),
(80,229,o),
(99,255,o),
(118,280,c),
(122,284,o),
(125,289,o),
(129,294,c)
);
}
);
width = 568;
}
);
unicode = 198;
},
{
glyphname = B;
kernLeft = B;
kernRight = B;
lastChange = "2022-10-02 03:16:34 +0000";
layers = (
{
anchors = (
{
name = bottom;
pos = (180,0);
},
{
name = center;
pos = (192,364);
},
{
name = top;
pos = (326,653);
}
);
layerId = m01;
shapes = (
{
closed = 1;
nodes = (
(89,302,o),
(88,300,o),
(87,297,c),
(78,271,o),
(70,245,o),
(64,218,c),
(63,215,o),
(62,213,o),
(62,210,c),
(61,196,o),
(67,190,o),
(81,192,c),
(92,194,o),
(102,197,o),
(113,200,c),
(154,214,o),
(193,231,o),
(227,257,c),
(241,268,o),
(253,280,o),
(261,295,c),
(267,306,o),
(266,309,o),
(254,311,c),
(237,314,o),
(220,310,o),
(203,308,c),
(180,304,o),
(157,299,o),
(136,290,c),
(118,284,o),
(108,287,o),
(96,301,c),
(94,302,o),
(93,304,o),
(91,306,c)
);
},
{
closed = 1;
nodes = (
(116,349,o),
(124,352,o),
(131,356,c),
(177,379,o),
(221,406,o),
(261,439,c),
(284,458,o),
(306,479,o),
(326,503,c),
(333,513,o),
(340,522,o),
(344,534,c),
(350,550,o),
(343,564,o),
(327,570,c),
(319,573,o),
(310,574,o),
(301,573,c),
(270,570,o),
(241,559,o),
(213,544,c),
(208,541,o),
(208,539,o),
(210,533,c),
(218,514,o),
(213,502,o),
(196,491,c),
(192,488,o),
(187,485,o),
(182,484,c),
(175,483,o),
(171,479,o),
(167,473,c),
(145,435,o),
(125,395,o),
(109,354,c),
(108,352,o),
(107,350,o),
(106,345,c)
);
},
{
closed = 1;
nodes = (
(279,368,o),
(281,368,o),
(283,367,c),
(322,351,o),
(337,319,o),
(322,280,c),
(315,261,o),
(303,244,o),
(288,230,c),
(264,204,o),
(234,185,o),
(202,170,c),
(165,152,o),
(127,137,o),
(86,131,c),
(57,127,o),
(34,134,o),
(19,161,c),
(18,163,o),
(16,165,o),
(15,166,c),
(0,180,o),
(-2,198,o),
(1,218,c),
(7,251,o),
(17,284,o),
(29,316,c),
(51,382,o),
(79,444,o),
(114,504,c),
(117,509,o),
(120,513,o),
(119,520,c),
(118,535,o),
(124,548,o),
(134,560,c),
(143,570,o),
(153,579,o),
(164,586,c),
(204,612,o),
(248,629,o),
(296,634,c),
(317,637,o),
(337,633,o),
(356,624,c),
(400,603,o),
(418,557,o),
(401,512,c),
(394,493,o),
(383,476,o),
(370,460,c),
(345,431,o),
(317,405,o),
(287,381,c),
(283,378,o),
(278,376,o),
(275,370,c)
);
}
);
width = 347;
}
);
unicode = 66;
},
{
glyphname = C;
kernLeft = C;
kernRight = C;
lastChange = "2022-10-02 03:16:36 +0000";
layers = (
{
anchors = (
{
name = bottom;
pos = (126,139);
},
{
name = top;
pos = (293,639);
}
);
layerId = m01;
shapes = (
{
closed = 1;
nodes = (
(22,333,o),
(38,391,o),
(65,445,c),
(94,506,o),
(135,558,o),
(189,599,c),
(211,615,o),
(234,629,o),
(262,634,c),
(293,639,o),
(320,625,o),
(334,597,c),
(343,577,o),
(345,557,o),
(342,535,c),
(338,504,o),
(327,475,o),
(314,446,c),
(311,440,o),
(308,434,o),
(307,427,c),
(302,407,o),
(289,397,o),
(271,401,c),
(254,403,o),
(242,421,o),
(244,440,c),
(245,448,o),
(249,455,o),
(252,462,c),
(264,485,o),
(274,508,o),
(279,534,c),
(281,542,o),
(282,551,o),
(281,560,c),
(279,572,o),
(276,575,o),
(264,571,c),
(254,568,o),
(245,563,o),
(236,557,c),
(183,520,o),
(144,470,o),
(117,412,c),
(96,365,o),
(81,316,o),
(83,263,c),
(83,250,o),
(85,237,o),
(90,225,c),
(97,206,o),
(110,194,o),
(131,192,c),
(167,190,o),
(199,201,o),
(228,221,c),
(237,228,o),
(246,235,o),
(255,241,c),
(260,245,o),
(265,248,o),
(272,249,c),
(282,251,o),
(291,247,o),
(298,238,c),
(305,229,o),
(305,219,o),
(301,209,c),
(297,201,o),
(292,195,o),
(286,189,c),
(240,146,o),
(185,125,o),
(122,131,c),
(79,135,o),
(50,160,o),
(33,200,c),
(23,223,o),
(20,247,o),
(20,275,c)
);
}
);
width = 323;
}
);
unicode = 67;
},
{
glyphname = D;
kernLeft = D;
kernRight = D;
lastChange = "2022-10-02 03:16:39 +0000";
layers = (
{
anchors = (
{
name = bottom;
pos = (82,106);
},
{
name = center;
pos = (202,360);
},
{
name = top;
pos = (340,637);
}
);
layerId = m01;
shapes = (
{
closed = 1;
nodes = (
(83,195,o),
(93,200,o),
(102,204,c),
(119,212,o),
(135,222,o),
(151,233,c),
(215,281,o),
(270,337,o),
(316,402,c),
(335,428,o),
(350,456,o),
(362,486,c),
(367,499,o),
(371,513,o),
(372,527,c),
(373,553,o),
(361,566,o),
(336,566,c),
(334,566,o),
(332,566,o),
(331,566,c),
(296,563,o),
(263,551,o),
(231,537,c),
(229,535,o),
(226,534,o),
(225,532,c),
(218,516,o),
(205,504,o),
(197,488,c),
(185,460,o),
(170,434,o),
(157,406,c),
(128,347,o),
(100,287,o),
(78,224,c),
(75,215,o),
(71,206,o),
(71,195,c)
);
},
{
closed = 1;
nodes = (
(405,631,o),
(448,576,o),
(434,504,c),
(428,473,o),
(416,445,o),
(401,418,c),
(360,341,o),
(303,278,o),
(238,220,c),
(208,195,o),
(177,171,o),
(142,152,c),
(122,141,o),
(100,132,o),
(77,130,c),
(34,127,o),
(7,149,o),
(1,191,c),
(0,201,o),
(-1,211,o),
(0,222,c),
(2,231,o),
(5,240,o),
(13,245,c),
(18,249,o),
(21,254,o),
(23,260,c),
(52,339,o),
(88,415,o),
(126,490,c),
(130,498,o),
(133,505,o),
(129,514,c),
(124,523,o),
(127,533,o),
(132,542,c),
(136,550,o),
(142,556,o),
(149,562,c),
(204,602,o),
(266,624,o),
(323,630,c)
);
}
);
width = 353;
}
);
unicode = 68;
},
{
glyphname = Eth;
kernLeft = D;
kernRight = D;
lastChange = "2022-09-29 03:54:39 +0000";
layers = (
{
layerId = m01;
shapes = (
{
closed = 1;
nodes = (
(187,436,o),
(195,438,o),
(204,438,c),
(219,439,o),
(231,434,o),
(238,420,c),
(249,399,o),
(232,373,o),
(206,373,c),
(186,373,o),
(166,370,o),
(146,369,c),
(139,368,o),
(135,366,o),
(132,359,c),
(115,324,o),
(97,288,o),
(83,251,c),
(82,247,o),
(80,243,o),
(80,239,c),
(79,232,o),
(82,229,o),
(89,231,c),
(97,232,o),
(104,234,o),
(111,237,c),
(210,274,o),
(284,340,o),
(337,430,c),
(344,442,o),
(350,455,o),
(354,468,c),
(358,482,o),
(361,497,o),
(360,512,c),
(358,542,o),
(343,557,o),
(313,557,c),
(283,557,o),
(254,548,o),
(227,536,c),
(222,534,o),
(219,531,o),
(219,526,c),
(217,512,o),
(211,501,o),
(205,490,c),
(195,473,o),
(185,456,o),
(176,437,c)
);
},
{
closed = 1;
nodes = (
(44,350,o),
(35,348,o),
(27,341,c),
(16,332,o),
(3,333,o),
(-10,338,c),
(-28,345,o),
(-35,365,o),
(-26,382,c),
(-20,393,o),
(-11,400,o),
(1,404,c),
(27,412,o),
(53,419,o),
(80,423,c),
(90,425,o),
(97,429,o),
(102,439,c),
(111,456,o),
(121,472,o),
(130,489,c),
(133,494,o),
(135,499,o),
(133,506,c),
(127,528,o),
(136,547,o),
(152,563,c),
(166,578,o),
(183,588,o),
(202,596,c),
(233,609,o),
(266,618,o),
(301,621,c),
(316,622,o),
(331,621,o),
(346,617,c),
(390,605,o),
(419,570,o),
(424,524,c),
(427,495,o),
(422,468,o),
(413,442,c),
(408,428,o),
(402,414,o),
(394,400,c),
(334,297,o),
(249,221,o),
(136,177,c),
(120,171,o),
(103,167,o),
(86,164,c),
(71,162,o),
(56,163,o),
(41,169,c),
(17,180,o),
(10,201,o),
(13,227,c),
(17,269,o),
(36,304,o),
(52,341,c),
(53,344,o),
(54,347,o),
(56,352,c)
);
}
);
width = 355;
}
);
unicode = 208;
},
{
glyphname = E;
kernLeft = E;
kernRight = E;
lastChange = "2022-10-02 03:16:41 +0000";
layers = (
{
anchors = (
{
name = bottom;
pos = (94,105);
},
{
name = ogonek;
pos = (224,127);
},
{
name = top;
pos = (334,643);
},
{
name = topleft;
pos = (18,720);
}
);
layerId = m01;
shapes = (
{
closed = 1;
nodes = (
(217,382,o),
(248,385,o),
(280,385,c),
(291,385,o),
(302,384,o),
(312,378,c),
(327,369,o),
(334,353,o),
(328,338,c),
(323,324,o),
(310,316,o),
(294,317,c),
(249,321,o),
(204,313,o),
(159,306,c),
(152,305,o),
(146,304,o),
(142,296,c),
(124,259,o),
(98,204,o),
(84,165,c),
(87,161,o),
(91,164,o),
(94,165,c),
(126,172,o),
(157,176,o),
(190,179,c),
(203,179,o),
(217,180,o),
(230,176,c),
(247,172,o),
(257,159,o),
(258,142,c),
(260,123,o),
(244,107,o),
(225,109,c),
(177,116,o),
(132,105,o),
(87,93,c),
(75,90,o),
(63,86,o),
(51,83,c),
(40,80,o),
(29,80,o),
(18,86,c),
(5,93,o),
(-2,105,o),
(0,121,c),
(1,130,o),
(3,139,o),
(6,148,c),
(19,186,o),
(42,241,o),
(58,276,c),
(56,281,o),
(52,281,o),
(49,283,c),
(25,296,o),
(24,324,o),
(45,340,c),
(53,347,o),
(63,349,o),
(72,353,c),
(77,354,o),
(82,356,o),
(87,357,c),
(97,359,o),
(102,364,o),
(106,373,c),
(124,410,o),
(157,483,o),
(170,522,c),
(173,531,o),
(174,538,o),
(168,547,c),
(159,558,o),
(161,572,o),
(170,583,c),
(174,589,o),
(177,595,o),
(178,602,c),
(181,617,o),
(188,628,o),
(203,631,c),
(217,635,o),
(229,631,o),
(237,619,c),
(243,612,o),
(249,614,o),
(255,616,c),
(290,625,o),
(326,631,o),
(362,634,c),
(384,636,o),
(407,636,o),
(429,632,c),
(440,630,o),
(450,627,o),
(459,621,c),
(477,610,o),
(484,591,o),
(478,572,c),
(470,550,o),
(444,541,o),
(427,557,c),
(417,567,o),
(407,568,o),
(395,568,c),
(347,568,o),
(300,559,o),
(254,547,c),
(249,545,o),
(245,543,o),
(243,537,c),
(234,495,o),
(201,421,o),
(185,382,c),
(184,381,o),
(185,381,o),
(185,378,c)
);
}
);
width = 320;
}
);
unicode = 69;
},
{
glyphname = F;
lastChange = "2022-10-02 03:16:44 +0000";
layers = (
{
anchors = (
{
name = bottom;
pos = (233,0);
},
{
name = top;
pos = (233,720);
}
);
layerId = m01;
shapes = (
{
closed = 1;
nodes = (
(194,407,o),
(220,416,o),
(247,423,c),
(272,429,o),
(298,434,o),
(324,436,c),
(341,437,o),
(358,436,o),
(374,430,c),
(390,425,o),
(399,415,o),
(400,398,c),
(401,387,o),
(397,378,o),
(388,371,c),
(378,365,o),
(367,363,o),
(358,370,c),
(349,377,o),
(339,377,o),
(329,376,c),
(291,374,o),
(254,365,o),
(218,353,c),
(188,343,o),
(160,331,o),
(131,318,c),
(125,315,o),
(120,311,o),
(118,305,c),
(105,276,o),
(55,177,o),
(44,148,c),
(41,140,o),
(40,132,o),
(44,122,c),
(52,104,o),
(37,86,o),
(16,87,c),
(-2,88,o),
(-16,101,o),
(-20,120,c),
(-21,131,o),
(-20,141,o),
(-17,151,c),
(-11,175,o),
(35,267,o),
(45,289,c),
(49,297,o),
(51,304,o),
(48,314,c),
(44,329,o),
(51,341,o),
(64,348,c),
(75,355,o),
(81,364,o),
(86,375,c),
(111,425,o),
(125,451,o),
(153,499,c),
(157,507,o),
(159,511,o),
(151,518,c),
(139,527,o),
(139,544,o),
(147,556,c),
(152,563,o),
(159,568,o),
(167,572,c),
(174,575,o),
(182,579,o),
(189,582,c),
(201,586,o),
(210,591,o),
(217,602,c),
(225,614,o),
(240,618,o),
(252,611,c),
(260,607,o),
(266,608,o),
(274,610,c),
(318,623,o),
(363,632,o),
(410,635,c),
(423,635,o),
(436,635,o),
(449,632,c),
(453,631,o),
(457,629,o),
(461,628,c),
(480,620,o),
(491,602,o),
(488,585,c),
(485,566,o),
(469,550,o),
(450,548,c),
(436,546,o),
(424,552,o),
(420,567,c),
(418,574,o),
(414,576,o),
(407,575,c),
(355,571,o),
(305,559,o),
(256,543,c),
(251,541,o),
(246,539,o),
(243,533,c),
(212,483,o),
(195,455,o),
(167,402,c),
(167,402,o),
(167,401,o),
(166,398,c)
);
}
);
width = 358;
}
);
unicode = 70;
},
{
glyphname = G;
kernLeft = G;
kernRight = G;
lastChange = "2022-10-02 03:16:47 +0000";
layers = (
{
anchors = (
{
name = bottom;
pos = (79,140);
},
{
name = top;
pos = (301,641);
}
);
layerId = m01;
shapes = (
{
closed = 1;
nodes = (
(266,562,o),
(262,557,o),
(258,554,c),
(243,542,o),
(229,528,o),
(217,513,c),
(159,441,o),
(117,360,o),
(91,270,c),
(87,257,o),
(85,244,o),
(84,231,c),
(84,222,o),
(84,212,o),
(87,204,c),
(89,194,o),
(93,192,o),
(102,195,c),
(107,197,o),
(112,199,o),
(117,202,c),
(130,209,o),
(141,217,o),
(153,226,c),
(196,261,o),
(231,304,o),
(266,347,c),
(262,351,o),
(258,349,o),
(255,348,c),
(233,344,o),
(210,342,o),
(189,330,c),
(177,324,o),
(162,328,o),
(154,338,c),
(145,348,o),
(143,362,o),
(149,374,c),
(155,386,o),
(165,393,o),
(178,396,c),
(205,404,o),
(234,410,o),
(263,414,c),
(299,419,o),
(335,422,o),
(372,422,c),
(382,422,o),
(391,421,o),
(400,417,c),
(416,408,o),
(423,394,o),
(418,378,c),
(414,363,o),
(401,355,o),
(383,357,c),
(379,357,o),
(376,358,o),
(372,358,c),
(368,358,o),
(365,358,o),
(363,353,c),
(342,309,o),
(312,268,o),
(289,225,c),
(285,216,o),
(281,207,o),
(277,199,c),
(273,193,o),
(273,187,o),
(276,181,c),
(283,165,o),
(276,152,o),
(265,142,c),
(254,130,o),
(239,126,o),
(224,132,c),
(209,138,o),
(203,149,o),
(201,164,c),
(201,170,o),
(201,175,o),
(201,180,c),
(196,181,o),
(193,177,o),
(190,175,c),
(175,163,o),
(160,152,o),
(143,144,c),
(132,138,o),
(121,133,o),
(108,131,c),
(74,125,o),
(45,140,o),
(31,172,c),
(18,198,o),
(19,226,o),
(23,254,c),
(28,293,o),
(41,329,o),
(57,365,c),
(84,430,o),
(118,491,o),
(162,547,c),
(182,571,o),
(203,593,o),
(229,612,c),
(242,621,o),
(255,629,o),
(270,633,c),
(301,641,o),
(326,626,o),
(335,596,c),
(339,580,o),
(339,565,o),
(336,549,c),
(331,511,o),
(314,478,o),
(293,447,c),
(283,432,o),
(266,429,o),
(251,437,c),
(238,444,o),
(232,460,o),
(238,476,c),
(240,484,o),
(246,491,o),
(250,498,c),
(262,518,o),
(271,538,o),
(273,563,c)
);
}
);
width = 360;
}
);
unicode = 71;
},
{
glyphname = H;
kernLeft = H;
kernRight = H;
lastChange = "2022-10-02 03:16:49 +0000";
layers = (
{
anchors = (
{
name = bottom;
pos = (156,70);
},
{
name = center;
pos = (225,360);
},
{
name = top;
pos = (364,634);
},
{
name = topleft;
pos = (20,720);
}
);
layerId = m01;
shapes = (
{
closed = 1;
nodes = (
(220.92,442.237,o),
(239.627,447.093,o),
(258.515,451.093,c),
(289.269,457.605,o),
(320.228,463.16,o),
(351.621,465.396,c),
(360.823,466.052,o),
(365.863,469.83,o),
(369.785,477.975,c),
(385.649,510.918,o),
(402.09,543.583,o),
(418.307,576.356,c),
(419.573,578.915,o),
(421.733,581.481,o),
(421.822,584.1,c),
(422.55,605.461,o),
(437.303,619.081,o),
(449.271,634.091,c),
(461.812,649.821,o),
(479.665,653.223,o),
(494.854,643.649,c),
(509.184,634.617,o),
(514.095,617.353,o),
(507.013,599.911,c),
(505.087,595.168,o),
(502.474,590.69,o),
(500,586.186,c),
(480.18,550.119,o),
(462.199,513.116,o),
(443.963,476.242,c),
(442.482,473.247,o),
(440.544,470.329,o),
(441.065,466.163,c),
(446.284,464.506,o),
(451.802,463.04,o),
(457.101,461.007,c),
(466.328,457.465,o),
(474.351,452.082,o),
(480.36,444.075,c),
(490.344,430.771,o),
(489.888,413.829,o),
(479.292,401.41,c),
(467.591,387.695,o),
(448.949,383.425,o),
(434.589,391.416,c),
(431.126,393.344,o),
(428.363,396.57,o),
(424.852,398.369,c),
(415.412,403.206,o),
(407.343,400.433,o),
(402.842,390.516,c),
(377.804,335.343,o),
(327.586,221.234,o),
(312.21,162.393,c),
(308.009,146.316,o),
(305.674,131.203,o),
(312.918,114.258,c),
(322.54,91.751,o),
(302.063,69.858,o),
(277.754,74.792,c),
(257.766,78.85,o),
(246.183,92.111,o),
(241.321,111.515,c),
(237.033,128.626,o),
(239.401,145.672,o),
(242.825,162.515,c),
(252.896,212.056,o),
(298.298,317.096,o),
(317.036,363.756,c),
(320.813,373.161,o),
(326.164,382.026,o),
(327.976,392.107,c),
(322.967,394.618,o),
(318.362,393.324,o),
(313.959,392.598,c),
(268.801,385.15,o),
(224.437,374.47,o),
(181,359.939,c),
(174.078,357.623,o),
(169.032,354.865,o),
(166.645,347.125,c),
(156.206,313.286,o),
(118.764,221.163,o),
(111.238,186.498,c),
(108.179,172.409,o),
(107.497,158.509,o),
(110.874,144.118,c),
(113.834,131.496,o),
(109.282,120.29,o),
(98.333,112.618,c),
(88.61,105.804,o),
(77.807,105.338,o),
(67.363,110.211,c),
(55.973,115.526,o),
(48.713,125.074,o),
(44.555,136.865,c),
(40.496,148.371,o),
(39.63,160.207,o),
(40.754,172.348,c),
(42.981,196.39,o),
(75.731,277.983,o),
(81.933,301.172,c),
(83.514,307.083,o),
(86.942,312.759,o),
(85.318,320.342,c),
(79.498,322.235,o),
(74.797,318.037,o),
(69.836,316.323,c),
(59.592,312.78,o),
(49.697,308.083,o),
(38.737,307.074,c),
(20.068,305.355,o),
(5.261,315.292,o),
(0.992,332.192,c),
(-3.12,348.471,o),
(5.788,365.704,o),
(23.286,371.581,c),
(48.246,379.965,o),
(71.83,391.731,o),
(96.632,400.298,c),
(110.834,405.205,o),
(118.455,413.634,o),
(123.337,427.979,c),
(144.909,491.374,o),
(173.3,551.907,o),
(203.245,611.716,c),
(205.285,615.79,o),
(207.564,619.811,o),
(210.231,623.495,c),
(222.246,640.096,o),
(240.96,644.489,o),
(256.777,634.624,c),
(271.809,625.249,o),
(276.481,607.047,o),
(267.953,589.329,c),
(258.29,569.256,o),
(247.793,549.576,o),
(238.491,529.343,c),
(226.325,502.881,o),
(214.942,476.058,o),
(203.313,449.351,c),
(201.958,446.24,o),
(201.184,442.875,o),
(199.329,437.099,c)
);
}
);
width = 410;
}
);
unicode = 72;
},
{
glyphname = Hbar;
kernLeft = H;
kernRight = H;
lastChange = "2022-09-29 03:55:18 +0000";
layers = (
{
layerId = m01;
shapes = (
{
closed = 1;
nodes = (
(376,523,o),
(375,524,o),
(373,524,c),
(326,521,o),
(279,516,o),
(233,509,c),
(226,508,o),
(221,505,o),
(218,498,c),
(207,472,o),
(195,446,o),
(184,419,c),
(183,417,o),
(180,414,o),
(183,411,c),
(184,411,o),
(186,411,o),
(187,411,c),
(235,425,o),
(284,437,o),
(334,444,c),
(340,445,o),
(343,448,o),
(346,453,c),
(356,475,o),
(367,496,o),
(377,517,c),
(378,519,o),
(378,521,o),
(378,523,c)
);
},
{
closed = 1;
nodes = (
(143,492,o),
(138,490,o),
(134,491,c),
(117,492,o),
(106,502,o),
(104,517,c),
(103,532,o),
(111,544,o),
(127,549,c),
(137,552,o),
(147,554,o),
(158,555,c),
(176,556,o),
(188,565,o),
(195,582,c),
(199,592,o),
(205,601,o),
(211,611,c),
(216,618,o),
(222,624,o),
(230,627,c),
(252,637,o),
(274,621,o),
(272,597,c),
(272,590,o),
(267,583,o),
(266,574,c),
(286,576,o),
(304,578,o),
(323,580,c),
(349,582,o),
(375,584,o),
(401,585,c),
(410,585,o),
(415,588,o),
(419,595,c),
(425,606,o),
(432,617,o),
(438,628,c),
(442,633,o),
(445,638,o),
(451,643,c),
(465,655,o),
(484,655,o),
(495,643,c),
(507,631,o),
(506,610,o),
(493,597,c),
(489,593,o),
(483,590,o),
(481,583,c),
(483,579,o),
(488,579,o),
(491,577,c),
(505,567,o),
(508,551,o),
(500,535,c),
(492,520,o),
(477,514,o),
(461,521,c),
(449,526,o),
(449,526,o),
(443,515,c),
(433,497,o),
(425,479,o),
(415,461,c),
(412,455,o),
(412,451,o),
(420,449,c),
(433,446,o),
(442,438,o),
(445,424,c),
(450,402,o),
(433,385,o),
(411,389,c),
(409,390,o),
(407,391,o),
(405,391,c),
(389,395,o),
(384,392,o),
(378,377,c),
(356,324,o),
(337,271,o),
(325,215,c),
(324,211,o),
(323,207,o),
(322,202,c),
(320,192,o),
(321,183,o),
(327,174,c),
(333,164,o),
(332,153,o),
(325,144,c),
(317,135,o),
(307,132,o),
(295,135,c),
(280,139,o),
(271,149,o),
(265,163,c),
(261,172,o),
(261,181,o),
(261,191,c),
(262,209,o),
(266,226,o),
(270,244,c),
(280,285,o),
(294,325,o),
(309,364,c),
(310,369,o),
(312,374,o),
(314,380,c),
(298,379,o),
(284,374,o),
(270,371,c),
(234,363,o),
(199,353,o),
(164,342,c),
(158,340,o),
(153,338,o),
(150,330,c),
(141,302,o),
(132,274,o),
(126,245,c),
(123,235,o),
(123,227,o),
(131,217,c),
(142,205,o),
(136,186,o),
(121,178,c),
(106,171,o),
(87,174,o),
(75,187,c),
(67,197,o),
(64,208,o),
(63,221,c),
(63,242,o),
(69,263,o),
(74,284,c),
(76,293,o),
(79,301,o),
(81,311,c),
(74,312,o),
(70,308,o),
(66,305,c),
(57,299,o),
(48,296,o),
(38,293,c),
(23,290,o),
(9,297,o),
(3,310,c),
(-3,323,o),
(1,337,o),
(13,346,c),
(19,351,o),
(25,354,o),
(31,357,c),
(53,366,o),
(75,375,o),
(97,383,c),
(103,385,o),
(108,387,o),
(110,394,c),
(121,424,o),
(133,454,o),
(146,483,c),
(147,485,o),
(148,488,o),
(147,490,c)
);
}
);
width = 394;
}
);
unicode = 294;
},
{
glyphname = I;
kernLeft = I;
kernRight = I;
lastChange = "2022-10-02 03:16:52 +0000";
layers = (
{
anchors = (
{
name = bottom;
pos = (74,0);
},
{
name = ogonek;
pos = (22,127);
},
{
name = top;
pos = (199,643);
},
{
name = topleft;
pos = (10,720);
}
);
layerId = m01;
shapes = (
{
closed = 1;
nodes = (
(-4,191,o),
(6,220,o),
(17,250,c),
(49,341,o),
(89,430,o),
(129,518,c),
(132,526,o),
(135,533,o),
(139,541,c),
(143,550,o),
(146,558,o),
(141,568,c),
(130,588,o),
(168,635,o),
(189,635,c),
(208,635,o),
(225,620,o),
(226,601,c),
(226,590,o),
(223,580,o),
(219,569,c),
(205,526,o),
(184,484,o),
(165,442,c),
(131,363,o),
(97,284,o),
(70,203,c),
(66,193,o),
(64,183,o),
(61,173,c),
(58,165,o),
(57,157,o),
(58,148,c),
(59,132,o),
(52,119,o),
(38,112,c),
(25,106,o),
(9,109,o),
(-1,121,c),
(-10,132,o),
(-11,146,o),
(-10,160,c)
);
}
);
width = 116;
}
);
unicode = 73;
},
{
glyphname = J;
kernLeft = J;
kernRight = J;
lastChange = "2022-10-02 03:16:55 +0000";
layers = (
{
anchors = (
{
name = bottom;
pos = (140,90);
},
{
name = top;
pos = (350,641);
}
);
layerId = m01;
shapes = (
{
closed = 1;
nodes = (
(384.941,562.077,o),
(381.113,542.118,o),
(375.905,522.536,c),
(353.668,438.919,o),
(322.816,358.743,o),
(278.603,284.086,c),
(256.431,246.644,o),
(231.198,211.461,o),
(199.99,180.884,c),
(176.068,157.449,o),
(149.529,137.762,o),
(118.65,124.248,c),
(107.753,119.478,o),
(96.557,115.796,o),
(84.902,113.674,c),
(37.078,104.967,o),
(-4.496,143.006,o),
(0.392,191.307,c),
(3.302,220.069,o),
(16.919,243.676,o),
(38.057,262.884,c),
(49.046,272.87,o),
(62.644,274.268,o),
(73.984,267.983,c),
(87.931,260.254,o),
(93.316,244.729,o),
(86.574,228.6,c),
(82.249,218.251,o),
(76.161,208.651,o),
(71.404,198.462,c),
(68.935,193.172,o),
(63.734,186.971,o),
(69.357,181.566,c),
(73.906,177.192,o),
(80.002,180.818,o),
(85.217,182.742,c),
(109.978,191.874,o),
(130.777,207.098,o),
(149.733,225.055,c),
(179.028,252.807,o),
(202.119,285.369,o),
(222.366,320.022,c),
(264.429,392.008,o),
(293.902,469.047,o),
(313.722,549.881,c),
(316.659,561.858,o),
(318.673,573.601,o),
(313.663,586.157,c),
(309.917,595.545,o),
(311.552,606.211,o),
(314.833,616.043,c),
(322.923,640.292,o),
(349.899,647.348,o),
(369.237,630.54,c),
(384.133,617.593,o),
(384.783,600.172,o),
(384.94,588.67,c)
);
}
);
width = 315;
}
);
unicode = 74;
},
{
glyphname = K;
kernLeft = K;
kernRight = K;
lastChange = "2022-10-02 03:16:58 +0000";
layers = (
{
anchors = (
{
name = bottom;
pos = (130,140);
},
{
name = top;
pos = (302,609);
}
);
layerId = m01;
shapes = (
{
closed = 1;
nodes = (
(167.496,445.252,o),
(169.048,445.538,o),
(170.307,446.306,c),
(227.111,480.992,o),
(314.314,539.982,o),
(366.501,581.488,c),
(372.281,586.085,o),
(377.682,591.158,o),
(383.249,596.022,c),
(388.128,600.285,o),
(390.901,605.279,o),
(392.456,611.947,c),
(397.044,631.618,o),
(418.017,643.877,o),
(436.002,638.441,c),
(454.587,632.824,o),
(464.614,610.271,o),
(457.026,590.486,c),
(452.599,578.941,o),
(444.712,569.615,o),
(436.328,560.766,c),
(419.552,543.06,o),
(400.568,527.896,o),
(380.954,513.519,c),
(323.826,471.643,o),
(232.993,410.519,o),
(172.132,374.367,c),
(147.64,359.819,o),
(152.837,368.406,o),
(151.952,339.109,c),
(151.105,311.087,o),
(151.443,283.118,o),
(158.148,255.635,c),
(161.672,241.189,o),
(166.47,227.236,o),
(174.62,214.695,c),
(189.781,191.367,o),
(210.323,183.879,o),
(236.092,193.946,c),
(272.419,208.139,o),
(296.309,235.634,o),
(313.299,269.828,c),
(315.519,274.299,o),
(314.89,278.826,o),
(314.283,283.677,c),
(312.37,298.942,o),
(318.881,310.951,o),
(331.085,316.232,c),
(343.431,321.575,o),
(356.594,318.26,o),
(366.898,307.11,c),
(376.066,297.189,o),
(379.376,285.26,o),
(378.283,272.05,c),
(377.627,264.119,o),
(375.713,256.383,o),
(372.458,249.107,c),
(351.013,201.179,o),
(318.155,163.652,o),
(270.511,140.611,c),
(208.796,110.766,o),
(148.509,130.933,o),
(115.837,191.429,c),
(107.761,206.381,o),
(102.019,222.213,o),
(97.839,238.648,c),
(96.679,243.212,o),
(95.392,247.743,o),
(93.995,252.914,c),
(89.358,248.446,o),
(88.724,243.175,o),
(87.31,238.328,c),
(80.516,215.024,o),
(73.712,191.722,o),
(67.201,168.339,c),
(65.391,161.841,o),
(64.371,155.75,o),
(68.793,148.825,c),
(78.341,133.874,o),
(76.134,120.866,o),
(63.989,108.998,c),
(52.223,97.501,o),
(35.025,94.487,o),
(21.692,101.986,c),
(6.346,110.618,o),
(-0.021,124.492,o),
(0,141.556,c),
(0.019,157.534,o),
(3.862,172.962,o),
(7.837,188.287,c),
(21.631,241.467,o),
(39.298,293.418,o),
(57.117,345.355,c),
(63.879,365.064,o),
(70.611,384.506,o),
(78.899,403.755,c),
(99.556,451.728,o),
(123.165,520.27,o),
(144.762,567.867,c),
(148.894,576.972,o),
(152.479,586.021,o),
(154.202,596.17,c),
(156.353,608.844,o),
(164.066,619.546,o),
(173.375,628.333,c),
(183.151,637.561,o),
(194.958,638.903,o),
(207.203,633.376,c),
(218.657,628.205,o),
(225.651,615.649,o),
(224.703,602.157,c),
(224.104,593.636,o),
(221.168,585.711,o),
(217.715,577.935,c),
(203.366,545.612,o),
(184.578,493.375,o),
(170.337,461.005,c),
(168.242,456.243,o),
(166.453,451.347,o),
(163.432,443.784,c)
);
}
);
width = 410;
}
);
unicode = 75;
},
{
glyphname = L;
kernLeft = L;
kernRight = L;
lastChange = "2022-10-02 03:17:02 +0000";
layers = (
{
anchors = (
{
name = bottom;
pos = (135,86);
},
{
name = center;
pos = (141,360);
},
{
name = top;
pos = (234,640);
},
{
name = topright;
pos = (284,624);
}
);
layerId = m01;
shapes = (
{
closed = 1;
nodes = (
(95,161.404,o),
(109.809,167.197,o),
(124.823,172.403,c),
(164.21,186.059,o),
(204.734,193.407,o),
(246.486,193.822,c),
(257.635,193.933,o),
(268.537,192.529,o),
(279.125,189.233,c),
(291.932,185.248,o),
(301.322,177.152,o),
(306.375,164.537,c),
(315.314,142.219,o),
(296.952,117.236,o),
(273.938,123.026,c),
(230.507,133.953,o),
(189.814,123.595,o),
(149,111.422,c),
(126.777,104.794,o),
(105.727,94.976,o),
(84.212,86.434,c),
(73.434,82.154,o),
(62.645,77.922,o),
(51.185,75.848,c),
(21.717,70.516,o),
(-0.325,88.914,o),
(-0.364,118.67,c),
(-0.379,129.889,o),
(2.58,140.456,o),
(6.018,150.98,c),
(22.655,201.901,o),
(43.608,251.114,o),
(64.855,300.218,c),
(97.492,375.647,o),
(154.479,508.693,o),
(178.949,587.293,c),
(180.752,593.083,o),
(182.313,598.949,o),
(184.07,604.754,c),
(191.199,628.296,o),
(207.417,639.333,o),
(226.423,633.618,c),
(246.096,627.702,o),
(254.326,608.737,o),
(246.991,585.068,c),
(241.116,566.111,o),
(234.928,547.243,o),
(228.442,528.486,c),
(201.562,450.749,o),
(143.788,318.028,o),
(111.231,242.576,c),
(99.241,214.79,o),
(87.576,186.856,o),
(76.608,154.586,c)
);
}
);
width = 328;
}
);
unicode = 76;
},
{
glyphname = Lslash;
kernLeft = L;
kernRight = L;
lastChange = "2022-09-29 03:55:51 +0000";
layers = (
{
layerId = m01;
shapes = (
{
closed = 1;
nodes = (
(291,175,o),
(274,152,o),
(253,157,c),
(214,167,o),
(177,158,o),
(140,147,c),
(120,141,o),
(100,132,o),
(81,124,c),
(71,120,o),
(61,116,o),
(51,114,c),
(24,110,o),
(4,126,o),
(4,153,c),
(4,164,o),
(7,173,o),
(10,183,c),
(22,221,o),
(37,258,o),
(53,294,c),
(48,291,o),
(45,288,o),
(45,287,c),
(38,274,o),
(25,269,o),
(12,269,c),
(-8,269,o),
(-22,285,o),
(-20,305,c),
(-19,317,o),
(-13,327,o),
(-3,335,c),
(18,352,o),
(40,368,o),
(63,382,c),
(66,384,o),
(81,393,o),
(99,402,c),
(116,443,o),
(131,485,o),
(144,527,c),
(146,533,o),
(147,538,o),
(149,543,c),
(156,565,o),
(170,575,o),
(188,570,c),
(205,564,o),
(213,547,o),
(206,525,c),
(201,508,o),
(195,491,o),
(189,474,c),
(186,464,o),
(183,455,o),
(179,445,c),
(190,448,o),
(201,447,o),
(211,438,c),
(229,422,o),
(223,393,o),
(199,383,c),
(180,375,o),
(163,365,o),
(145,356,c),
(145,356,o),
(144,356,o),
(144,355,c),
(131,326,o),
(118,296,o),
(105,266,c),
(95,241,o),
(84,215,o),
(74,186,c),
(91,192,o),
(104,198,o),
(118,202,c),
(154,215,o),
(191,221,o),
(229,222,c),
(239,222,o),
(249,221,o),
(258,218,c),
(270,214,o),
(278,207,o),
(283,195,c)
);
}
);
width = 315;
}
);
unicode = 321;
},
{
glyphname = M;
kernLeft = M;
kernRight = M;
lastChange = "2022-10-02 03:17:05 +0000";
layers = (
{
anchors = (
{
name = bottom;
pos = (211,152);
},
{
name = top;
pos = (369,588);
}
);
layerId = m01;
shapes = (
{
closed = 1;
nodes = (
(508.011,502.933,o),
(505.494,499.278,o),
(502.547,496.195,c),
(419.187,409,o),
(344.045,315.316,o),
(279.652,213.194,c),
(270.168,198.155,o),
(261.572,182.555,o),
(252.586,167.203,c),
(250.681,163.949,o),
(249.07,160.504,o),
(246.976,157.381,c),
(237.121,142.682,o),
(222.616,137.343,o),
(207.968,142.865,c),
(192.848,148.564,o),
(184.736,163.53,o),
(188.264,180.939,c),
(192.437,201.537,o),
(197.438,221.966,o),
(201.902,242.507,c),
(213.123,294.139,o),
(224.62,345.711,o),
(227.624,398.724,c),
(229.25,427.413,o),
(228.365,455.919,o),
(222.618,484.077,c),
(219.493,499.383,o),
(214.314,514.06,o),
(203.277,525.252,c),
(199.181,525.447,o),
(199.313,522.687,o),
(199.106,520.907,c),
(194.823,484.086,o),
(181.766,449.815,o),
(168.616,415.576,c),
(141.368,344.632,o),
(110.441,275.123,o),
(85.732,203.189,c),
(79.953,186.368,o),
(74.272,169.512,o),
(68.717,152.616,c),
(67.042,147.52,o),
(66.318,142.65,o),
(68.68,137.014,c),
(77.885,115.046,o),
(71.645,99.036,o),
(51.588,91.167,c),
(32.11,83.524,o),
(10.163,93.672,o),
(2.923,113.695,c),
(-0.464,123.062,o),
(-0.791,132.615,o),
(0.869,142.399,c),
(3.768,159.479,o),
(9.002,175.894,o),
(14.396,192.292,c),
(39.86,269.692,o),
(71.853,344.577,o),
(101.913,420.212,c),
(110.468,441.739,o),
(117.865,463.725,o),
(125.902,485.46,c),
(128.779,493.242,o),
(127.617,500.808,o),
(127.238,508.946,c),
(125.3,550.632,o),
(137.805,590.368,o),
(183.126,597.32,c),
(201.213,600.093,o),
(217.313,594.719,o),
(232.076,584.877,c),
(249.585,573.204,o),
(261.87,556.934,o),
(271.081,538.254,c),
(282.945,514.193,o),
(288.389,488.391,o),
(290.495,461.898,c),
(293.197,427.94,o),
(292.65,393.996,o),
(288.329,360.148,c),
(287.654,354.863,o),
(286.39,349.515,o),
(287.931,343.166,c),
(294.226,345.154,o),
(296.372,350.936,o),
(299.579,355.233,c),
(356.466,431.455,o),
(418.632,503.095,o),
(485.862,570.352,c),
(501.504,586,o),
(517.661,601.098,o),
(534.745,615.18,c),
(542.255,621.371,o),
(550.035,627.238,o),
(559.012,631.114,c),
(573.865,637.528,o),
(588.77,637.733,o),
(601.937,627.626,c),
(614.547,617.945,o),
(618.359,603.87,o),
(616.592,588.546,c),
(614.789,572.91,o),
(609.435,558.145,o),
(603.679,543.58,c),
(583.587,492.742,o),
(556.604,445.436,o),
(528.941,398.503,c),
(493.895,339.045,o),
(458.038,280.038,o),
(428.087,217.75,c),
(419.213,199.296,o),
(411.188,180.435,o),
(402.687,161.8,c),
(399.864,155.611,o),
(398.963,150.023,o),
(403.065,143.592,c),
(413.631,127.032,o),
(402.094,100.304,o),
(375.16,99.431,c),
(351.995,98.679,o),
(334.136,115.021,o),
(332.753,138.957,c),
(331.923,153.325,o),
(336.256,166.702,o),
(341.333,179.798,c),
(356.168,218.065,o),
(374.573,254.674,o),
(393.701,290.924,c),
(418.88,338.635,o),
(446.829,384.763,o),
(474.137,431.258,c),
(485.331,450.32,o),
(496.182,469.586,o),
(506.928,488.904,c),
(509.463,493.462,o),
(513.126,497.687,o),
(513.368,505.008,c)
);
}
);
width = 507;
}
);
unicode = 77;
},
{
glyphname = N;
kernLeft = N;
kernRight = N;
lastChange = "2022-10-02 03:17:09 +0000";
layers = (
{
anchors = (
{
name = bottom;
pos = (154,138);
},
{
name = top;
pos = (347,628);
}
);
layerId = m01;
shapes = (
{
closed = 1;
nodes = (
(191,469,o),
(191,467,o),
(190,465,c),
(157,383,o),
(101,258,o),
(68,177,c),
(64,168,o),
(61,159,o),
(68,150,c),
(69,147,o),
(70,143,o),
(70,140,c),
(70,113,o),
(35,91,o),
(10,103,c),
(-1,108,o),
(-7,117,o),
(-9,128,c),
(-11,140,o),
(-9,152,o),
(-5,163,c),
(3,189,o),
(13,213,o),
(23,238,c),
(67,343,o),
(133,493,o),
(173,600,c),
(176,608,o),
(179,616,o),
(184,622,c),
(197,639,o),
(219,639,o),
(234,623,c),
(247,609,o),
(253,595,o),
(255,577,c),
(260,527,o),
(260,477,o),
(260,428,c),
(260,379,o),
(260,330,o),
(263,282,c),
(263,278,o),
(263,273,o),
(265,268,c),
(271,271,o),
(271,277,o),
(272,282,c),
(296,348,o),
(321,414,o),
(352,477,c),
(369,513,o),
(388,549,o),
(410,582,c),
(420,596,o),
(430,609,o),
(443,620,c),
(449,625,o),
(455,629,o),
(463,632,c),
(486,642,o),
(510,633,o),
(523,610,c),
(529,599,o),
(533,588,o),
(533,576,c),
(534,563,o),
(529,553,o),
(517,548,c),
(506,543,o),
(495,545,o),
(486,553,c),
(483,556,o),
(481,560,o),
(477,561,c),
(466,551,o),
(459,538,o),
(451,526,c),
(418,471,o),
(391,412,o),
(368,352,c),
(347,297,o),
(327,242,o),
(306,187,c),
(302,177,o),
(297,167,o),
(292,157,c),
(289,151,o),
(285,145,o),
(279,140,c),
(262,125,o),
(238,129,o),
(225,148,c),
(219,156,o),
(216,164,o),
(214,173,c),
(205,208,o),
(202,243,o),
(200,279,c),
(196,337,o),
(197,395,o),
(196,453,c),
(196,458,o),
(196,464,o),
(196,470,c)
);
}
);
width = 373;
}
);
unicode = 78;
},
{
glyphname = Eng;
kernLeft = N;
kernRight = J;
lastChange = "2022-09-29 04:20:14 +0000";
layers = (
{
layerId = m01;
shapes = (
{
closed = 1;
nodes = (
(139,438,o),
(139,433,o),
(138,431,c),
(108,363,o),
(81,293,o),
(58,223,c),
(53,208,o),
(49,193,o),
(50,177,c),
(52,164,o),
(44,154,o),
(32,149,c),
(21,146,o),
(9,149,o),
(1,159,c),
(-9,170,o),
(-11,184,o),
(-9,199,c),
(-7,217,o),
(-1,235,o),
(5,252,c),
(37,345,o),
(72,436,o),
(117,523,c),
(124,538,o),
(133,552,o),
(141,567,c),
(152,589,o),
(173,588,o),
(190,579,c),
(214,566,o),
(216,550,o),
(213,526,c),
(203,446,o),
(197,367,o),
(203,287,c),
(205,270,o),
(206,253,o),
(213,237,c),
(220,238,o),
(221,243,o),
(223,247,c),
(278,345,o),
(321,449,o),
(348,559,c),
(349,565,o),
(351,571,o),
(353,576,c),
(358,590,o),
(372,597,o),
(385,594,c),
(400,591,o),
(410,579,o),
(409,564,c),
(408,555,o),
(406,547,o),
(404,539,c),
(372,411,o),
(320,291,o),
(252,178,c),
(237,154,o),
(220,131,o),
(199,111,c),
(187,99,o),
(174,88,o),
(158,81,c),
(107,60,o),
(78,103,o),
(79,138,c),
(79,149,o),
(85,158,o),
(96,162,c),
(107,166,o),
(117,163,o),
(125,154,c),
(127,152,o),
(129,150,o),
(130,147,c),
(136,137,o),
(137,136,o),
(147,144,c),
(158,153,o),
(168,163,o),
(176,174,c),
(179,177,o),
(180,180,o),
(177,183,c),
(154,206,o),
(150,235,o),
(146,265,c),
(138,318,o),
(142,371,o),
(144,424,c),
(144,428,o),
(145,432,o),
(145,436,c),
(145,437,o),
(144,438,o),
(144,439,c)
);
}
);
width = 339;
}
);
unicode = 330;
},
{
glyphname = O;
kernLeft = O;
kernRight = O;
lastChange = "2022-10-02 03:17:11 +0000";
layers = (
{
anchors = (
{
name = bottom;
pos = (125,0);
},
{
name = center;
pos = (125,360);
},
{
name = ogonek;
pos = (100,140);
},
{
name = top;
pos = (351,643);
},
{
name = topleft;
pos = (-27,720);
},
{
name = topright;
pos = (276,720);
}
);
layerId = m01;
shapes = (
{
closed = 1;
nodes = (
(204,488,o),
(191,472,o),
(179,456,c),
(138,401,o),
(107,340,o),
(93,271,c),
(89,252,o),
(88,233,o),
(91,214,c),
(94,198,o),
(101,194,o),
(116,198,c),
(124,199,o),
(131,202,o),
(138,205,c),
(156,213,o),
(171,224,o),
(186,236,c),
(235,278,o),
(274,327,o),
(304,384,c),
(325,424,o),
(341,465,o),
(348,509,c),
(351,522,o),
(351,536,o),
(348,549,c),
(344,563,o),
(339,566,o),
(325,561,c),
(315,558,o),
(305,553,o),
(301,542,c),
(299,536,o),
(295,531,o),
(290,528,c),
(283,524,o),
(279,518,o),
(275,511,c),
(264,492,o),
(245,487,o),
(227,498,c),
(224,499,o),
(222,501,o),
(218,503,c)
);
},
{
closed = 1;
nodes = (
(20,272,o),
(28,305,o),
(39,338,c),
(68,423,o),
(116,496,o),
(178,561,c),
(190,574,o),
(204,585,o),
(220,595,c),
(229,600,o),
(239,606,o),
(251,606,c),
(262,605,o),
(271,611,o),
(280,616,c),
(301,629,o),
(325,635,o),
(350,631,c),
(376,627,o),
(395,612,o),
(407,589,c),
(418,565,o),
(421,540,o),
(419,514,c),
(414,465,o),
(398,419,o),
(377,375,c),
(342,301,o),
(294,238,o),
(231,185,c),
(206,163,o),
(179,145,o),
(148,134,c),
(132,129,o),
(116,126,o),
(100,128,c),
(70,130,o),
(48,145,o),
(34,171,c),
(23,191,o),
(20,214,o),
(20,236,c)
);
}
);
width = 370;
}
);
unicode = 79;
},
{
glyphname = Oslash;
kernLeft = O;
kernRight = O;
lastChange = "2022-09-30 00:48:03 +0000";
layers = (
{
layerId = m01;
shapes = (
{
closed = 1;
nodes = (
(95,313,o),
(97,312,o),
(98,312,c),
(99,314,o),
(100,316,o),
(102,318,c),
(147,369,o),
(194,419,o),
(241,468,c),
(248,476,o),
(255,484,o),
(263,491,c),
(267,496,o),
(267,500,o),
(264,505,c),
(261,509,o),
(257,512,o),
(252,513,c),
(246,515,o),
(242,515,o),
(241,507,c),
(239,496,o),
(234,486,o),
(226,477,c),
(219,468,o),
(210,463,o),
(200,465,c),
(189,468,o),
(184,463,o),
(178,457,c),
(145,421,o),
(120,381,o),
(102,336,c),
(99,329,o),
(96,322,o),
(94,314,c)
);
},
{
closed = 1;
nodes = (
(88,195,o),
(94,197,o),
(100,199,c),
(112,203,o),
(123,209,o),
(133,216,c),
(192,259,o),
(234,314,o),
(261,381,c),
(264,389,o),
(268,397,o),
(267,410,c),
(202,340,o),
(138,273,o),
(79,199,c)
);
},
{
closed = 1;
nodes = (
(73,136,o),
(61,139,o),
(51,145,c),
(45,149,o),
(41,150,o),
(34,148,c),
(13,142,o),
(-3,157,o),
(0,178,c),
(1,188,o),
(5,196,o),
(11,204,c),
(14,209,o),
(16,214,o),
(16,220,c),
(17,285,o),
(38,344,o),
(67,401,c),
(87,441,o),
(113,476,o),
(144,507,c),
(156,518,o),
(167,529,o),
(181,537,c),
(190,543,o),
(200,547,o),
(212,545,c),
(217,545,o),
(219,547,o),
(220,551,c),
(225,565,o),
(236,570,o),
(250,571,c),
(269,573,o),
(287,566,o),
(300,552,c),
(308,545,o),
(313,542,o),
(324,544,c),
(345,549,o),
(363,533,o),
(362,514,c),
(361,502,o),
(355,493,o),
(344,488,c),
(336,485,o),
(333,480,o),
(333,470,c),
(336,416,o),
(323,365,o),
(297,317,c),
(267,261,o),
(228,213,o),
(177,174,c),
(155,158,o),
(132,144,o),
(104,139,c),
(98,137,o),
(92,137,o),
(85,137,c)
);
}
);
width = 312;
}
);
unicode = 216;
},
{
glyphname = OE;
kernLeft = O;
kernRight = E;
lastChange = "2022-09-30 00:48:28 +0000";
layers = (
{
layerId = m01;
shapes = (
{
closed = 1;
nodes = (
(246,484,o),
(245,480,o),
(243,477,c),
(235,466,o),
(224,461,o),
(212,464,c),
(203,467,o),
(197,464,o),
(192,459,c),
(186,454,o),
(181,450,o),
(176,445,c),
(123,387,o),
(86,319,o),
(64,244,c),
(61,231,o),
(59,218,o),
(60,205,c),
(61,195,o),
(63,194,o),
(73,196,c),
(85,198,o),
(96,204,o),
(107,211,c),
(169,255,o),
(219,309,o),
(252,379,c),
(260,396,o),
(265,414,o),
(267,432,c),
(269,453,o),
(264,471,o),
(250,486,c)
);
},
{
closed = 1;
nodes = (
(287,210,o),
(311,215,o),
(335,218,c),
(354,220,o),
(374,223,o),
(393,223,c),
(402,222,o),
(410,221,o),
(418,219,c),
(430,215,o),
(440,207,o),
(445,195,c),
(449,184,o),
(447,171,o),
(439,163,c),
(430,155,o),
(419,153,o),
(408,158,c),
(398,163,o),
(388,163,o),
(378,162,c),
(340,160,o),
(303,154,o),
(267,143,c),
(260,141,o),
(252,139,o),
(245,137,c),
(238,135,o),
(231,134,o),
(224,136,c),
(207,138,o),
(196,154,o),
(199,171,c),
(200,177,o),
(205,182,o),
(202,189,c),
(200,195,o),
(201,201,o),
(200,208,c),
(194,206,o),
(191,202,o),
(188,199,c),
(166,180,o),
(143,162,o),
(117,149,c),
(99,140,o),
(80,134,o),
(60,135,c),
(35,136,o),
(17,149,o),
(7,173,c),
(-1,191,o),
(-1,211,o),
(2,230,c),
(6,269,o),
(20,304,o),
(36,339,c),
(59,388,o),
(86,434,o),
(122,474,c),
(137,491,o),
(154,507,o),
(173,519,c),
(184,527,o),
(195,534,o),
(208,536,c),
(211,537,o),
(214,539,o),
(217,541,c),
(239,554,o),
(259,552,o),
(279,539,c),
(291,531,o),
(299,521,o),
(306,510,c),
(309,506,o),
(311,502,o),
(315,497,c),
(321,502,o),
(326,509,o),
(330,515,c),
(338,527,o),
(349,532,o),
(363,533,c),
(388,534,o),
(413,539,o),
(438,541,c),
(472,543,o),
(506,545,o),
(540,540,c),
(548,538,o),
(556,536,o),
(563,532,c),
(575,524,o),
(580,510,o),
(575,497,c),
(571,484,o),
(557,475,o),
(543,478,c),
(497,488,o),
(452,481,o),
(407,478,c),
(385,477,o),
(372,468,o),
(364,448,c),
(355,425,o),
(343,404,o),
(332,381,c),
(338,378,o),
(343,380,o),
(347,380,c),
(376,385,o),
(405,388,o),
(434,391,c),
(444,392,o),
(455,392,o),
(465,389,c),
(486,383,o),
(496,365,o),
(490,348,c),
(484,330,o),
(461,319,o),
(443,326,c),
(434,330,o),
(426,330,o),
(417,329,c),
(384,326,o),
(351,320,o),
(317,316,c),
(306,314,o),
(299,310,o),
(294,298,c),
(285,273,o),
(275,249,o),
(267,224,c),
(265,218,o),
(262,213,o),
(263,204,c)
);
}
);
width = 507;
}
);
unicode = 338;
},
{
glyphname = P;
kernLeft = P;
kernRight = P;
lastChange = "2022-10-02 03:17:14 +0000";
layers = (
{
anchors = (
{
name = bottom;
pos = (148,0);
},
{
name = top;
pos = (331,649);
}
);
layerId = m01;
shapes = (
{
closed = 1;
nodes = (
(144,346,o),
(147,346,o),
(149,346,c),
(152,346,o),
(155,346,o),
(159,347,c),
(166,349,o),
(173,351,o),
(180,353,c),
(214,366,o),
(245,385,o),
(272,409,c),
(297,431,o),
(320,459,o),
(338,492,c),
(345,504,o),
(350,518,o),
(353,532,c),
(355,542,o),
(354,551,o),
(351,559,c),
(347,571,o),
(340,576,o),
(329,576,c),
(329,576,o),
(328,576,o),
(327,576,c),
(310,575,o),
(293,570,o),
(276,562,c),
(272,560,o),
(271,558,o),
(271,553,c),
(271,533,o),
(259,521,o),
(240,521,c),
(239,521,o),
(238,521,o),
(237,521,c),
(237,521,o),
(237,521,o),
(236,521,c),
(230,521,o),
(227,518,o),
(224,512,c),
(192,455,o),
(166,405,o),
(144,358,c),
(143,356,o),
(143,355,o),
(142,354,c),
(141,352,o),
(140,349,o),
(139,347,c)
);
},
{
closed = 1;
nodes = (
(41,101,o),
(39,101,o),
(38,101,c),
(14,103,o),
(-2,124,o),
(0,150,c),
(1,163,o),
(4,176,o),
(8,189,c),
(12,200,o),
(28,239,o),
(42,273,c),
(51,296,o),
(59,317,o),
(62,324,c),
(63,326,o),
(64,329,o),
(65,331,c),
(69,339,o),
(72,347,o),
(72,356,c),
(72,361,o),
(74,366,o),
(78,370,c),
(84,375,o),
(87,382,o),
(91,389,c),
(91,390,o),
(92,392,o),
(93,393,c),
(123,458,o),
(157,520,o),
(191,577,c),
(198,588,o),
(206,598,o),
(220,600,c),
(222,600,o),
(224,602,o),
(226,603,c),
(227,604,o),
(228,605,o),
(229,606,c),
(258,625,o),
(290,636,o),
(325,637,c),
(326,637,o),
(327,637,o),
(329,637,c),
(350,637,o),
(370,630,o),
(385,617,c),
(400,604,o),
(410,586,o),
(414,564,c),
(418,542,o),
(415,519,o),
(407,494,c),
(402,480,o),
(396,468,o),
(390,457,c),
(367,419,o),
(340,387,o),
(311,361,c),
(279,334,o),
(244,312,o),
(204,296,c),
(182,288,o),
(162,284,o),
(142,284,c),
(141,284,o),
(140,284,o),
(140,284,c),
(133,284,o),
(126,285,o),
(120,287,c),
(118,288,o),
(117,288,o),
(116,288,c),
(115,288,o),
(114,288,o),
(113,285,c),
(111,280,o),
(104,263,o),
(97,245,c),
(84,213,o),
(66,169,o),
(64,160,c),
(62,155,o),
(62,151,o),
(66,147,c),
(74,138,o),
(75,126,o),
(68,115,c),
(63,105,o),
(54,101,o),
(42,101,c)
);
}
);
width = 326;
}
);
unicode = 80;
},
{
glyphname = Thorn;
kernLeft = P;
kernRight = P;
lastChange = "2022-09-30 00:48:53 +0000";
layers = (
{
layerId = m01;
shapes = (
{
closed = 1;
nodes = (
(97,263,o),
(100,264,o),
(103,264,c),
(173,278,o),
(236,308,o),
(289,355,c),
(297,361,o),
(303,369,o),
(310,377,c),
(314,383,o),
(318,389,o),
(321,396,c),
(328,414,o),
(323,424,o),
(304,429,c),
(295,431,o),
(286,432,o),
(277,431,c),
(244,429,o),
(212,423,o),
(181,413,c),
(167,408,o),
(158,400,o),
(151,387,c),
(133,352,o),
(115,316,o),
(99,279,c),
(97,275,o),
(94,270,o),
(95,265,c)
);
},
{
closed = 1;
nodes = (
(219,482,o),
(230,486,o),
(242,487,c),
(263,490,o),
(283,492,o),
(304,489,c),
(322,487,o),
(340,481,o),
(355,469,c),
(379,450,o),
(388,424,o),
(382,394,c),
(378,373,o),
(368,355,o),
(355,339,c),
(342,322,o),
(326,307,o),
(309,294,c),
(253,250,o),
(189,221,o),
(119,207,c),
(105,204,o),
(91,202,o),
(76,204,c),
(71,205,o),
(68,204,o),
(67,199,c),
(64,188,o),
(59,178,o),
(61,167,c),
(63,150,o),
(56,139,o),
(42,135,c),
(29,131,o),
(12,138,o),
(5,151,c),
(-2,164,o),
(-1,177,o),
(2,189,c),
(5,204,o),
(10,217,o),
(15,231,c),
(19,241,o),
(23,250,o),
(22,261,c),
(21,269,o),
(25,276,o),
(31,281,c),
(36,285,o),
(38,289,o),
(41,294,c),
(69,361,o),
(103,425,o),
(139,487,c),
(146,499,o),
(152,511,o),
(159,523,c),
(161,527,o),
(164,530,o),
(164,535,c),
(164,550,o),
(173,559,o),
(183,567,c),
(192,574,o),
(202,576,o),
(213,571,c),
(223,566,o),
(229,557,o),
(230,546,c),
(231,537,o),
(228,528,o),
(224,520,c),
(218,508,o),
(212,496,o),
(205,483,c)
);
}
);
width = 364;
}
);
unicode = 222;
},
{
glyphname = Q;
lastChange = "2022-10-02 03:17:18 +0000";
layers = (
{
anchors = (
{
name = bottom;
pos = (245,0);
},
{
name = top;
pos = (245,720);
}
);
layerId = m01;
shapes = (
{
closed = 1;
nodes = (
(252,302,o),
(254,303,o),
(255,304,c),
(298,350,o),
(332,401,o),
(353,460,c),
(357,474,o),
(361,488,o),
(362,502,c),
(363,528,o),
(354,549,o),
(331,562,c),
(322,568,o),
(312,571,o),
(303,566,c),
(288,556,o),
(270,556,o),
(255,556,c),
(239,557,o),
(232,550,o),
(224,540,c),
(220,536,o),
(216,531,o),
(212,526,c),
(155,448,o),
(115,362,o),
(92,268,c),
(87,250,o),
(85,231,o),
(86,212,c),
(87,189,o),
(92,186,o),
(113,194,c),
(144,205,o),
(169,225,o),
(194,245,c),
(198,248,o),
(199,252,o),
(196,257,c),
(194,262,o),
(192,267,o),
(190,272,c),
(185,283,o),
(180,294,o),
(176,306,c),
(170,327,o),
(184,349,o),
(206,353,c),
(225,356,o),
(240,343,o),
(243,320,c),
(243,313,o),
(245,307,o),
(250,301,c)
);
},
{
closed = 1;
nodes = (
(22,265,o),
(32,303,o),
(45,341,c),
(70,418,o),
(106,490,o),
(153,556,c),
(168,578,o),
(185,597,o),
(206,614,c),
(219,624,o),
(233,632,o),
(250,635,c),
(254,635,o),
(259,637,o),
(263,635,c),
(279,631,o),
(295,633,o),
(311,633,c),
(361,634,o),
(408,596,o),
(423,543,c),
(430,516,o),
(428,489,o),
(421,461,c),
(406,403,o),
(378,352,o),
(341,304,c),
(324,283,o),
(306,262,o),
(286,242,c),
(280,236,o),
(279,231,o),
(283,224,c),
(290,211,o),
(296,198,o),
(303,186,c),
(307,178,o),
(311,171,o),
(314,163,c),
(321,147,o),
(317,133,o),
(305,125,c),
(292,116,o),
(277,118,o),
(264,130,c),
(254,139,o),
(247,151,o),
(240,163,c),
(236,171,o),
(235,183,o),
(226,185,c),
(218,186,o),
(212,176,o),
(205,171,c),
(183,155,o),
(160,141,o),
(134,132,c),
(124,128,o),
(113,125,o),
(102,124,c),
(68,122,o),
(41,138,o),
(28,169,c),
(22,185,o),
(19,204,o),
(20,225,c)
);
}
);
width = 387;
}
);
unicode = 81;
},
{
glyphname = R;
kernLeft = R;
kernRight = R;
lastChange = "2022-10-02 03:17:21 +0000";
layers = (
{
anchors = (
{
name = bottom;
pos = (132,121);
},
{
name = top;
pos = (310,646);
}
);
layerId = m01;
shapes = (
{
closed = 1;
nodes = (
(306,568,l),
(278,568,o),
(246,561,o),
(220,548,c),
(211,544,o),
(199,539,o),
(201,523,c),
(201,521,o),
(200,518,o),
(198,516,c),
(197,514,o),
(196,512,o),
(195,510,c),
(192,504,o),
(188,498,o),
(184,491,c),
(179,485,o),
(174,478,o),
(171,471,c),
(156,432,o),
(138,386,o),
(122,340,c),
(121,339,o),
(121,338,o),
(121,338,c),
(119,334,o),
(118,331,o),
(118,327,c),
(118,323,o),
(120,319,o),
(123,316,c),
(126,314,o),
(128,313,o),
(131,313,c),
(131,313,l),
(134,313,o),
(138,315,o),
(140,317,c),
(142,317,o),
(143,318,o),
(144,318,c),
(197,340,o),
(246,372,o),
(290,413,c),
(315,436,o),
(331,456,o),
(344,477,c),
(354,495,o),
(359,509,o),
(360,524,c),
(362,543,o),
(353,557,o),
(334,564,c),
(326,568,o),
(317,568,o),
(309,568,c),
(308,568,o),
(307,568,o),
(306,568,c),
(306,568,l)
);
},
{
closed = 1;
nodes = (
(246,119,o),
(242,119,o),
(238,120,c),
(208,124,o),
(182,135,o),
(159,151,c),
(137,167,o),
(118,188,o),
(102,215,c),
(101,217,o),
(100,218,o),
(99,220,c),
(98,223,o),
(96,225,o),
(94,228,c),
(94,229,o),
(92,230,o),
(92,230,c),
(91,230,o),
(91,230,o),
(91,230,c),
(88,231,l),
(87,229,l),
(81,216,o),
(78,203,o),
(76,190,c),
(75,188,o),
(74,185,o),
(74,182,c),
(73,178,o),
(74,175,o),
(75,172,c),
(76,171,o),
(76,171,o),
(76,170,c),
(81,157,o),
(83,139,o),
(64,130,c),
(60,128,o),
(55,126,o),
(50,126,c),
(38,126,o),
(26,133,o),
(19,143,c),
(12,154,o),
(9,167,o),
(11,182,c),
(13,197,o),
(16,212,o),
(22,232,c),
(44,311,o),
(74,395,o),
(114,495,c),
(118,504,o),
(121,513,o),
(120,523,c),
(119,539,o),
(125,553,o),
(139,567,c),
(155,584,o),
(175,597,o),
(201,608,c),
(239,623,o),
(271,631,o),
(303,631,c),
(315,631,o),
(327,630,o),
(339,627,c),
(368,622,o),
(392,606,o),
(407,583,c),
(422,560,o),
(426,531,o),
(420,502,c),
(413,473,o),
(400,446,o),
(379,418,c),
(341,370,o),
(294,329,o),
(234,294,c),
(214,282,o),
(193,271,o),
(171,262,c),
(163,259,o),
(158,256,o),
(157,251,c),
(156,247,o),
(158,242,o),
(163,235,c),
(182,207,o),
(206,190,o),
(236,183,c),
(241,182,o),
(245,181,o),
(249,181,c),
(254,181,o),
(259,182,o),
(264,184,c),
(278,191,o),
(280,200,o),
(280,208,c),
(280,224,o),
(288,236,o),
(303,239,c),
(305,240,o),
(307,240,o),
(309,240,c),
(320,240,o),
(331,233,o),
(337,220,c),
(346,204,o),
(345,188,o),
(336,170,c),
(320,139,o),
(285,119,o),
(250,119,c)
);
}
);
width = 383;
}
);
unicode = 82;
},
{
glyphname = S;
kernLeft = S;
kernRight = S;
lastChange = "2022-10-02 03:17:24 +0000";
layers = (
{
anchors = (
{
name = bottom;
pos = (74,130);
},
{
name = top;
pos = (250,642);
}
);
layerId = m01;
shapes = (
{
closed = 1;
nodes = (
(310.889,544.579,o),
(307.185,530.172,o),
(301.786,516.054,c),
(292.402,491.517,o),
(277.772,470.439,o),
(259.759,451.562,c),
(252.061,443.495,o),
(243.094,437.8,o),
(231.594,436.815,c),
(216.562,435.527,o),
(204.161,442.49,o),
(199.103,455.303,c),
(193.959,468.335,o),
(197.612,482.51,o),
(209.848,491.009,c),
(228.637,504.059,o),
(238.871,522.695,o),
(246.513,543.335,c),
(248.883,549.74,o),
(249.61,556.423,o),
(249.184,563.173,c),
(248.489,574.193,o),
(244.149,577.796,o),
(233.039,576.182,c),
(227.967,575.445,o),
(222.765,574.309,o),
(218.102,572.262,c),
(157.657,545.733,o),
(119.798,500.076,o),
(105.267,435.856,c),
(99.345,409.685,o),
(107.129,385.764,o),
(123.244,364.513,c),
(130.148,355.407,o),
(138.223,347.418,o),
(146.637,339.758,c),
(155.81,331.409,o),
(165.183,323.281,o),
(174.315,314.889,c),
(184.225,305.784,o),
(193.489,296.066,o),
(201.345,285.08,c),
(229.327,245.959,o),
(227.93,203.947,o),
(194.396,169.486,c),
(156.179,130.212,o),
(109.299,110.672,o),
(54.049,121.731,c),
(10.992,130.349,o),
(-4.716,166.914,o),
(1.183,205.081,c),
(3.462,219.827,o),
(13.805,229.07,o),
(26.897,229.98,c),
(40.388,230.916,o),
(51.009,223.659,o),
(56.075,209.311,c),
(58.122,203.511,o),
(59.203,197.339,o),
(60.375,191.269,c),
(61.747,184.164,o),
(65.697,180.359,o),
(73.013,180.174,c),
(105.456,179.353,o),
(132.654,190.655,o),
(153.507,215.762,c),
(160.915,224.681,o),
(160.865,234.665,o),
(154.769,244.59,c),
(148.476,254.837,o),
(140.095,263.242,o),
(131.348,271.321,c),
(118.064,283.591,o),
(104.159,295.249,o),
(91.517,308.148,c),
(40.975,359.719,o),
(29.287,419.826,o),
(56.029,486.395,c),
(79.11,543.851,o),
(117.756,588.628,o),
(172.401,618.766,c),
(188.315,627.543,o),
(205.124,634.119,o),
(223.291,636.592,c),
(275.067,643.638,o),
(311.089,611.986,o),
(310.729,559.806,c)
);
}
);
width = 261;
}
);
unicode = 83;
},
{
glyphname = Germandbls;
kernLeft = P;
kernRight = P;
lastChange = "2022-09-30 00:49:11 +0000";
layers = (
{
layerId = m01;
shapes = (
{
closed = 1;
nodes = (
(93,231,o),
(100,234,o),
(108,236,c),
(140,242,o),
(170,253,o),
(198,268,c),
(205,272,o),
(212,275,o),
(216,283,c),
(209,286,o),
(203,286,o),
(197,286,c),
(185,287,o),
(172,285,o),
(160,284,c),
(144,283,o),
(130,286,o),
(122,302,c),
(121,303,o),
(120,304,o),
(118,306,c),
(105,282,o),
(94,258,o),
(83,233,c)
);
},
{
closed = 1;
nodes = (
(199,377,o),
(251,408,o),
(294,450,c),
(300,457,o),
(306,463,o),
(311,471,c),
(315,478,o),
(321,486,o),
(315,493,c),
(309,501,o),
(300,496,o),
(293,494,c),
(275,487,o),
(260,477,o),
(245,465,c),
(207,434,o),
(175,396,o),
(147,354,c),
(146,353,o),
(145,351,o),
(145,349,c)
);
},
{
closed = 1;
nodes = (
(252,333,o),
(257,330,o),
(261,326,c),
(284,307,o),
(288,280,o),
(272,256,c),
(262,239,o),
(247,228,o),
(230,218,c),
(197,199,o),
(162,187,o),
(125,178,c),
(107,174,o),
(89,170,o),
(70,171,c),
(63,171,o),
(61,168,o),
(60,162,c),
(60,158,o),
(61,153,o),
(62,149,c),
(64,135,o),
(57,123,o),
(44,117,c),
(32,112,o),
(18,115,o),
(9,127,c),
(2,136,o),
(0,146,o),
(0,158,c),
(1,171,o),
(3,185,o),
(7,198,c),
(41,302,o),
(93,397,o),
(170,476,c),
(196,504,o),
(225,528,o),
(260,545,c),
(276,552,o),
(291,556,o),
(308,556,c),
(356,556,o),
(387,514,o),
(375,468,c),
(368,445,o),
(354,427,o),
(338,410,c),
(315,386,o),
(288,366,o),
(260,347,c),
(255,344,o),
(250,342,o),
(247,337,c)
);
}
);
width = 313;
}
);
unicode = 7838;
},
{
glyphname = T;
kernLeft = T;
kernRight = T;
lastChange = "2022-10-02 03:17:27 +0000";
layers = (
{
anchors = (
{
name = bottom;
pos = (48,122);
},
{
name = center;
pos = (139,360);
},
{
name = top;
pos = (223,627);
}
);
layerId = m01;
shapes = (
{
closed = 1;
nodes = (
(143,551,o),
(69,540,o),
(45,527,c),
(32,520,o),
(18,519,o),
(4,521,c),
(-8,522,o),
(-16,530,o),
(-19,542,c),
(-22,553,o),
(-19,564,o),
(-10,572,c),
(-5,576,o),
(1,579,o),
(7,581,c),
(56,596,o),
(153,616,o),
(204,622,c),
(209,623,o),
(215,624,o),
(220,626,c),
(223,627,o),
(272,633,o),
(275,633,c),
(300,629,o),
(323,635,o),
(348,633,c),
(360,633,o),
(372,632,o),
(383,627,c),
(397,621,o),
(407,611,o),
(408,594,c),
(410,583,o),
(406,574,o),
(396,567,c),
(386,561,o),
(375,560,o),
(366,567,c),
(358,573,o),
(349,574,o),
(339,574,c),
(326,573,o),
(267,570,o),
(254,569,c),
(247,569,o),
(242,565,o),
(239,559,c),
(197,475,o),
(110,301,o),
(82,210,c),
(80,201,o),
(77,192,o),
(75,183,c),
(73,172,o),
(70,161,o),
(78,150,c),
(84,141,o),
(83,130,o),
(76,122,c),
(69,113,o),
(60,109,o),
(49,111,c),
(32,113,o),
(18,127,o),
(14,145,c),
(11,159,o),
(13,173,o),
(15,187,c),
(25,234,o),
(86,369,o),
(104,414,c),
(122,456,o),
(142,497,o),
(162,538,c),
(165,543,o),
(167,549,o),
(171,558,c)
);
}
);
width = 179;
}
);
unicode = 84;
},
{
glyphname = U;
kernLeft = U;
kernRight = U;
lastChange = "2022-10-02 03:17:30 +0000";
layers = (
{
anchors = (
{
name = bottom;
pos = (236,0);
},
{
name = ogonek;
pos = (122,147);
},
{
name = top;
pos = (294,613);
},
{
name = topright;
pos = (391,720);
}
);
layerId = m01;
shapes = (
{
closed = 1;
nodes = (
(41,302,o),
(51,348,o),
(62,393,c),
(75,451,o),
(92,508,o),
(117,562,c),
(124,575,o),
(130,587,o),
(139,599,c),
(144,607,o),
(151,613,o),
(160,616,c),
(178,622,o),
(197,616,o),
(205,600,c),
(213,583,o),
(209,562,o),
(193,551,c),
(185,546,o),
(181,539,o),
(177,531,c),
(152,476,o),
(136,419,o),
(123,361,c),
(116,329,o),
(110,297,o),
(108,265,c),
(107,247,o),
(107,230,o),
(112,213,c),
(117,198,o),
(122,196,o),
(136,201,c),
(154,208,o),
(168,219,o),
(181,231,c),
(216,263,o),
(245,299,o),
(270,339,c),
(317,412,o),
(345,493,o),
(368,577,c),
(370,585,o),
(369,593,o),
(368,601,c),
(367,617,o),
(374,629,o),
(387,635,c),
(401,641,o),
(415,637,o),
(426,625,c),
(434,617,o),
(437,607,o),
(437,596,c),
(438,583,o),
(436,571,o),
(432,559,c),
(411,477,o),
(383,398,o),
(340,325,c),
(312,276,o),
(277,231,o),
(236,191,c),
(216,172,o),
(195,154,o),
(169,142,c),
(154,135,o),
(137,130,o),
(120,131,c),
(90,133,o),
(68,149,o),
(55,176,c),
(42,201,o),
(40,228,o),
(40,255,c)
);
}
);
width = 367;
}
);
unicode = 85;
},
{
glyphname = V;
lastChange = "2022-10-02 03:17:33 +0000";
layers = (
{
anchors = (
{
name = bottom;
pos = (113,74);
},
{
name = top;
pos = (235,622);
}
);
layerId = m01;
shapes = (
{
closed = 1;
nodes = (
(122,275,o),
(134,298,o),
(145,321,c),
(187,402,o),
(231,482,o),
(283,557,c),
(300,582,o),
(318,606,o),
(339,628,c),
(346,635,o),
(353,643,o),
(362,648,c),
(382,658,o),
(405,653,o),
(417,634,c),
(428,617,o),
(432,597,o),
(428,577,c),
(425,562,o),
(416,550,o),
(400,545,c),
(387,542,o),
(377,547,o),
(367,556,c),
(361,552,o),
(358,547,o),
(355,542,c),
(315,489,o),
(281,431,o),
(249,373,c),
(219,319,o),
(191,263,o),
(163,207,c),
(154,189,o),
(145,170,o),
(132,153,c),
(124,141,o),
(113,132,o),
(98,130,c),
(78,128,o),
(64,137,o),
(54,156,c),
(45,175,o),
(42,195,o),
(41,215,c),
(38,259,o),
(41,303,o),
(45,346,c),
(50,412,o),
(57,478,o),
(71,543,c),
(76,563,o),
(80,583,o),
(86,603,c),
(87,608,o),
(90,614,o),
(93,620,c),
(100,633,o),
(114,639,o),
(127,636,c),
(142,633,o),
(151,623,o),
(154,609,c),
(156,601,o),
(155,594,o),
(153,587,c),
(138,551,o),
(133,512,o),
(127,474,c),
(116,404,o),
(110,334,o),
(107,263,c),
(107,260,o),
(106,256,o),
(110,252,c)
);
}
);
width = 270;
}
);
unicode = 86;
},
{
glyphname = W;
kernLeft = W;
kernRight = W;
lastChange = "2022-10-02 03:17:38 +0000";
layers = (
{
anchors = (
{
name = bottom;
pos = (316,0);
},
{
name = top;
pos = (394,595);
}
);
layerId = m01;
shapes = (
{
closed = 1;
nodes = (
(267,316,o),
(265,311,o),
(261,307,c),
(232,272,o),
(202,238,o),
(169,207,c),
(154,194,o),
(139,181,o),
(122,171,c),
(112,164,o),
(101,159,o),
(90,156,c),
(55,145,o),
(26,165,o),
(21,201,c),
(19,221,o),
(22,241,o),
(27,261,c),
(43,325,o),
(66,386,o),
(92,446,c),
(112,493,o),
(133,540,o),
(160,584,c),
(165,593,o),
(170,601,o),
(178,607,c),
(189,616,o),
(203,618,o),
(214,611,c),
(227,604,o),
(233,592,o),
(231,578,c),
(229,566,o),
(225,554,o),
(215,546,c),
(211,543,o),
(208,539,o),
(205,534,c),
(158,444,o),
(119,350,o),
(91,252,c),
(89,246,o),
(88,239,o),
(87,233,c),
(87,231,o),
(87,230,o),
(88,227,c),
(95,229,o),
(100,234,o),
(106,239,c),
(143,269,o),
(174,304,o),
(205,340,c),
(261,406,o),
(308,476,o),
(346,553,c),
(349,559,o),
(352,564,o),
(357,569,c),
(368,578,o),
(382,580,o),
(394,574,c),
(406,568,o),
(413,554,o),
(411,540,c),
(410,536,o),
(408,532,o),
(407,528,c),
(377,454,o),
(353,379,o),
(338,301,c),
(334,282,o),
(331,263,o),
(333,244,c),
(334,228,o),
(337,226,o),
(351,232,c),
(366,237,o),
(379,246,o),
(392,256,c),
(436,293,o),
(473,336,o),
(500,387,c),
(524,431,o),
(543,477,o),
(553,527,c),
(556,540,o),
(555,551,o),
(548,563,c),
(540,576,o),
(542,588,o),
(551,598,c),
(560,608,o),
(573,610,o),
(587,604,c),
(605,595,o),
(614,581,o),
(618,562,c),
(622,546,o),
(620,529,o),
(617,513,c),
(588,395,o),
(534,292,o),
(440,212,c),
(420,196,o),
(400,181,o),
(376,172,c),
(363,167,o),
(349,163,o),
(335,163,c),
(303,165,o),
(278,188,o),
(270,223,c),
(265,249,o),
(268,275,o),
(272,301,c),
(273,307,o),
(275,312,o),
(273,318,c)
);
}
);
width = 570;
}
);
unicode = 87;
},
{
glyphname = X;
lastChange = "2022-10-02 03:17:45 +0000";
layers = (
{
anchors = (
{
name = bottom;
pos = (164,0);
},
{
name = top;
pos = (164,720);
}
);
layerId = m01;
shapes = (
{
closed = 1;
nodes = (
(138,274,o),
(76,195,o),
(53,163,c),
(51,160,o),
(50,156,o),
(51,151,c),
(53,137,o),
(49,124,o),
(36,117,c),
(23,109,o),
(9,110,o),
(-3,119,c),
(-16,128,o),
(-22,141,o),
(-19,157,c),
(-18,168,o),
(-13,178,o),
(-6,188,c),
(7,209,o),
(23,229,o),
(39,248,c),
(61,272,o),
(119,346,o),
(142,370,c),
(150,378,o),
(151,386,o),
(150,397,c),
(141,460,o),
(136,524,o),
(134,587,c),
(134,599,o),
(136,610,o),
(144,619,c),
(159,637,o),
(183,636,o),
(196,617,c),
(203,607,o),
(208,596,o),
(213,585,c),
(220,570,o),
(218,556,o),
(205,544,c),
(202,541,o),
(200,538,o),
(200,533,c),
(203,505,o),
(205,477,o),
(207,448,c),
(207,446,o),
(208,445,o),
(209,443,c),
(215,444,o),
(218,449,o),
(222,452,c),
(278,508,o),
(336,562,o),
(396,614,c),
(403,620,o),
(410,627,o),
(419,632,c),
(438,644,o),
(462,635,o),
(470,614,c),
(475,600,o),
(470,584,o),
(455,578,c),
(446,573,o),
(438,567,o),
(430,560,c),
(361,499,o),
(294,435,o),
(229,370,c),
(223,364,o),
(219,359,o),
(221,350,c),
(229,319,o),
(264,225,o),
(280,197,c),
(283,191,o),
(286,186,o),
(290,181,c),
(294,174,o),
(300,171,o),
(307,176,c),
(310,178,o),
(314,179,o),
(318,181,c),
(330,184,o),
(343,180,o),
(350,170,c),
(357,161,o),
(357,147,o),
(350,137,c),
(333,110,o),
(296,101,o),
(268,116,c),
(253,125,o),
(242,137,o),
(233,151,c),
(219,173,o),
(182,259,o),
(174,283,c),
(172,289,o),
(170,295,o),
(167,304,c)
);
}
);
width = 372;
}
);
unicode = 88;
},
{
glyphname = Y;
kernLeft = Y;
kernRight = Y;
lastChange = "2022-10-02 03:17:48 +0000";
layers = (
{
anchors = (
{
name = bottom;
pos = (159,0);
},
{
name = top;
pos = (223,627);
},
{
name = topleft;
pos = (10,720);
}
);
layerId = m01;
shapes = (
{
closed = 1;
nodes = (
(164,438,o),
(174,450,o),
(183,463,c),
(223,512,o),
(263,562,o),
(303,612,c),
(311,622,o),
(317,632,o),
(325,642,c),
(333,652,o),
(344,655,o),
(356,652,c),
(368,648,o),
(375,640,o),
(377,628,c),
(379,620,o),
(376,612,o),
(371,605,c),
(365,595,o),
(358,585,o),
(350,576,c),
(309,524,o),
(267,472,o),
(226,421,c),
(211,402,o),
(196,382,o),
(182,364,c),
(177,358,o),
(175,353,o),
(178,345,c),
(183,328,o),
(173,313,o),
(155,311,c),
(145,309,o),
(141,305,o),
(136,297,c),
(126,280,o),
(66,180,o),
(58,163,c),
(55,158,o),
(54,153,o),
(56,147,c),
(62,128,o),
(45,109,o),
(29,107,c),
(10,105,o),
(-7,118,o),
(-10,137,c),
(-11,145,o),
(-10,153,o),
(-7,160,c),
(-3,174,o),
(3,187,o),
(9,199,c),
(21,221,o),
(84,327,o),
(98,348,c),
(101,353,o),
(104,357,o),
(102,364,c),
(90,413,o),
(86,462,o),
(85,512,c),
(85,535,o),
(87,557,o),
(82,580,c),
(80,590,o),
(81,602,o),
(82,613,c),
(83,627,o),
(94,638,o),
(108,639,c),
(121,641,o),
(134,633,o),
(139,620,c),
(141,613,o),
(142,605,o),
(143,597,c),
(145,565,o),
(145,533,o),
(145,501,c),
(145,481,o),
(147,460,o),
(149,440,c),
(150,435,o),
(151,431,o),
(152,423,c)
);
}
);
width = 218;
}
);
unicode = 89;
},
{
glyphname = Z;
kernLeft = Z;
kernRight = Z;
lastChange = "2022-10-02 03:17:52 +0000";
layers = (
{
anchors = (
{
name = bottom;
pos = (173,0);
},
{
name = center;
pos = (173,360);
},
{
name = top;
pos = (373,642);
}
);
layerId = m01;
shapes = (
{
closed = 1;
nodes = (
(92,177,o),
(109,179,o),
(125,181,c),
(146,183,o),
(166,186,o),
(187,186,c),
(202,185,o),
(216,183,o),
(228,176,c),
(248,164,o),
(254,145,o),
(245,125,c),
(235,104,o),
(203,99,o),
(191,116,c),
(186,122,o),
(181,123,o),
(174,122,c),
(151,122,o),
(128,118,o),
(105,115,c),
(84,112,o),
(64,110,o),
(43,108,c),
(34,106,o),
(24,107,o),
(15,109,c),
(-15,116,o),
(-28,143,o),
(-15,170,c),
(-9,182,o),
(0,192,o),
(9,201,c),
(38,230,o),
(69,256,o),
(100,281,c),
(165,334,o),
(282,434,o),
(346,488,c),
(364,503,o),
(382,519,o),
(399,536,c),
(404,542,o),
(410,547,o),
(413,556,c),
(403,562,o),
(392,562,o),
(382,562,c),
(347,563,o),
(312,559,o),
(278,553,c),
(272,552,o),
(268,550,o),
(265,545,c),
(255,533,o),
(243,528,o),
(228,533,c),
(210,539,o),
(199,552,o),
(198,567,c),
(198,583,o),
(206,595,o),
(221,602,c),
(235,609,o),
(251,612,o),
(267,615,c),
(311,623,o),
(356,627,o),
(401,623,c),
(417,622,o),
(432,618,o),
(446,611,c),
(477,595,o),
(487,565,o),
(473,534,c),
(465,516,o),
(453,502,o),
(439,488,c),
(418,466,o),
(394,445,o),
(369,426,c),
(305,374,o),
(190,273,o),
(126,221,c),
(111,209,o),
(97,197,o),
(83,185,c),
(80,182,o),
(76,180,o),
(74,174,c)
);
}
);
width = 306;
}
);
unicode = 90;
},
{
glyphname = a;
kernLeft = a;
kernRight = a;
lastChange = "2022-10-02 03:27:05 +0000";
layers = (
{
anchors = (
{
name = bottom;
pos = (113,0);
},
{
name = ogonek;
pos = (137,159);
},
{
name = top;
pos = (151,411);
}
);
layerId = m01;
shapes = (
{
closed = 1;
nodes = (
(62,233,o),
(63,232,o),
(64,231,c),
(67,233,o),
(70,235,o),
(72,237,c),
(90,251,o),
(106,268,o),
(121,286,c),
(129,297,o),
(138,308,o),
(139,323,c),
(139,329,o),
(144,336,o),
(138,340,c),
(132,344,o),
(126,338,o),
(121,334,c),
(87,309,o),
(70,273,o),
(61,233,c)
);
},
{
closed = 1;
nodes = (
(92,178,o),
(79,169,o),
(64,166,c),
(34,159,o),
(9,174,o),
(3,204,c),
(-1,218,o),
(0,231,o),
(3,244,c),
(13,292,o),
(33,335,o),
(69,369,c),
(82,380,o),
(96,390,o),
(112,397,c),
(140,407,o),
(167,401,o),
(186,377,c),
(190,373,o),
(193,369,o),
(200,369,c),
(216,368,o),
(228,350,o),
(226,331,c),
(226,323,o),
(222,315,o),
(219,307,c),
(211,290,o),
(202,274,o),
(194,257,c),
(184,236,o),
(176,214,o),
(170,191,c),
(168,185,o),
(168,179,o),
(170,173,c),
(174,157,o),
(168,143,o),
(155,138,c),
(143,132,o),
(125,137,o),
(116,149,c),
(111,156,o),
(108,164,o),
(108,172,c),
(108,177,o),
(108,181,o),
(108,188,c)
);
}
);
width = 226;
}
);
unicode = 97;
},
{
glyphname = ae;
kernLeft = a;
kernRight = e;
lastChange = "2022-09-30 00:49:30 +0000";
layers = (
{
layerId = m01;
shapes = (
{
closed = 1;
nodes = (
(261,298,o),
(263,297,o),
(264,297,c),
(293,306,o),
(317,323,o),
(334,348,c),
(336,351,o),
(340,355,o),
(337,359,c),
(334,363,o),
(329,361,o),
(325,360,c),
(323,359,o),
(321,359,o),
(319,358,c),
(293,344,o),
(275,323,o),
(258,298,c)
);
},
{
closed = 1;
nodes = (
(63,224,o),
(65,224,o),
(66,224,c),
(104,244,o),
(135,273,o),
(161,308,c),
(162,310,o),
(164,312,o),
(164,315,c),
(164,326,o),
(164,337,o),
(163,348,c),
(163,357,o),
(159,358,o),
(150,355,c),
(144,353,o),
(138,349,o),
(133,345,c),
(99,320,o),
(76,286,o),
(63,246,c),
(61,239,o),
(60,232,o),
(60,223,c)
);
},
{
closed = 1;
nodes = (
(108,179,o),
(103,176,o),
(97,173,c),
(89,169,o),
(80,165,o),
(71,163,c),
(34,153,o),
(4,174,o),
(0,212,c),
(-1,228,o),
(0,244,o),
(5,259,c),
(22,316,o),
(55,362,o),
(103,397,c),
(113,404,o),
(124,410,o),
(136,414,c),
(163,422,o),
(186,416,o),
(205,395,c),
(210,390,o),
(214,386,o),
(223,388,c),
(229,390,o),
(236,388,o),
(241,384,c),
(247,379,o),
(251,381,o),
(256,385,c),
(266,395,o),
(277,402,o),
(289,409,c),
(304,417,o),
(321,422,o),
(339,421,c),
(379,419,o),
(406,382,o),
(396,344,c),
(394,333,o),
(389,323,o),
(383,314,c),
(348,266,o),
(301,237,o),
(241,234,c),
(235,234,o),
(230,235,o),
(230,226,c),
(230,218,o),
(233,213,o),
(241,213,c),
(250,213,o),
(258,216,o),
(266,220,c),
(275,225,o),
(285,231,o),
(295,236,c),
(302,240,o),
(311,242,o),
(319,239,c),
(337,234,o),
(342,213,o),
(331,197,c),
(311,168,o),
(258,148,o),
(224,155,c),
(210,159,o),
(198,166,o),
(188,176,c),
(185,180,o),
(183,184,o),
(178,187,c),
(173,172,o),
(164,163,o),
(148,162,c),
(132,160,o),
(122,169,o),
(114,182,c)
);
}
);
width = 393;
}
);
unicode = 230;
},
{
glyphname = b;
kernLeft = b;
kernRight = b;
lastChange = "2022-10-02 03:27:08 +0000";
layers = (
{
anchors = (
{
name = bottom;
pos = (111,0);
},
{
name = center;
pos = (111,250);
},
{
name = top;
pos = (208,636);
}
);
layerId = m01;
shapes = (
{
closed = 1;
nodes = (
(62,221,o),
(63,221,o),
(64,221,c),
(66,222,o),
(68,223,o),
(70,224,c),
(101,242,o),
(126,266,o),
(145,295,c),
(151,303,o),
(155,312,o),
(158,321,c),
(161,331,o),
(164,342,o),
(155,351,c),
(145,359,o),
(134,355,o),
(124,350,c),
(115,346,o),
(109,340,o),
(110,328,c),
(111,314,o),
(103,304,o),
(89,299,c),
(84,298,o),
(81,296,o),
(79,291,c),
(70,269,o),
(57,247,o),
(61,221,c)
);
},
{
closed = 1;
nodes = (
(144,414,o),
(147,415,o),
(151,415,c),
(196,410,o),
(226,371,o),
(220,325,c),
(217,308,o),
(212,292,o),
(203,277,c),
(175,227,o),
(135,190,o),
(83,165,c),
(77,161,o),
(70,159,o),
(64,157,c),
(30,149,o),
(3,168,o),
(1,202,c),
(-1,233,o),
(1,263,o),
(14,292,c),
(39,351,o),
(67,407,o),
(96,464,c),
(116,502,o),
(135,541,o),
(153,580,c),
(157,589,o),
(160,598,o),
(164,606,c),
(171,623,o),
(185,630,o),
(200,625,c),
(214,621,o),
(223,608,o),
(221,591,c),
(220,583,o),
(217,577,o),
(214,570,c),
(191,522,o),
(168,474,o),
(144,428,c),
(143,424,o),
(140,421,o),
(141,416,c)
);
}
);
width = 221;
}
);
unicode = 98;
},
{
glyphname = c;
kernLeft = c;
kernRight = c;
lastChange = "2022-10-02 03:27:10 +0000";
layers = (
{
anchors = (
{
name = bottom;
pos = (55,168);
},
{
name = top;
pos = (162,423);
}
);
layerId = m01;
shapes = (
{
closed = 1;
nodes = (
(132,351,o),
(129,347,o),
(125,344,c),
(97,318,o),
(77,286,o),
(64,250,c),
(62,244,o),
(60,237,o),
(60,230,c),
(61,219,o),
(65,215,o),
(75,215,c),
(82,215,o),
(89,218,o),
(95,221,c),
(104,225,o),
(112,229,o),
(121,233,c),
(136,238,o),
(150,234,o),
(157,222,c),
(164,210,o),
(162,197,o),
(150,187,c),
(131,169,o),
(108,158,o),
(81,156,c),
(30,151,o),
(-6,191,o),
(1,242,c),
(4,261,o),
(11,279,o),
(19,296,c),
(36,334,o),
(60,367,o),
(92,393,c),
(101,401,o),
(112,408,o),
(123,413,c),
(143,422,o),
(162,423,o),
(180,409,c),
(198,394,o),
(204,375,o),
(201,353,c),
(199,339,o),
(194,326,o),
(188,314,c),
(184,306,o),
(180,297,o),
(175,289,c),
(168,274,o),
(153,268,o),
(138,274,c),
(125,279,o),
(118,292,o),
(120,308,c),
(121,315,o),
(124,321,o),
(128,327,c),
(132,335,o),
(137,342,o),
(139,352,c)
);
}
);
width = 202;
}
);
unicode = 99;
},
{
glyphname = d;
kernLeft = d;
kernRight = d;
lastChange = "2022-10-02 03:27:13 +0000";
layers = (
{
anchors = (
{
name = bottom;
pos = (189,0);
},
{
name = center;
pos = (189,250);
},
{
name = top;
pos = (189,900);
},
{
name = topright;
pos = (343,512);
}
);
layerId = m01;
shapes = (
{
closed = 1;
nodes = (
(61.954,220.058,o),
(62.856,219.51,o),
(63.759,218.961,c),
(66.757,222.848,o),
(69.888,226.64,o),
(72.729,230.638,c),
(87.227,251.045,o),
(99.948,272.576,o),
(112.989,293.919,c),
(120.179,305.684,o),
(121.059,319.449,o),
(126.648,331.717,c),
(128.941,336.751,o),
(127.625,343.269,o),
(123.159,351.291,c),
(91.692,311.311,o),
(70.929,268.599,o),
(61.051,220.607,c)
);
},
{
closed = 1;
nodes = (
(111.174,182.262,o),
(105.965,175.589,o),
(100.408,169.219,c),
(90.804,158.209,o),
(80.696,147.825,o),
(66.901,141.815,c),
(44.623,132.11,o),
(22.133,139.014,o),
(9.512,159.789,c),
(0.522,174.586,o),
(-0.981,190.982,o),
(-0.301,207.751,c),
(0.208,220.339,o),
(2.661,232.658,o),
(5.575,244.878,c),
(16.675,291.429,o),
(37.1,333.699,o),
(64.613,372.652,c),
(72.463,383.766,o),
(81.434,393.951,o),
(92.609,401.919,c),
(113.398,416.741,o),
(134.494,417.32,o),
(155.832,403.664,c),
(158.35,402.052,o),
(160.547,399.936,o),
(162.679,398.225,c),
(169.087,401.402,o),
(169.717,407.385,o),
(171.97,412.138,c),
(188.97,448.011,o),
(206.285,483.708,o),
(227.686,517.242,c),
(237.423,532.5,o),
(247.514,547.51,o),
(260.023,560.697,c),
(266.367,567.383,o),
(273.573,572.778,o),
(283.188,573.519,c),
(303.692,575.098,o),
(322.002,554.45,o),
(318.133,534.237,c),
(316.594,526.201,o),
(312.646,519.162,o),
(308.782,512.13,c),
(289.189,476.478,o),
(268.269,441.553,o),
(250.057,405.143,c),
(225.1,355.248,o),
(200.823,305.062,o),
(186.688,250.735,c),
(184.036,240.541,o),
(181.917,230.205,o),
(179.674,219.908,c),
(177.718,210.929,o),
(177.733,202.883,o),
(183.591,194.343,c),
(189.878,185.177,o),
(189.504,174.123,o),
(182.712,164.537,c),
(175.707,154.651,o),
(165.968,150.616,o),
(153.841,152.542,c),
(139.198,154.868,o),
(129.312,163.2,o),
(123.153,176.403,c),
(121.289,180.399,o),
(121.237,185.31,o),
(116.548,188.81,c)
);
}
);
width = 229;
}
);
unicode = 100;
},
{
glyphname = eth;
kernLeft = d;
kernRight = d;
lastChange = "2022-09-30 00:49:41 +0000";
layers = (
{
layerId = m01;
shapes = (
{
closed = 1;
nodes = (
(71,208,o),
(78,214,o),
(85,220,c),
(115,249,o),
(138,282,o),
(152,320,c),
(154,325,o),
(161,332,o),
(154,337,c),
(148,340,o),
(143,333,o),
(138,330,c),
(101,300,o),
(75,262,o),
(62,216,c),
(61,212,o),
(59,208,o),
(61,202,c)
);
},
{
closed = 1;
nodes = (
(108,503,o),
(104,515,o),
(112,529,c),
(122,548,o),
(143,553,o),
(163,541,c),
(174,534,o),
(174,534,o),
(185,541,c),
(191,545,o),
(197,549,o),
(204,553,c),
(210,556,o),
(217,558,o),
(224,558,c),
(239,559,o),
(252,550,o),
(255,535,c),
(258,521,o),
(251,507,o),
(236,502,c),
(228,498,o),
(221,494,o),
(214,489,c),
(210,486,o),
(209,483,o),
(211,479,c),
(243,406,o),
(227,337,o),
(195,270,c),
(175,229,o),
(147,193,o),
(111,164,c),
(99,154,o),
(86,146,o),
(71,141,c),
(34,129,o),
(3,150,o),
(0,189,c),
(-1,203,o),
(0,217,o),
(4,231,c),
(21,289,o),
(53,337,o),
(100,375,c),
(108,382,o),
(118,388,o),
(128,393,c),
(138,398,o),
(150,400,o),
(161,399,c),
(167,398,o),
(169,400,o),
(169,406,c),
(168,417,o),
(166,429,o),
(163,440,c),
(161,446,o),
(158,445,o),
(154,442,c),
(148,437,o),
(142,432,o),
(135,427,c),
(129,423,o),
(123,418,o),
(116,415,c),
(105,410,o),
(92,413,o),
(85,421,c),
(77,430,o),
(76,442,o),
(82,452,c),
(86,461,o),
(93,468,o),
(100,474,c),
(106,480,o),
(112,485,o),
(120,491,c)
);
}
);
width = 226;
}
);
unicode = 240;
},
{
glyphname = dcroat;
kernLeft = d;
kernRight = d;
lastChange = "2022-09-30 00:49:55 +0000";
layers = (
{
layerId = m01;
shapes = (
{
closed = 1;
nodes = (
(91,239,o),
(109,261,o),
(126,282,c),
(129,287,o),
(131,293,o),
(125,300,c),
(96,282,o),
(81,253,o),
(71,221,c)
);
},
{
closed = 1;
nodes = (
(117,176,o),
(115,171,o),
(111,168,c),
(101,158,o),
(90,147,o),
(78,140,c),
(69,134,o),
(60,131,o),
(49,131,c),
(31,131,o),
(15,141,o),
(7,158,c),
(1,169,o),
(-1,180,o),
(0,191,c),
(6,250,o),
(28,300,o),
(70,338,c),
(77,345,o),
(85,351,o),
(95,355,c),
(116,364,o),
(138,363,o),
(159,346,c),
(166,341,o),
(169,342,o),
(173,348,c),
(182,362,o),
(191,377,o),
(200,392,c),
(193,394,o),
(189,390,o),
(184,389,c),
(172,386,o),
(158,391,o),
(150,403,c),
(143,413,o),
(142,427,o),
(149,436,c),
(155,445,o),
(163,449,o),
(174,451,c),
(192,454,o),
(210,457,o),
(228,457,c),
(236,457,o),
(240,460,o),
(243,466,c),
(249,475,o),
(254,485,o),
(260,493,c),
(270,506,o),
(286,508,o),
(300,499,c),
(313,490,o),
(318,477,o),
(314,462,c),
(312,454,o),
(312,449,o),
(322,446,c),
(324,446,o),
(326,444,o),
(328,442,c),
(342,432,o),
(347,418,o),
(343,406,c),
(338,394,o),
(326,387,o),
(311,392,c),
(287,401,o),
(275,393,o),
(264,374,c),
(241,333,o),
(216,293,o),
(198,249,c),
(193,234,o),
(187,220,o),
(184,204,c),
(182,197,o),
(181,189,o),
(181,181,c),
(182,161,o),
(176,151,o),
(162,149,c),
(147,147,o),
(135,154,o),
(125,173,c),
(125,175,o),
(124,176,o),
(123,177,c)
);
}
);
width = 254;
}
);
unicode = 273;
},
{
glyphname = e;
kernLeft = e;
kernRight = e;
lastChange = "2022-10-02 09:30:13 +0000";
layers = (
{
anchors = (
{
name = bottom;
pos = (55,164);
},
{
name = ogonek;
pos = (120,183);
},
{
name = top;
pos = (151,402);
}
);
layerId = m01;
shapes = (
{
closed = 1;
nodes = (
(110,304,o),
(134,320,o),
(136,328,c),
(138,333,o),
(134,334,o),
(131,333,c),
(117,329,o),
(107,321,o),
(97,312,c),
(95,310,o),
(95,308,o),
(96,306,c),
(98,305,o),
(99,304,o),
(102,304,c)
);
},
{
closed = 1;
nodes = (
(28,155,o),
(-6,191,o),
(1,241,c),
(9,306,o),
(41,356,o),
(101,386,c),
(116,393,o),
(132,397,o),
(149,392,c),
(191,382,o),
(212,333,o),
(187,297,c),
(161,258,o),
(123,238,o),
(74,243,c),
(71,243,o),
(68,243,o),
(65,244,c),
(63,244,o),
(61,243,o),
(60,241,c),
(55,230,o),
(61,217,o),
(73,215,c),
(81,214,o),
(88,215,o),
(95,218,c),
(101,220,o),
(106,223,o),
(112,225,c),
(126,229,o),
(138,225,o),
(145,214,c),
(152,203,o),
(151,190,o),
(140,178,c),
(126,164,o),
(107,158,o),
(87,155,c),
(84,155,o),
(81,155,o),
(78,155,c)
);
}
);
width = 198;
}
);
unicode = 101;
},
{
glyphname = f;
lastChange = "2022-10-02 09:30:18 +0000";
layers = (
{
anchors = (
{
name = bottom;
pos = (100,0);
},
{
name = top;
pos = (100,900);
}
);
layerId = m01;
shapes = (
{
closed = 1;
nodes = (
(128,349,o),
(136,350,o),
(144,351,c),
(161,353,o),
(178,354,o),
(194,350,c),
(204,347,o),
(212,342,o),
(219,333,c),
(226,324,o),
(228,313,o),
(221,302,c),
(215,292,o),
(205,286,o),
(194,289,c),
(164,296,o),
(136,290,o),
(107,286,c),
(93,284,o),
(85,278,o),
(80,264,c),
(62,217,o),
(44,170,o),
(30,121,c),
(29,117,o),
(28,113,o),
(26,110,c),
(19,96,o),
(6,89,o),
(-9,93,c),
(-23,97,o),
(-32,111,o),
(-29,126,c),
(-28,135,o),
(-25,145,o),
(-22,154,c),
(1,229,o),
(30,301,o),
(62,373,c),
(76,405,o),
(91,437,o),
(109,467,c),
(120,486,o),
(132,504,o),
(148,520,c),
(157,529,o),
(166,536,o),
(177,541,c),
(201,552,o),
(225,539,o),
(229,513,c),
(230,504,o),
(231,495,o),
(229,486,c),
(225,468,o),
(209,458,o),
(192,464,c),
(182,468,o),
(178,465,o),
(173,458,c),
(151,425,o),
(135,388,o),
(117,349,c)
);
}
);
width = 230;
}
);
unicode = 102;
},
{
glyphname = g;
kernLeft = g;
kernRight = g;
lastChange = "2022-10-02 03:27:23 +0000";
layers = (
{
anchors = (
{
name = bottom;
pos = (-10,27);
},
{
name = top;
pos = (155,398);
}
);
layerId = m01;
shapes = (
{
closed = 1;
nodes = (
(73,224,o),
(78,230,o),
(83,235,c),
(106,261,o),
(123,290,o),
(138,320,c),
(141,326,o),
(147,334,o),
(142,338,c),
(136,344,o),
(129,337,o),
(124,333,c),
(91,307,o),
(70,274,o),
(65,232,c),
(64,228,o),
(63,224,o),
(66,218,c)
);
},
{
closed = 1;
nodes = (
(228,357,o),
(228,356,o),
(228,355,c),
(225,339,o),
(220,305,o),
(216,292,c),
(207,257,o),
(196,224,o),
(181,191,c),
(158,139,o),
(125,95,o),
(83,57,c),
(70,45,o),
(56,35,o),
(40,27,c),
(34,25,o),
(29,23,o),
(23,21,c),
(-16,9,o),
(-54,36,o),
(-55,77,c),
(-56,88,o),
(-50,99,o),
(-39,103,c),
(-28,108,o),
(-19,106,o),
(-10,98,c),
(-6,95,o),
(-3,91,o),
(0,87,c),
(7,77,o),
(7,77,o),
(18,83,c),
(24,87,o),
(31,91,o),
(36,95,c),
(63,118,o),
(86,143,o),
(104,172,c),
(97,166,o),
(89,160,o),
(80,156,c),
(54,145,o),
(27,155,o),
(14,180,c),
(7,192,o),
(4,206,o),
(5,219,c),
(7,290,o),
(39,345,o),
(96,386,c),
(120,402,o),
(146,407,o),
(173,392,c),
(176,390,o),
(179,389,o),
(183,391,c),
(207,403,o),
(228,380,o),
(228,358,c)
);
}
);
width = 233;
}
);
unicode = 103;
},
{
glyphname = h;
kernLeft = h;
kernRight = h;
lastChange = "2022-10-02 09:30:23 +0000";
layers = (
{
anchors = (
{
name = bottom;
pos = (122,0);
},
{
name = center;
pos = (122,450);
},
{
name = top;
pos = (217,615);
}
);
layerId = m01;
shapes = (
{
closed = 1;
nodes = (
(143,376,o),
(151,382,o),
(159,388,c),
(166,392,o),
(173,397,o),
(181,401,c),
(213,415,o),
(242,397,o),
(244,362,c),
(244,350,o),
(242,338,o),
(238,327,c),
(231,303,o),
(220,280,o),
(209,257,c),
(207,251,o),
(203,245,o),
(202,238,c),
(205,234,o),
(209,236,o),
(213,236,c),
(231,233,o),
(242,217,o),
(235,199,c),
(226,174,o),
(191,155,o),
(165,161,c),
(143,166,o),
(129,187,o),
(131,211,c),
(131,220,o),
(134,230,o),
(137,239,c),
(145,260,o),
(154,279,o),
(163,300,c),
(166,305,o),
(169,311,o),
(172,319,c),
(167,318,o),
(165,316,o),
(162,314,c),
(133,287,o),
(105,259,o),
(82,227,c),
(79,223,o),
(75,219,o),
(74,215,c),
(74,199,o),
(63,188,o),
(57,174,c),
(52,161,o),
(40,154,o),
(28,155,c),
(15,157,o),
(5,166,o),
(2,179,c),
(-1,193,o),
(0,206,o),
(5,219,c),
(24,275,o),
(47,328,o),
(71,381,c),
(101,446,o),
(134,510,o),
(169,573,c),
(172,579,o),
(176,585,o),
(182,589,c),
(201,600,o),
(225,587,o),
(226,565,c),
(227,557,o),
(224,549,o),
(220,542,c),
(211,524,o),
(201,506,o),
(191,488,c),
(170,451,o),
(152,413,o),
(134,375,c),
(134,373,o),
(134,372,o),
(133,368,c)
);
}
);
width = 244;
}
);
unicode = 104;
},
{
glyphname = hbar;
kernLeft = h;
kernRight = h;
lastChange = "2022-09-30 00:50:17 +0000";
layers = (
{
layerId = m01;
shapes = (
{
closed = 1;
nodes = (
(139,365,l),
(145,371,o),
(151,377,o),
(158,382,c),
(166,390,o),
(174,398,o),
(185,404,c),
(210,417,o),
(236,406,o),
(245,379,c),
(248,367,o),
(248,355,o),
(246,343,c),
(243,323,o),
(236,304,o),
(228,286,c),
(215,256,o),
(202,227,o),
(189,198,c),
(187,192,o),
(184,187,o),
(185,180,c),
(185,163,o),
(170,150,o),
(155,151,c),
(138,152,o),
(124,168,o),
(124,185,c),
(123,192,o),
(126,199,o),
(129,206,c),
(140,236,o),
(154,264,o),
(167,293,c),
(169,298,o),
(172,303,o),
(172,310,c),
(166,307,o),
(163,302,o),
(160,298,c),
(122,255,o),
(88,208,o),
(53,163,c),
(48,156,o),
(43,150,o),
(36,146,c),
(24,139,o),
(12,139,o),
(2,146,c),
(-8,154,o),
(-12,164,o),
(-9,177,c),
(-7,186,o),
(-4,195,o),
(0,204,c),
(22,264,o),
(51,321,o),
(77,379,c),
(87,401,o),
(98,422,o),
(108,445,c),
(101,447,o),
(96,444,o),
(91,443,c),
(76,439,o),
(62,445,o),
(56,459,c),
(50,472,o),
(55,488,o),
(69,496,c),
(75,500,o),
(82,503,o),
(90,504,c),
(103,506,o),
(115,509,o),
(128,510,c),
(137,510,o),
(142,514,o),
(145,522,c),
(150,533,o),
(156,544,o),
(162,556,c),
(165,561,o),
(169,567,o),
(174,571,c),
(185,581,o),
(200,582,o),
(211,573,c),
(223,564,o),
(226,549,o),
(219,535,c),
(217,530,o),
(212,526,o),
(212,518,c),
(216,515,o),
(221,517,o),
(226,517,c),
(241,517,o),
(256,517,o),
(271,513,c),
(284,510,o),
(293,502,o),
(298,489,c),
(302,478,o),
(300,468,o),
(292,460,c),
(284,451,o),
(274,447,o),
(263,452,c),
(245,459,o),
(226,458,o),
(207,457,c),
(198,456,o),
(188,458,o),
(180,454,c),
(172,450,o),
(171,438,o),
(167,429,c),
(157,409,o),
(147,388,o),
(137,367,c)
);
}
);
width = 250;
}
);
unicode = 295;
},
{
glyphname = i;
kernLeft = i;
kernRight = i;
lastChange = "2022-10-02 09:30:26 +0000";
layers = (
{
anchors = (
{
name = bottom;
pos = (97,0);
}
);
layerId = m01;
shapes = (
{
closed = 1;
nodes = (
(2,215,o),
(8,235,o),
(14,255,c),
(27,293,o),
(45,329,o),
(65,365,c),
(71,375,o),
(77,385,o),
(83,395,c),
(92,409,o),
(106,414,o),
(120,409,c),
(134,403,o),
(141,390,o),
(138,373,c),
(136,364,o),
(133,355,o),
(126,348,c),
(124,346,o),
(122,343,o),
(120,341,c),
(97,301,o),
(76,261,o),
(65,216,c),
(63,208,o),
(62,201,o),
(64,193,c),
(69,178,o),
(61,165,o),
(47,159,c),
(31,152,o),
(16,156,o),
(7,169,c),
(3,176,o),
(0,185,o),
(0,197,c)
);
},
{
closed = 1;
nodes = (
(156,431,o),
(152,431,o),
(147,432,c),
(128,437,o),
(118,454,o),
(124,471,c),
(129,485,o),
(149,498,o),
(166,490,c),
(168,489,o),
(171,488,o),
(174,487,c),
(188,480,o),
(195,467,o),
(192,454,c),
(188,439,o),
(176,430,o),
(158,430,c)
);
}
);
width = 123;
}
);
unicode = 105;
},
{
glyphname = idotless;
kernLeft = i;
kernRight = i;
lastChange = "2022-09-28 17:49:56 +0000";
layers = (
{
anchors = (
{
name = bottom;
pos = (97,0);
},
{
name = ogonek;
pos = (32,176);
},
{
name = top;
pos = (133,420);
}
);
layerId = m01;
shapes = (
{
closed = 1;
nodes = (
(2,215,o),
(8,235,o),
(14,255,c),
(27,293,o),
(45,329,o),
(65,365,c),
(71,375,o),
(77,385,o),
(83,395,c),
(92,409,o),
(106,414,o),
(120,409,c),
(134,403,o),
(141,390,o),
(138,373,c),
(136,364,o),
(133,355,o),
(126,348,c),
(124,346,o),
(122,343,o),
(120,341,c),
(97,301,o),
(76,261,o),
(65,216,c),
(63,208,o),
(62,201,o),
(64,193,c),
(69,178,o),
(61,165,o),
(47,159,c),
(31,152,o),
(16,156,o),
(7,169,c),
(3,176,o),
(0,185,o),
(0,197,c)
);
}
);
width = 123;
}
);
unicode = 305;
},
{
glyphname = j;
kernLeft = j;
kernRight = j;
lastChange = "2022-10-02 09:30:29 +0000";
layers = (
{
layerId = m01;
shapes = (
{
closed = 1;
nodes = (
(-88,39,o),
(-111,56,o),
(-119,81,c),
(-123,96,o),
(-118,109,o),
(-107,115,c),
(-95,122,o),
(-82,120,o),
(-71,109,c),
(-59,98,o),
(-56,97,o),
(-43,108,c),
(-33,116,o),
(-26,125,o),
(-20,136,c),
(5,177,o),
(55,337,o),
(58,360,c),
(59,369,o),
(61,377,o),
(66,384,c),
(73,395,o),
(83,400,o),
(96,398,c),
(108,396,o),
(116,388,o),
(120,376,c),
(122,369,o),
(123,361,o),
(120,354,c),
(111,325,o),
(59,154,o),
(36,114,c),
(26,95,o),
(14,78,o),
(-2,64,c),
(-19,50,o),
(-38,40,o),
(-55,40,c)
);
},
{
closed = 1;
nodes = (
(146,434,o),
(133,422,o),
(116,422,c),
(99,422,o),
(86,436,o),
(86,455,c),
(86,472,o),
(99,486,o),
(116,486,c),
(133,485,o),
(145,471,o),
(145,452,c)
);
}
);
width = 115;
}
);
unicode = 106;
},
{
glyphname = jdotless;
kernLeft = j;
kernRight = j;
lastChange = "2022-09-30 02:10:32 +0000";
layers = (
{
anchors = (
{
name = bottom;
pos = (133,-300);
},
{
name = top;
pos = (104,401);
}
);
layerId = m01;
shapes = (
{
closed = 1;
nodes = (
(-88,39,o),
(-111,56,o),
(-119,81,c),
(-123,96,o),
(-118,109,o),
(-107,115,c),
(-95,122,o),
(-82,120,o),
(-71,109,c),
(-59,98,o),
(-56,97,o),
(-43,108,c),
(-33,116,o),
(-26,125,o),
(-20,136,c),
(5,177,o),
(55,337,o),
(58,360,c),
(59,369,o),
(61,377,o),
(66,384,c),
(73,395,o),
(83,400,o),
(96,398,c),
(108,396,o),
(116,388,o),
(120,376,c),
(122,369,o),
(123,361,o),
(120,354,c),
(111,325,o),
(59,154,o),
(36,114,c),
(26,95,o),
(14,78,o),
(-2,64,c),
(-19,50,o),
(-38,40,o),
(-55,40,c)
);
}
);
width = 115;
}
);
unicode = 567;
},
{
glyphname = k;
kernLeft = k;
kernRight = k;
lastChange = "2022-10-02 09:30:32 +0000";
layers = (
{
anchors = (
{
name = bottom;
pos = (99,154);
},
{
name = top;
pos = (236,624);
}
);
layerId = m01;
shapes = (
{
closed = 1;
nodes = (
(138,358,o),
(148,367,o),
(158,376,c),
(163,381,o),
(168,386,o),
(175,390,c),
(190,398,o),
(206,395,o),
(215,382,c),
(224,369,o),
(222,353,o),
(209,341,c),
(180,314,o),
(148,291,o),
(113,271,c),
(101,264,o),
(101,264,o),
(103,250,c),
(105,243,o),
(106,236,o),
(109,229,c),
(112,220,o),
(117,218,o),
(126,221,c),
(138,225,o),
(149,231,o),
(157,242,c),
(164,252,o),
(173,256,o),
(185,255,c),
(206,251,o),
(216,229,o),
(206,208,c),
(204,204,o),
(201,200,o),
(197,196,c),
(180,181,o),
(161,169,o),
(139,163,c),
(113,156,o),
(89,160,o),
(70,180,c),
(68,182,o),
(67,183,o),
(65,185,c),
(59,178,o),
(60,171,o),
(60,164,c),
(60,144,o),
(48,132,o),
(33,131,c),
(17,130,o),
(3,144,o),
(0,163,c),
(-1,170,o),
(0,177,o),
(2,184,c),
(7,211,o),
(16,237,o),
(25,263,c),
(27,269,o),
(29,275,o),
(28,282,c),
(28,289,o),
(30,295,o),
(35,300,c),
(41,308,o),
(45,316,o),
(48,325,c),
(82,413,o),
(126,496,o),
(171,578,c),
(177,589,o),
(185,596,o),
(196,599,c),
(208,603,o),
(220,599,o),
(228,589,c),
(235,579,o),
(237,565,o),
(229,555,c),
(216,540,o),
(209,523,o),
(200,506,c),
(175,460,o),
(151,414,o),
(130,367,c),
(128,362,o),
(126,357,o),
(124,352,c)
);
}
);
width = 234;
}
);
unicode = 107;
},
{
glyphname = l;
kernLeft = l;
kernRight = l;
lastChange = "2022-10-02 09:30:34 +0000";
layers = (
{
anchors = (
{
name = bottom;
pos = (37,126);
},
{
name = center;
pos = (105,450);
},
{
name = top;
pos = (173,613);
},
{
name = topright;
pos = (235,537);
}
);
layerId = m01;
shapes = (
{
closed = 1;
nodes = (
(70,241,o),
(75,245,o),
(80,248,c),
(90,253,o),
(100,252,o),
(108,245,c),
(117,238,o),
(121,229,o),
(118,218,c),
(108,190,o),
(90,168,o),
(61,158,c),
(34,149,o),
(9,165,o),
(2,193,c),
(-2,209,o),
(0,225,o),
(3,241,c),
(9,271,o),
(18,300,o),
(28,329,c),
(52,393,o),
(81,455,o),
(114,515,c),
(124,534,o),
(135,551,o),
(149,567,c),
(161,580,o),
(177,583,o),
(192,577,c),
(211,568,o),
(216,542,o),
(199,529,c),
(183,517,o),
(173,500,o),
(164,483,c),
(136,433,o),
(113,381,o),
(91,327,c),
(82,303,o),
(73,278,o),
(67,253,c),
(65,248,o),
(65,244,o),
(63,236,c)
);
}
);
width = 149;
}
);
unicode = 108;
},
{
glyphname = lslash;
kernLeft = l;
kernRight = l;
lastChange = "2022-09-30 00:50:34 +0000";
layers = (
{
layerId = m01;
shapes = (
{
closed = 1;
nodes = (
(237,568,o),
(243,542,o),
(226,529,c),
(210,517,o),
(200,500,o),
(191,483,c),
(182,467,o),
(174,451,o),
(166,435,c),
(168,436,o),
(169,436,o),
(169,436,c),
(181,440,o),
(191,439,o),
(200,430,c),
(214,416,o),
(207,392,o),
(186,385,c),
(170,381,o),
(155,374,o),
(140,368,c),
(139,368,o),
(137,366,o),
(134,365,c),
(128,352,o),
(123,340,o),
(118,327,c),
(109,303,o),
(100,278,o),
(94,253,c),
(92,248,o),
(91,244,o),
(90,236,c),
(97,241,o),
(102,245,o),
(107,248,c),
(117,253,o),
(127,252,o),
(135,245,c),
(144,238,o),
(148,229,o),
(145,218,c),
(135,190,o),
(117,168,o),
(88,158,c),
(61,149,o),
(36,165,o),
(29,193,c),
(25,209,o),
(27,225,o),
(30,241,c),
(35,267,o),
(42,292,o),
(51,316,c),
(44,308,o),
(34,306,o),
(24,307,c),
(8,308,o),
(-2,322,o),
(1,338,c),
(3,348,o),
(9,356,o),
(17,362,c),
(36,374,o),
(55,386,o),
(75,396,c),
(76,396,o),
(79,398,o),
(84,400,c),
(101,439,o),
(120,477,o),
(141,515,c),
(151,534,o),
(162,551,o),
(176,567,c),
(188,580,o),
(204,583,o),
(219,577,c)
);
}
);
width = 166;
}
);
unicode = 322;
},
{
glyphname = m;
kernLeft = m;
kernRight = m;
lastChange = "2022-10-02 09:30:37 +0000";
layers = (
{
anchors = (
{
name = bottom;
pos = (159,168);
},
{
name = top;
pos = (252,421);
}
);
layerId = m01;
shapes = (
{
closed = 1;
nodes = (
(140,370,o),
(150,381,o),
(161,391,c),
(167,397,o),
(173,403,o),
(180,407,c),
(198,420,o),
(224,410,o),
(235,387,c),
(240,378,o),
(242,368,o),
(243,358,c),
(249,356,o),
(250,360,o),
(253,362,c),
(267,374,o),
(281,384,o),
(298,392,c),
(303,395,o),
(310,398,o),
(316,400,c),
(346,407,o),
(376,384,o),
(379,352,c),
(380,341,o),
(379,331,o),
(376,322,c),
(372,308,o),
(367,295,o),
(361,282,c),
(346,248,o),
(331,214,o),
(319,178,c),
(313,160,o),
(301,154,o),
(284,159,c),
(268,164,o),
(257,180,o),
(259,195,c),
(260,200,o),
(262,205,o),
(263,210,c),
(274,242,o),
(287,272,o),
(300,303,c),
(303,308,o),
(305,313,o),
(307,318,c),
(302,321,o),
(300,317,o),
(298,316,c),
(262,285,o),
(232,249,o),
(207,209,c),
(201,200,o),
(198,189,o),
(194,179,c),
(191,171,o),
(186,164,o),
(176,162,c),
(153,158,o),
(132,180,o),
(134,204,c),
(135,211,o),
(138,217,o),
(141,224,c),
(152,247,o),
(160,272,o),
(168,296,c),
(169,298,o),
(170,300,o),
(168,303,c),
(165,303,o),
(163,300,o),
(162,298,c),
(133,266,o),
(105,234,o),
(79,200,c),
(68,186,o),
(58,172,o),
(50,156,c),
(48,152,o),
(46,147,o),
(43,144,c),
(35,135,o),
(22,133,o),
(9,140,c),
(-3,146,o),
(-10,157,o),
(-10,170,c),
(-11,180,o),
(-7,188,o),
(-2,196,c),
(12,222,o),
(25,249,o),
(38,277,c),
(47,295,o),
(55,314,o),
(61,334,c),
(63,341,o),
(63,347,o),
(58,355,c),
(46,375,o),
(51,395,o),
(70,402,c),
(87,409,o),
(109,399,o),
(119,379,c),
(122,372,o),
(124,366,o),
(128,357,c)
);
}
);
width = 389;
}
);
unicode = 109;
},
{
glyphname = n;
kernLeft = n;
kernRight = n;
lastChange = "2022-10-02 09:30:40 +0000";
layers = (
{
anchors = (
{
name = bottom;
pos = (109,172);
},
{
name = top;
pos = (205,399);
}
);
layerId = m01;
shapes = (
{
closed = 1;
nodes = (
(176,304,o),
(168,296,o),
(161,287,c),
(134,252,o),
(108,217,o),
(78,185,c),
(72,179,o),
(65,173,o),
(59,167,c),
(55,163,o),
(50,160,o),
(44,158,c),
(33,154,o),
(21,154,o),
(10,163,c),
(-1,172,o),
(-6,183,o),
(-5,196,c),
(-4,205,o),
(-1,213,o),
(2,222,c),
(13,249,o),
(28,274,o),
(43,300,c),
(55,320,o),
(67,340,o),
(77,362,c),
(79,367,o),
(82,372,o),
(81,378,c),
(81,396,o),
(89,406,o),
(104,406,c),
(119,407,o),
(135,396,o),
(142,380,c),
(144,377,o),
(144,374,o),
(145,371,c),
(151,370,o),
(152,374,o),
(155,376,c),
(163,382,o),
(170,388,o),
(180,391,c),
(205,399,o),
(233,386,o),
(245,360,c),
(252,345,o),
(252,331,o),
(251,317,c),
(248,296,o),
(241,276,o),
(235,256,c),
(231,245,o),
(227,233,o),
(223,222,c),
(221,218,o),
(221,214,o),
(225,209,c),
(238,194,o),
(240,184,o),
(233,172,c),
(226,160,o),
(211,154,o),
(196,158,c),
(178,162,o),
(164,175,o),
(160,193,c),
(156,207,o),
(157,220,o),
(160,232,c),
(165,253,o),
(174,273,o),
(180,293,c),
(182,299,o),
(184,305,o),
(186,311,c),
(185,312,o),
(184,312,o),
(183,313,c)
);
}
);
width = 266;
}
);
unicode = 110;
},
{
glyphname = eng;
kernLeft = n;
kernRight = j;
lastChange = "2022-09-30 00:51:04 +0000";
layers = (
{
layerId = m01;
shapes = (
{
closed = 1;
nodes = (
(147,365,o),
(150,369,o),
(154,371,c),
(168,382,o),
(183,392,o),
(200,399,c),
(244,416,o),
(283,393,o),
(295,343,c),
(299,324,o),
(298,305,o),
(295,287,c),
(292,263,o),
(286,241,o),
(277,219,c),
(255,160,o),
(222,108,o),
(179,64,c),
(165,49,o),
(148,37,o),
(130,27,c),
(116,21,o),
(102,17,o),
(85,21,c),
(57,28,o),
(37,54,o),
(36,84,c),
(36,103,o),
(42,120,o),
(53,135,c),
(62,146,o),
(75,148,o),
(87,141,c),
(100,134,o),
(106,121,o),
(104,107,c),
(102,100,o),
(100,93,o),
(98,85,c),
(104,85,o),
(106,87,o),
(109,89,c),
(115,94,o),
(121,98,o),
(127,103,c),
(177,153,o),
(214,213,o),
(232,284,c),
(236,300,o),
(238,316,o),
(237,332,c),
(236,343,o),
(233,345,o),
(224,340,c),
(212,334,o),
(200,327,o),
(190,318,c),
(137,276,o),
(88,230,o),
(48,175,c),
(45,171,o),
(42,168,o),
(39,165,c),
(30,159,o),
(16,160,o),
(6,167,c),
(-5,174,o),
(-11,185,o),
(-10,197,c),
(-9,204,o),
(-6,210,o),
(-3,216,c),
(16,252,o),
(35,288,o),
(54,324,c),
(65,347,o),
(76,369,o),
(83,395,c),
(84,398,o),
(86,401,o),
(87,403,c),
(94,414,o),
(106,417,o),
(118,413,c),
(131,408,o),
(140,397,o),
(143,384,c),
(144,377,o),
(141,372,o),
(142,364,c)
);
}
);
width = 318;
}
);
unicode = 331;
},
{
glyphname = o;
kernLeft = o;
kernRight = o;
lastChange = "2022-10-02 09:30:43 +0000";
layers = (
{
anchors = (
{
name = bottom;
pos = (116,0);
},
{
name = center;
pos = (116,250);
},
{
name = ogonek;
pos = (60,173);
},
{
name = top;
pos = (169,424);
},
{
name = topright;
pos = (211,500);
}
);
layerId = m01;
shapes = (
{
closed = 1;
nodes = (
(66,216,o),
(69,219,o),
(72,221,c),
(117,250,o),
(151,288,o),
(169,340,c),
(170,345,o),
(174,351,o),
(170,356,c),
(165,361,o),
(160,354,o),
(156,355,c),
(154,356,o),
(152,355,o),
(150,355,c),
(144,357,o),
(139,354,o),
(135,350,c),
(102,316,o),
(76,278,o),
(62,232,c),
(61,228,o),
(59,223,o),
(61,218,c)
);
},
{
closed = 1;
nodes = (
(26,155,o),
(3,176,o),
(0,206,c),
(-1,220,o),
(0,235,o),
(5,249,c),
(22,306,o),
(54,355,o),
(97,396,c),
(106,404,o),
(116,411,o),
(127,416,c),
(147,424,o),
(163,420,o),
(177,403,c),
(179,400,o),
(181,399,o),
(185,399,c),
(209,402,o),
(225,389,o),
(230,366,c),
(232,353,o),
(231,342,o),
(228,330,c),
(222,307,o),
(212,286,o),
(200,267,c),
(176,229,o),
(146,198,o),
(109,174,c),
(93,163,o),
(76,155,o),
(56,155,c)
);
}
);
width = 231;
}
);
unicode = 111;
},
{
glyphname = oslash;
kernLeft = o;
kernRight = o;
lastChange = "2022-09-30 02:04:20 +0000";
layers = (
{
layerId = m01;
shapes = (
{
closed = 1;
nodes = (
(108,242,o),
(135,269,o),
(154,302,c),
(124,277,o),
(90,248,o),
(63,225,c),
(63,222,o),
(63,220,o),
(64,218,c),
(68,216,o),
(72,219,o),
(75,221,c)
);
},
{
closed = 1;
nodes = (
(120,332,o),
(105,313,o),
(92,292,c),
(118,314,o),
(147,337,o),
(172,357,c),
(167,360,o),
(163,355,o),
(159,355,c),
(157,356,o),
(155,355,o),
(153,355,c),
(147,357,o),
(142,354,o),
(138,350,c)
);
},
{
closed = 1;
nodes = (
(259,398,o),
(259,383,o),
(247,376,c),
(242,373,o),
(238,369,o),
(233,366,c),
(233,366,o),
(233,366,o),
(233,366,c),
(235,353,o),
(234,342,o),
(231,330,c),
(225,307,o),
(215,286,o),
(203,267,c),
(179,229,o),
(149,198,o),
(112,174,c),
(96,163,o),
(79,155,o),
(59,155,c),
(39,155,o),
(23,164,o),
(13,179,c),
(10,174,o),
(5,171,o),
(-1,171,c),
(-11,169,o),
(-19,176,o),
(-20,186,c),
(-20,192,o),
(-18,197,o),
(-13,202,c),
(-8,208,o),
(-3,213,o),
(3,219,c),
(3,229,o),
(5,239,o),
(8,249,c),
(25,306,o),
(57,355,o),
(100,396,c),
(109,404,o),
(119,411,o),
(130,416,c),
(150,424,o),
(166,420,o),
(179,403,c),
(182,400,o),
(184,399,o),
(188,399,c),
(199,400,o),
(209,398,o),
(216,393,c),
(224,399,o),
(229,403,o),
(230,403,c),
(236,407,o),
(242,408,o),
(249,404,c)
);
}
);
width = 246;
}
);
unicode = 248;
},
{
glyphname = oe;
kernLeft = o;
kernRight = e;
lastChange = "2022-09-30 02:04:34 +0000";
layers = (
{
layerId = m01;
shapes = (
{
closed = 1;
nodes = (
(296,361,o),
(295,362,o),
(295,361,c),
(267,354,o),
(246,335,o),
(230,312,c),
(229,311,o),
(228,309,o),
(230,307,c),
(232,305,o),
(234,306,o),
(236,307,c),
(257,315,o),
(276,326,o),
(290,344,c),
(294,348,o),
(297,353,o),
(298,360,c)
);
},
{
closed = 1;
nodes = (
(64,212,o),
(69,216,o),
(73,219,c),
(115,248,o),
(144,286,o),
(159,335,c),
(161,343,o),
(163,351,o),
(161,360,c),
(160,363,o),
(160,366,o),
(156,366,c),
(153,366,o),
(151,364,o),
(150,361,c),
(148,355,o),
(147,350,o),
(145,344,c),
(140,331,o),
(132,321,o),
(115,321,c),
(111,322,o),
(108,319,o),
(106,316,c),
(86,291,o),
(68,265,o),
(59,233,c),
(57,227,o),
(55,220,o),
(57,212,c)
);
},
{
closed = 1;
nodes = (
(228,389,o),
(240,399,o),
(254,406,c),
(270,413,o),
(287,419,o),
(305,418,c),
(335,417,o),
(355,396,o),
(356,367,c),
(356,352,o),
(352,339,o),
(345,326,c),
(334,306,o),
(318,290,o),
(299,277,c),
(274,260,o),
(246,248,o),
(215,245,c),
(209,245,o),
(206,243,o),
(206,237,c),
(206,229,o),
(209,224,o),
(215,223,c),
(220,223,o),
(224,225,o),
(229,227,c),
(234,229,o),
(238,232,o),
(244,235,c),
(257,241,o),
(269,238,o),
(277,229,c),
(284,219,o),
(284,206,o),
(276,195,c),
(248,160,o),
(182,153,o),
(156,205,c),
(155,207,o),
(154,209,o),
(153,212,c),
(148,211,o),
(145,206,o),
(141,203,c),
(126,188,o),
(109,174,o),
(90,164,c),
(78,159,o),
(66,155,o),
(53,155,c),
(28,154,o),
(8,170,o),
(2,194,c),
(-2,210,o),
(0,225,o),
(4,241,c),
(9,264,o),
(19,285,o),
(30,305,c),
(46,332,o),
(64,355,o),
(85,377,c),
(95,387,o),
(105,396,o),
(120,396,c),
(124,396,o),
(125,399,o),
(127,402,c),
(144,429,o),
(177,432,o),
(199,407,c),
(206,399,o),
(209,389,o),
(215,380,c)
);
}
);
width = 351;
}
);
unicode = 339;
},
{
glyphname = p;
kernLeft = p;
kernRight = p;
lastChange = "2022-10-02 09:30:50 +0000";
layers = (
{
anchors = (
{
name = bottom;
pos = (63,0);
},
{
name = top;
pos = (237,433);
}
);
layerId = m01;
shapes = (
{
closed = 1;
nodes = (
(118,241,o),
(119,240,o),
(120,239,c),
(133,233,o),
(133,233,o),
(143,242,c),
(167,264,o),
(186,290,o),
(199,320,c),
(200,324,o),
(203,327,o),
(200,332,c),
(169,305,o),
(141,275,o),
(114,243,c)
);
},
{
closed = 1;
nodes = (
(57,169,o),
(39,141,o),
(26,109,c),
(23,102,o),
(21,95,o),
(18,89,c),
(10,73,o),
(-4,67,o),
(-19,73,c),
(-34,79,o),
(-42,93,o),
(-39,110,c),
(-37,120,o),
(-33,129,o),
(-29,138,c),
(-4,196,o),
(26,251,o),
(53,308,c),
(61,323,o),
(68,339,o),
(75,355,c),
(78,362,o),
(81,370,o),
(82,379,c),
(82,383,o),
(83,386,o),
(85,390,c),
(90,402,o),
(102,409,o),
(114,407,c),
(128,406,o),
(139,395,o),
(141,381,c),
(142,377,o),
(142,371,o),
(142,367,c),
(147,364,o),
(149,368,o),
(151,370,c),
(163,381,o),
(175,391,o),
(188,400,c),
(195,405,o),
(203,409,o),
(211,412,c),
(233,420,o),
(255,410,o),
(264,387,c),
(270,374,o),
(270,360,o),
(269,347,c),
(267,336,o),
(265,324,o),
(261,314,c),
(244,264,o),
(214,222,o),
(174,188,c),
(166,181,o),
(156,175,o),
(146,170,c),
(124,157,o),
(93,158,o),
(78,198,c)
);
}
);
width = 279;
}
);
unicode = 112;
},
{
glyphname = thorn;
kernLeft = p;
kernRight = p;
lastChange = "2022-09-30 02:04:44 +0000";
layers = (
{
layerId = m01;
shapes = (
{
closed = 1;
nodes = (
(194,344,o),
(191,341,o),
(187,339,c),
(156,318,o),
(129,293,o),
(104,266,c),
(95,256,o),
(90,244,o),
(87,231,c),
(86,227,o),
(88,225,o),
(92,224,c),
(99,223,o),
(106,226,o),
(112,229,c),
(155,254,o),
(183,290,o),
(198,337,c),
(199,339,o),
(199,342,o),
(198,344,c)
);
},
{
closed = 1;
nodes = (
(37,157,o),
(29,136,o),
(21,114,c),
(20,110,o),
(20,106,o),
(20,102,c),
(19,86,o),
(9,76,o),
(-5,75,c),
(-20,73,o),
(-35,82,o),
(-39,96,c),
(-42,107,o),
(-40,117,o),
(-37,127,c),
(-28,156,o),
(-16,184,o),
(-4,211,c),
(26,281,o),
(62,349,o),
(96,417,c),
(104,432,o),
(113,448,o),
(117,465,c),
(119,471,o),
(123,476,o),
(128,481,c),
(138,490,o),
(151,491,o),
(162,486,c),
(172,480,o),
(179,468,o),
(178,456,c),
(177,448,o),
(174,441,o),
(171,434,c),
(163,419,o),
(156,404,o),
(148,388,c),
(153,386,o),
(155,389,o),
(158,390,c),
(170,398,o),
(182,405,o),
(195,409,c),
(227,420,o),
(254,404,o),
(260,371,c),
(263,357,o),
(261,343,o),
(257,329,c),
(241,268,o),
(206,219,o),
(152,184,c),
(112,159,o),
(89,158,o),
(47,179,c)
);
}
);
width = 261;
}
);
unicode = 254;
},
{
glyphname = q;
lastChange = "2022-10-02 09:30:49 +0000";
layers = (
{
anchors = (
{
name = bottom;
pos = (135,0);
},
{
name = top;
pos = (135,500);
}
);
layerId = m01;
shapes = (
{
closed = 1;
nodes = (
(72,232,o),
(81,239,o),
(90,246,c),
(118,270,o),
(141,298,o),
(164,327,c),
(165,329,o),
(167,332,o),
(168,335,c),
(169,341,o),
(176,348,o),
(170,353,c),
(164,358,o),
(157,352,o),
(152,349,c),
(116,328,o),
(88,300,o),
(70,262,c),
(64,251,o),
(60,240,o),
(60,225,c)
);
},
{
closed = 1;
nodes = (
(105,183,o),
(96,177,o),
(88,173,c),
(81,169,o),
(74,167,o),
(67,165,c),
(34,157,o),
(6,176,o),
(1,209,c),
(-2,226,o),
(0,243,o),
(5,260,c),
(20,309,o),
(51,346,o),
(89,378,c),
(103,390,o),
(118,399,o),
(134,407,c),
(170,423,o),
(201,413,o),
(219,389,c),
(222,385,o),
(225,383,o),
(230,384,c),
(243,388,o),
(254,384,o),
(262,373,c),
(271,362,o),
(270,349,o),
(264,336,c),
(263,334,o),
(262,333,o),
(261,331,c),
(229,293,o),
(209,249,o),
(188,205,c),
(172,169,o),
(158,132,o),
(148,93,c),
(146,87,o),
(144,82,o),
(145,75,c),
(148,60,o),
(137,47,o),
(123,44,c),
(108,41,o),
(92,51,o),
(87,67,c),
(84,76,o),
(84,84,o),
(86,93,c),
(92,120,o),
(101,147,o),
(111,173,c),
(112,177,o),
(115,181,o),
(115,189,c)
);
}
);
width = 269;
}
);
unicode = 113;
},
{
glyphname = r;
kernLeft = r;
kernRight = r;
lastChange = "2022-10-02 09:30:55 +0000";
layers = (
{
anchors = (
{
name = bottom;
pos = (106,171);
},
{
name = top;
pos = (191,410);
}
);
layerId = m01;
shapes = (
{
closed = 1;
nodes = (
(160,310,o),
(148,299,o),
(137,287,c),
(106,255,o),
(81,219,o),
(60,180,c),
(57,176,o),
(55,171,o),
(52,168,c),
(43,158,o),
(31,155,o),
(19,159,c),
(7,164,o),
(0,175,o),
(0,187,c),
(1,196,o),
(4,203,o),
(7,210,c),
(24,242,o),
(39,275,o),
(54,308,c),
(58,319,o),
(64,330,o),
(65,342,c),
(65,349,o),
(69,356,o),
(73,361,c),
(85,379,o),
(106,382,o),
(121,366,c),
(126,360,o),
(129,360,o),
(135,365,c),
(148,376,o),
(162,386,o),
(178,392,c),
(185,395,o),
(192,398,o),
(199,398,c),
(217,399,o),
(231,392,o),
(238,376,c),
(244,363,o),
(246,351,o),
(243,337,c),
(240,320,o),
(234,302,o),
(227,286,c),
(224,279,o),
(219,273,o),
(213,269,c),
(202,261,o),
(189,261,o),
(179,268,c),
(169,275,o),
(165,287,o),
(169,299,c),
(170,305,o),
(173,311,o),
(175,317,c)
);
}
);
width = 244;
}
);
unicode = 114;
},
{
glyphname = s;
kernLeft = s;
kernRight = s;
lastChange = "2022-10-02 09:30:58 +0000";
layers = (
{
anchors = (
{
name = bottom;
pos = (37,164);
},
{
name = top;
pos = (119,431);
}
);
layerId = m01;
shapes = (
{
closed = 1;
nodes = (
(65,245,o),
(58,249,o),
(51,254,c),
(42,259,o),
(33,265,o),
(26,274,c),
(13,290,o),
(10,309,o),
(18,329,c),
(22,338,o),
(27,346,o),
(34,354,c),
(55,377,o),
(79,395,o),
(107,408,c),
(121,415,o),
(135,415,o),
(148,405,c),
(159,396,o),
(163,383,o),
(158,368,c),
(153,354,o),
(143,346,o),
(128,346,c),
(120,347,o),
(114,345,o),
(108,340,c),
(98,333,o),
(88,325,o),
(80,316,c),
(75,311,o),
(76,308,o),
(81,304,c),
(87,301,o),
(92,298,o),
(97,295,c),
(105,289,o),
(112,284,o),
(119,277,c),
(143,252,o),
(143,223,o),
(118,199,c),
(114,194,o),
(108,190,o),
(103,186,c),
(86,174,o),
(68,165,o),
(48,158,c),
(40,155,o),
(31,154,o),
(22,157,c),
(7,163,o),
(-2,176,o),
(0,191,c),
(1,205,o),
(14,218,o),
(31,219,c),
(47,219,o),
(59,229,o),
(72,238,c)
);
}
);
width = 160;
}
);
unicode = 115;
},
{
glyphname = germandbls;
kernLeft = p;
kernRight = p;
lastChange = "2022-09-30 02:04:55 +0000";
layers = (
{
layerId = m01;
shapes = (
{
closed = 1;
nodes = (
(173,386,o),
(141,347,o),
(136,330,c),
(161,352,o),
(183,373,o),
(196,401,c)
);
},
{
closed = 1;
nodes = (
(87,224,o),
(97,222,o),
(106,213,c),
(109,210,o),
(113,211,o),
(117,212,c),
(134,214,o),
(150,220,o),
(164,231,c),
(169,235,o),
(176,239,o),
(173,246,c),
(171,254,o),
(163,255,o),
(156,256,c),
(154,256,o),
(152,256,o),
(150,255,c),
(130,251,o),
(113,256,o),
(100,275,c),
(89,258,o),
(82,241,o),
(74,222,c)
);
},
{
closed = 1;
nodes = (
(54,166,o),
(49,157,o),
(55,146,c),
(62,131,o),
(57,117,o),
(44,109,c),
(31,100,o),
(13,101,o),
(2,111,c),
(-6,119,o),
(-10,129,o),
(-10,141,c),
(-10,153,o),
(-8,166,o),
(-5,178,c),
(22,269,o),
(66,352,o),
(130,423,c),
(144,439,o),
(160,453,o),
(179,465,c),
(191,472,o),
(204,477,o),
(219,475,c),
(246,470,o),
(265,443,o),
(261,412,c),
(259,391,o),
(251,373,o),
(240,356,c),
(231,342,o),
(220,329,o),
(209,317,c),
(206,314,o),
(202,310,o),
(199,307,c),
(200,301,o),
(204,300,o),
(207,298,c),
(241,270,o),
(244,229,o),
(215,197,c),
(193,173,o),
(164,161,o),
(133,154,c),
(120,151,o),
(107,150,o),
(93,153,c),
(78,155,o),
(67,163,o),
(58,179,c)
);
}
);
width = 262;
}
);
unicode = 223;
},
{
glyphname = t;
kernLeft = t;
kernRight = t;
lastChange = "2022-10-02 09:31:02 +0000";
layers = (
{
anchors = (
{
name = bottom;
pos = (38,169);
},
{
name = center;
pos = (94,250);
},
{
name = top;
pos = (94,500);
},
{
name = topright;
pos = (198,511);
}
);
layerId = m01;
shapes = (
{
closed = 1;
nodes = (
(148,416,o),
(154,416,o),
(161,416,c),
(176,413,o),
(187,404,o),
(188,390,c),
(189,376,o),
(181,364,o),
(164,360,c),
(151,356,o),
(136,356,o),
(122,356,c),
(113,356,o),
(109,353,o),
(106,344,c),
(94,315,o),
(81,285,o),
(72,254,c),
(70,250,o),
(69,245,o),
(68,240,c),
(74,241,o),
(76,245,o),
(80,247,c),
(91,253,o),
(102,253,o),
(111,245,c),
(120,239,o),
(124,227,o),
(120,216,c),
(108,187,o),
(88,165,o),
(57,157,c),
(32,150,o),
(10,165,o),
(4,190,c),
(0,205,o),
(2,220,o),
(5,235,c),
(11,265,o),
(21,293,o),
(32,321,c),
(34,326,o),
(37,331,o),
(37,336,c),
(32,339,o),
(28,338,o),
(23,339,c),
(4,344,o),
(-5,363,o),
(4,382,c),
(9,391,o),
(16,398,o),
(27,402,c),
(38,406,o),
(50,408,o),
(62,409,c),
(68,410,o),
(71,413,o),
(73,418,c),
(88,450,o),
(104,482,o),
(117,515,c),
(119,522,o),
(122,528,o),
(127,533,c),
(137,543,o),
(150,545,o),
(162,540,c),
(174,533,o),
(180,520,o),
(177,507,c),
(176,501,o),
(174,496,o),
(172,491,c),
(163,471,o),
(154,452,o),
(145,432,c),
(143,428,o),
(141,423,o),
(139,417,c)
);
}
);
width = 148;
}
);
unicode = 116;
},
{
glyphname = u;
kernLeft = u;
kernRight = u;
lastChange = "2022-10-02 09:31:05 +0000";
layers = (
{
anchors = (
{
name = bottom;
pos = (129,0);
},
{
name = ogonek;
pos = (151,190);
},
{
name = top;
pos = (165,403);
},
{
name = topright;
pos = (238,500);
}
);
layerId = m01;
shapes = (
{
closed = 1;
nodes = (
(74,240,o),
(77,244,o),
(80,248,c),
(104,270,o),
(125,296,o),
(146,321,c),
(165,344,o),
(173,351,o),
(193,374,c),
(198,380,o),
(204,386,o),
(211,390,c),
(232,401,o),
(254,390,o),
(258,366,c),
(259,357,o),
(258,348,o),
(253,340,c),
(245,327,o),
(205,259,o),
(191,227,c),
(189,221,o),
(187,215,o),
(188,208,c),
(189,194,o),
(181,182,o),
(166,178,c),
(151,174,o),
(137,179,o),
(130,192,c),
(127,196,o),
(126,200,o),
(124,206,c),
(114,197,o),
(105,189,o),
(96,182,c),
(86,174,o),
(76,166,o),
(65,161,c),
(33,146,o),
(4,162,o),
(0,197,c),
(-1,208,o),
(1,218,o),
(3,229,c),
(11,268,o),
(27,305,o),
(46,341,c),
(54,358,o),
(54,361,o),
(64,377,c),
(71,389,o),
(81,396,o),
(95,394,c),
(116,391,o),
(127,369,o),
(116,349,c),
(107,333,o),
(107,330,o),
(99,314,c),
(89,295,o),
(79,275,o),
(72,255,c),
(71,250,o),
(67,245,o),
(69,239,c)
);
}
);
width = 248;
}
);
unicode = 117;
},
{
glyphname = v;
lastChange = "2022-10-02 09:31:08 +0000";
layers = (
{
anchors = (
{
name = bottom;
pos = (117,0);
},
{
name = top;
pos = (117,500);
}
);
layerId = m01;
shapes = (
{
closed = 1;
nodes = (
(70,232,o),
(71,232,o),
(72,232,c),
(112,263,o),
(147,297,o),
(166,345,c),
(172,361,o),
(176,376,o),
(171,392,c),
(167,405,o),
(173,416,o),
(183,422,c),
(193,428,o),
(208,427,o),
(218,418,c),
(229,408,o),
(233,396,o),
(234,382,c),
(234,366,o),
(231,352,o),
(226,337,c),
(216,306,o),
(201,278,o),
(180,253,c),
(156,225,o),
(130,200,o),
(99,179,c),
(88,170,o),
(75,163,o),
(61,158,c),
(26,147,o),
(-1,168,o),
(0,204,c),
(1,216,o),
(3,227,o),
(6,238,c),
(16,272,o),
(29,305,o),
(41,338,c),
(47,352,o),
(52,367,o),
(58,381,c),
(60,386,o),
(62,391,o),
(65,396,c),
(75,410,o),
(91,415,o),
(105,407,c),
(119,400,o),
(124,385,o),
(118,369,c),
(111,351,o),
(103,333,o),
(97,315,c),
(88,292,o),
(79,269,o),
(71,246,c),
(69,242,o),
(66,237,o),
(69,232,c)
);
}
);
width = 224;
}
);
unicode = 118;
},
{
glyphname = w;
kernLeft = w;
kernRight = w;
lastChange = "2022-10-02 09:31:11 +0000";
layers = (
{
anchors = (
{
name = bottom;
pos = (166,0);
},
{
name = top;
pos = (201,358);
}
);
layerId = m01;
shapes = (
{
closed = 1;
nodes = (
(223,267,o),
(250,299,o),
(267,339,c),
(270,344,o),
(272,350,o),
(275,355,c),
(283,370,o),
(299,376,o),
(313,370,c),
(328,363,o),
(334,348,o),
(329,332,c),
(320,308,o),
(308,285,o),
(293,264,c),
(272,234,o),
(248,206,o),
(220,182,c),
(208,172,o),
(196,163,o),
(180,159,c),
(152,151,o),
(129,166,o),
(123,194,c),
(122,197,o),
(123,201,o),
(120,204,c),
(115,204,o),
(113,200,o),
(110,197,c),
(100,188,o),
(90,178,o),
(78,170,c),
(73,166,o),
(68,163,o),
(62,160,c),
(30,146,o),
(1,165,o),
(0,199,c),
(-1,212,o),
(3,223,o),
(6,235,c),
(17,275,o),
(37,311,o),
(60,345,c),
(65,351,o),
(70,356,o),
(77,359,c),
(89,364,o),
(100,364,o),
(110,356,c),
(120,348,o),
(123,337,o),
(119,325,c),
(117,314,o),
(111,305,o),
(104,297,c),
(91,284,o),
(82,270,o),
(75,249,c),
(81,251,o),
(84,256,o),
(88,259,c),
(107,280,o),
(127,301,o),
(146,322,c),
(153,329,o),
(159,335,o),
(166,341,c),
(178,351,o),
(191,352,o),
(202,346,c),
(214,339,o),
(220,326,o),
(218,311,c),
(217,302,o),
(213,295,o),
(209,287,c),
(202,271,o),
(194,255,o),
(191,238,c)
);
}
);
width = 331;
}
);
unicode = 119;
},
{
glyphname = x;
lastChange = "2022-10-02 09:31:14 +0000";
layers = (
{
anchors = (
{
name = bottom;
pos = (106,0);
},
{
name = top;
pos = (106,500);
}
);
layerId = m01;
shapes = (
{
closed = 1;
nodes = (
(109,333,o),
(112,337,o),
(116,341,c),
(137,364,o),
(159,387,o),
(180,409,c),
(186,415,o),
(193,421,o),
(201,423,c),
(215,428,o),
(229,423,o),
(237,411,c),
(244,399,o),
(242,384,o),
(231,374,c),
(194,341,o),
(163,303,o),
(128,268,c),
(123,263,o),
(121,259,o),
(124,252,c),
(127,246,o),
(130,239,o),
(132,233,c),
(135,224,o),
(140,219,o),
(150,218,c),
(166,216,o),
(175,202,o),
(172,186,c),
(168,158,o),
(137,144,o),
(113,160,c),
(107,164,o),
(101,170,o),
(96,177,c),
(89,186,o),
(83,197,o),
(78,207,c),
(73,208,o),
(71,204,o),
(69,201,c),
(60,189,o),
(50,176,o),
(41,162,c),
(35,154,o),
(31,146,o),
(31,135,c),
(31,123,o),
(20,114,o),
(8,112,c),
(-4,110,o),
(-19,117,o),
(-25,128,c),
(-31,139,o),
(-31,149,o),
(-27,160,c),
(-24,171,o),
(-18,180,o),
(-13,188,c),
(5,216,o),
(24,242,o),
(46,266,c),
(52,273,o),
(54,279,o),
(51,288,c),
(46,305,o),
(42,323,o),
(39,341,c),
(38,349,o),
(38,357,o),
(40,364,c),
(45,382,o),
(60,391,o),
(77,387,c),
(96,382,o),
(106,368,o),
(102,349,c),
(100,339,o),
(100,339,o),
(103,330,c)
);
}
);
width = 201;
}
);
unicode = 120;
},
{
glyphname = y;
kernLeft = y;
kernRight = y;
lastChange = "2022-10-02 09:31:17 +0000";
layers = (
{
anchors = (
{
name = bottom;
pos = (114,0);
},
{
name = top;
pos = (159,375);
}
);
layerId = m01;
shapes = (
{
closed = 1;
nodes = (
(79,234,o),
(83,239,o),
(87,241,c),
(133,274,o),
(175,311,o),
(209,357,c),
(212,361,o),
(215,365,o),
(219,368,c),
(235,382,o),
(259,376,o),
(266,355,c),
(270,344,o),
(268,334,o),
(265,324,c),
(255,291,o),
(240,260,o),
(224,230,c),
(196,177,o),
(162,129,o),
(120,87,c),
(105,72,o),
(88,59,o),
(70,49,c),
(54,41,o),
(38,37,o),
(20,38,c),
(-3,39,o),
(-20,50,o),
(-30,70,c),
(-38,85,o),
(-40,102,o),
(-40,118,c),
(-40,121,o),
(-40,123,o),
(-39,126,c),
(-37,137,o),
(-29,145,o),
(-18,147,c),
(-7,149,o),
(3,144,o),
(9,135,c),
(14,126,o),
(17,117,o),
(19,108,c),
(23,96,o),
(25,95,o),
(37,100,c),
(46,103,o),
(54,108,o),
(61,114,c),
(90,138,o),
(113,167,o),
(134,197,c),
(135,198,o),
(135,199,o),
(135,201,c),
(130,198,o),
(126,196,o),
(122,193,c),
(109,184,o),
(96,176,o),
(81,170,c),
(74,166,o),
(67,163,o),
(59,162,c),
(29,158,o),
(7,176,o),
(6,206,c),
(6,212,o),
(6,217,o),
(7,223,c),
(16,267,o),
(32,308,o),
(57,346,c),
(62,353,o),
(67,359,o),
(74,363,c),
(88,372,o),
(105,370,o),
(114,358,c),
(124,346,o),
(123,331,o),
(112,318,c),
(92,295,o),
(82,268,o),
(73,239,c),
(72,238,o),
(73,236,o),
(73,235,c)
);
}
);
width = 268;
}
);
unicode = 121;
},
{
glyphname = z;
kernLeft = z;
kernRight = z;
lastChange = "2022-10-02 09:31:20 +0000";
layers = (
{
anchors = (
{
name = bottom;
pos = (78,0);
},
{
name = center;
pos = (78,250);
},
{
name = top;
pos = (138,388);
}
);
layerId = m01;
shapes = (
{
closed = 1;
nodes = (
(111,216,o),
(125,216,o),
(139,216,c),
(150,216,o),
(159,213,o),
(167,206,c),
(175,198,o),
(178,189,o),
(175,177,c),
(172,166,o),
(164,160,o),
(152,158,c),
(149,157,o),
(145,157,o),
(140,157,c),
(100,156,o),
(59,156,o),
(18,155,c),
(13,155,o),
(8,155,o),
(3,156,c),
(-12,157,o),
(-25,168,o),
(-29,183,c),
(-32,198,o),
(-26,209,o),
(-14,217,c),
(0,227,o),
(15,236,o),
(30,246,c),
(54,262,o),
(78,279,o),
(99,299,c),
(105,305,o),
(112,310,o),
(117,319,c),
(109,320,o),
(104,318,o),
(99,313,c),
(88,304,o),
(76,303,o),
(64,309,c),
(52,314,o),
(44,323,o),
(44,337,c),
(45,351,o),
(52,363,o),
(65,368,c),
(88,378,o),
(113,383,o),
(138,381,c),
(172,377,o),
(192,346,o),
(182,314,c),
(178,299,o),
(170,287,o),
(160,276,c),
(145,259,o),
(127,244,o),
(109,229,c),
(105,226,o),
(100,224,o),
(95,216,c)
);
}
);
width = 195;
}
);
unicode = 122;
},
{
glyphname = ordfeminine;
lastChange = "2022-09-28 07:21:12 +0000";
layers = (
{
layerId = m01;
shapes = (
{
closed = 1;
nodes = (
(99,569,o),
(114,581,o),
(129,592,c),
(137,597,o),
(139,604,o),
(139,612,c),
(140,616,o),
(140,620,o),
(137,622,c),
(134,625,o),
(131,622,o),
(128,620,c),
(107,605,o),
(92,584,o),
(82,560,c)
);
},
{
closed = 1;
nodes = (
(108,505,o),
(99,499,o),
(89,494,c),
(80,489,o),
(70,486,o),
(59,484,c),
(35,481,o),
(15,496,o),
(11,520,c),
(9,530,o),
(11,541,o),
(13,551,c),
(26,594,o),
(49,631,o),
(84,661,c),
(91,667,o),
(99,672,o),
(107,677,c),
(136,691,o),
(164,685,o),
(184,660,c),
(190,653,o),
(193,650,o),
(202,655,c),
(213,661,o),
(225,659,o),
(234,650,c),
(243,642,o),
(246,629,o),
(240,617,c),
(238,611,o),
(234,606,o),
(231,601,c),
(216,578,o),
(200,556,o),
(188,531,c),
(185,524,o),
(183,518,o),
(183,511,c),
(184,496,o),
(176,485,o),
(162,481,c),
(149,477,o),
(132,484,o),
(125,497,c),
(123,501,o),
(121,505,o),
(119,510,c)
);
}
);
width = 253;
}
);
unicode = 170;
},
{
glyphname = ordmasculine;
lastChange = "2022-09-28 07:21:12 +0000";
layers = (
{
layerId = m01;
shapes = (
{
closed = 1;
nodes = (
(76,534,o),
(79,537,o),
(81,538,c),
(94,545,o),
(106,553,o),
(116,564,c),
(126,573,o),
(135,583,o),
(140,596,c),
(142,602,o),
(144,607,o),
(141,613,c),
(129,611,o),
(120,603,o),
(108,601,c),
(106,601,o),
(104,598,o),
(103,596,c),
(89,579,o),
(78,559,o),
(73,538,c)
);
},
{
closed = 1;
nodes = (
(10,539,o),
(14,553,o),
(19,566,c),
(29,595,o),
(43,620,o),
(64,642,c),
(74,653,o),
(86,663,o),
(102,664,c),
(106,665,o),
(109,667,o),
(113,670,c),
(129,682,o),
(147,682,o),
(165,673,c),
(190,661,o),
(205,632,o),
(202,603,c),
(200,586,o),
(195,570,o),
(185,555,c),
(161,518,o),
(128,492,o),
(86,476,c),
(82,474,o),
(78,473,o),
(73,472,c),
(38,465,o),
(10,488,o),
(10,528,c)
);
}
);
width = 212;
}
);
unicode = 186;
},
{
glyphname = zero;
lastChange = "2022-10-02 03:06:10 +0000";
layers = (
{
layerId = m01;
shapes = (
{
closed = 1;
nodes = (
(60,270,o),
(60,258,o),
(63,247,c),
(69,222,o),
(77,217,o),
(101,228,c),
(119,236,o),
(133,248,o),
(147,262,c),
(199,313,o),
(232,375,o),
(249,446,c),
(254,467,o),
(256,488,o),
(254,509,c),
(251,530,o),
(239,543,o),
(219,550,c),
(213,552,o),
(208,552,o),
(202,547,c),
(195,541,o),
(187,538,o),
(177,541,c),
(171,543,o),
(168,540,o),
(164,536,c),
(159,530,o),
(154,524,o),
(149,518,c),
(123,482,o),
(102,444,o),
(87,403,c),
(72,364,o),
(61,324,o),
(60,281,c)
);
},
{
closed = 1;
nodes = (
(1,326,o),
(11,369,o),
(27,412,c),
(50,475,o),
(81,533,o),
(126,583,c),
(146,604,o),
(169,613,o),
(197,613,c),
(211,613,o),
(224,611,o),
(237,606,c),
(283,592,o),
(310,557,o),
(314,509,c),
(316,480,o),
(312,451,o),
(305,424,c),
(285,345,o),
(247,277,o),
(190,220,c),
(174,204,o),
(156,190,o),
(136,179,c),
(124,172,o),
(111,167,o),
(97,164,c),
(61,158,o),
(31,172,o),
(15,205,c),
(3,229,o),
(0,254,o),
(0,289,c)
);
}
);
width = 305;
}
);
unicode = 48;
},
{
glyphname = one;
lastChange = "2022-10-02 03:06:12 +0000";
layers = (
{
layerId = m01;
shapes = (
{
closed = 1;
nodes = (
(222,575,o),
(220,568,o),
(217,563,c),
(190,520,o),
(170,473,o),
(147,428,c),
(117,368,o),
(89,306,o),
(69,242,c),
(64,225,o),
(59,208,o),
(59,189,c),
(60,169,o),
(39,157,o),
(21,166,c),
(6,172,o),
(-2,187,o),
(0,206,c),
(1,224,o),
(7,241,o),
(12,258,c),
(33,325,o),
(62,390,o),
(93,453,c),
(115,497,o),
(137,540,o),
(160,584,c),
(163,590,o),
(166,596,o),
(170,601,c),
(178,612,o),
(191,615,o),
(204,610,c),
(215,605,o),
(222,595,o),
(222,580,c)
);
}
);
width = 132;
}
);
unicode = 49;
},
{
glyphname = two;
lastChange = "2022-10-02 03:05:47 +0000";
layers = (
{
layerId = m01;
shapes = (
{
closed = 1;
nodes = (
(176,248,o),
(185,247,o),
(194,246,c),
(202,245,o),
(211,243,o),
(218,238,c),
(230,232,o),
(237,222,o),
(238,208,c),
(239,189,o),
(220,173,o),
(203,181,c),
(176,193,o),
(149,188,o),
(122,184,c),
(100,180,o),
(78,175,o),
(57,168,c),
(50,166,o),
(43,164,o),
(35,163,c),
(20,161,o),
(7,169,o),
(2,182,c),
(-2,195,o),
(2,208,o),
(14,217,c),
(20,221,o),
(25,224,o),
(31,228,c),
(122,279,o),
(192,353,o),
(250,439,c),
(264,460,o),
(275,482,o),
(281,507,c),
(282,515,o),
(283,523,o),
(281,531,c),
(279,542,o),
(274,546,o),
(263,543,c),
(258,542,o),
(254,540,o),
(249,539,c),
(213,525,o),
(183,502,o),
(157,475,c),
(152,469,o),
(150,465,o),
(155,457,c),
(166,439,o),
(156,418,o),
(135,413,c),
(113,408,o),
(91,422,o),
(86,445,c),
(84,457,o),
(86,469,o),
(90,480,c),
(95,492,o),
(102,502,o),
(111,512,c),
(145,549,o),
(184,578,o),
(232,596,c),
(247,601,o),
(263,605,o),
(279,603,c),
(311,599,o),
(333,576,o),
(340,543,c),
(344,521,o),
(341,500,o),
(335,479,c),
(326,450,o),
(312,424,o),
(296,400,c),
(262,349,o),
(221,304,o),
(177,262,c),
(174,258,o),
(170,255,o),
(164,249,c)
);
}
);
width = 312;
}
);
unicode = 50;
},
{
glyphname = three;
lastChange = "2022-10-02 03:06:15 +0000";
layers = (
{
layerId = m01;
shapes = (
{
closed = 1;
nodes = (
(245,399,o),
(251,398,o),
(255,395,c),
(293,367,o),
(303,324,o),
(282,282,c),
(270,261,o),
(254,244,o),
(235,229,c),
(197,201,o),
(155,185,o),
(110,173,c),
(96,169,o),
(82,166,o),
(68,164,c),
(55,162,o),
(43,162,o),
(30,166,c),
(14,171,o),
(4,182,o),
(1,198,c),
(-3,222,o),
(17,240,o),
(39,231,c),
(52,226,o),
(63,226,o),
(75,229,c),
(109,236,o),
(143,246,o),
(174,264,c),
(191,274,o),
(206,285,o),
(218,300,c),
(237,324,o),
(233,340,o),
(204,351,c),
(189,357,o),
(173,357,o),
(157,359,c),
(150,360,o),
(143,360,o),
(136,363,c),
(115,371,o),
(108,392,o),
(119,411,c),
(125,420,o),
(134,426,o),
(144,430,c),
(172,442,o),
(199,454,o),
(226,468,c),
(249,480,o),
(271,493,o),
(291,509,c),
(297,514,o),
(303,519,o),
(307,526,c),
(292,533,o),
(277,532,o),
(263,531,c),
(228,528,o),
(194,522,o),
(161,512,c),
(153,509,o),
(147,506,o),
(147,495,c),
(147,481,o),
(138,472,o),
(125,469,c),
(108,465,o),
(92,468,o),
(79,479,c),
(61,493,o),
(60,516,o),
(75,534,c),
(84,545,o),
(97,552,o),
(110,558,c),
(137,571,o),
(166,579,o),
(196,585,c),
(216,589,o),
(237,591,o),
(257,593,c),
(279,595,o),
(301,594,o),
(322,588,c),
(375,572,o),
(389,524,o),
(353,482,c),
(341,468,o),
(327,456,o),
(311,446,c),
(293,434,o),
(275,423,o),
(255,413,c),
(251,410,o),
(246,409,o),
(242,404,c)
);
}
);
width = 373;
}
);
unicode = 51;
},
{
glyphname = four;
lastChange = "2022-10-02 03:06:18 +0000";
layers = (
{
layerId = m01;
shapes = (
{
closed = 1;
nodes = (
(104,358,o),
(94,351,o),
(83,345,c),
(73,339,o),
(62,334,o),
(50,330,c),
(18,322,o),
(-7,340,o),
(-10,373,c),
(-11,387,o),
(-10,400,o),
(-6,414,c),
(7,468,o),
(30,519,o),
(60,567,c),
(64,573,o),
(68,579,o),
(73,583,c),
(84,592,o),
(99,593,o),
(110,585,c),
(120,578,o),
(124,564,o),
(119,551,c),
(117,546,o),
(114,540,o),
(111,536,c),
(85,501,o),
(70,462,o),
(56,422,c),
(54,414,o),
(52,405,o),
(49,395,c),
(56,395,o),
(60,399,o),
(64,401,c),
(88,416,o),
(109,433,o),
(131,449,c),
(137,454,o),
(142,458,o),
(147,462,c),
(181,488,o),
(181,488,o),
(200,527,c),
(202,532,o),
(204,536,o),
(203,541,c),
(200,552,o),
(204,561,o),
(210,570,c),
(218,581,o),
(227,591,o),
(236,600,c),
(248,611,o),
(261,613,o),
(273,606,c),
(285,599,o),
(290,585,o),
(286,570,c),
(284,563,o),
(281,556,o),
(278,550,c),
(267,529,o),
(256,509,o),
(245,488,c),
(242,481,o),
(238,475,o),
(236,467,c),
(236,464,o),
(234,461,o),
(233,459,c),
(201,411,o),
(179,357,o),
(155,305,c),
(142,277,o),
(131,247,o),
(121,218,c),
(119,212,o),
(117,206,o),
(118,199,c),
(122,180,o),
(114,167,o),
(98,164,c),
(83,160,o),
(65,170,o),
(60,186,c),
(57,195,o),
(57,204,o),
(59,213,c),
(63,229,o),
(68,244,o),
(74,258,c),
(85,290,o),
(98,320,o),
(112,351,c),
(113,355,o),
(115,359,o),
(117,363,c),
(116,363,o),
(115,364,o),
(115,364,c)
);
}
);
width = 227;
}
);
unicode = 52;
},
{
glyphname = five;
lastChange = "2022-10-02 03:12:43 +0000";
layers = (
{
layerId = m01;
shapes = (
{
closed = 1;
nodes = (
(129,421,o),
(142,424,o),
(155,427,c),
(174,431,o),
(193,435,o),
(213,435,c),
(221,435,o),
(229,434,o),
(237,432,c),
(272,421,o),
(289,388,o),
(279,351,c),
(274,333,o),
(266,317,o),
(255,302,c),
(227,262,o),
(192,230,o),
(150,205,c),
(125,190,o),
(98,178,o),
(71,168,c),
(61,165,o),
(50,162,o),
(40,163,c),
(23,164,o),
(11,172,o),
(4,187,c),
(-2,198,o),
(-1,209,o),
(7,219,c),
(15,228,o),
(26,231,o),
(38,227,c),
(44,224,o),
(49,223,o),
(56,226,c),
(110,246,o),
(157,276,o),
(195,321,c),
(204,332,o),
(213,344,o),
(218,357,c),
(225,373,o),
(223,376,o),
(207,375,c),
(189,374,o),
(173,370,o),
(156,366,c),
(134,361,o),
(113,355,o),
(91,349,c),
(84,347,o),
(77,347,o),
(70,347,c),
(49,349,o),
(34,366,o),
(36,388,c),
(36,397,o),
(40,405,o),
(44,413,c),
(60,446,o),
(78,477,o),
(97,508,c),
(103,517,o),
(107,525,o),
(110,536,c),
(114,559,o),
(140,573,o),
(163,568,c),
(169,566,o),
(174,567,o),
(179,568,c),
(226,578,o),
(274,585,o),
(322,590,c),
(334,591,o),
(345,592,o),
(356,589,c),
(369,585,o),
(379,578,o),
(383,564,c),
(386,551,o),
(380,540,o),
(371,530,c),
(364,524,o),
(356,519,o),
(348,517,c),
(337,514,o),
(327,515,o),
(320,523,c),
(315,528,o),
(310,529,o),
(304,528,c),
(259,524,o),
(215,515,o),
(171,506,c),
(167,505,o),
(164,503,o),
(162,500,c),
(146,474,o),
(130,449,o),
(116,422,c),
(115,421,o),
(116,420,o),
(116,418,c)
);
}
);
width = 304;
}
);
unicode = 53;
},
{
glyphname = six;
lastChange = "2022-10-02 03:06:22 +0000";
layers = (
{
layerId = m01;
shapes = (
{
closed = 1;
nodes = (
(91,226,o),
(103,229,o),
(114,233,c),
(166,254,o),
(210,286,o),
(246,329,c),
(251,334,o),
(254,340,o),
(258,346,c),
(260,350,o),
(260,354,o),
(254,354,c),
(250,355,o),
(247,355,o),
(244,355,c),
(200,351,o),
(158,343,o),
(122,314,c),
(112,305,o),
(99,301,o),
(86,307,c),
(82,309,o),
(79,309,o),
(77,305,c),
(69,284,o),
(62,263,o),
(63,241,c),
(64,228,o),
(67,225,o),
(80,225,c)
);
},
{
closed = 1;
nodes = (
(147,399,o),
(171,407,o),
(196,412,c),
(215,416,o),
(235,418,o),
(254,417,c),
(263,417,o),
(272,415,o),
(280,412,c),
(314,401,o),
(330,370,o),
(321,336,c),
(318,325,o),
(313,315,o),
(307,306,c),
(255,237,o),
(190,189,o),
(106,166,c),
(91,162,o),
(76,162,o),
(61,165,c),
(26,170,o),
(3,198,o),
(0,235,c),
(-1,261,o),
(4,285,o),
(12,308,c),
(38,383,o),
(79,449,o),
(130,510,c),
(152,536,o),
(175,562,o),
(202,583,c),
(210,589,o),
(218,595,o),
(227,599,c),
(240,604,o),
(252,602,o),
(263,593,c),
(274,585,o),
(278,574,o),
(276,560,c),
(272,536,o),
(260,526,o),
(237,526,c),
(230,526,o),
(227,523,o),
(223,519,c),
(206,503,o),
(190,485,o),
(175,467,c),
(155,443,o),
(137,418,o),
(122,390,c)
);
}
);
width = 303;
}
);
unicode = 54;
},
{
glyphname = seven;
lastChange = "2022-10-02 03:06:24 +0000";
layers = (
{
layerId = m01;
shapes = (
{
closed = 1;
nodes = (
(290,536,o),
(285,535,o),
(280,535,c),
(245,535,o),
(210,534,o),
(175,531,c),
(170,530,o),
(164,529,o),
(159,526,c),
(143,515,o),
(126,518,o),
(111,525,c),
(93,532,o),
(88,552,o),
(98,569,c),
(104,580,o),
(115,586,o),
(127,588,c),
(196,597,o),
(265,601,o),
(334,595,c),
(335,595,o),
(337,595,o),
(339,594,c),
(378,588,o),
(392,557,o),
(370,524,c),
(361,509,o),
(348,495,o),
(336,483,c),
(295,441,o),
(253,401,o),
(212,361,c),
(170,319,o),
(129,277,o),
(92,232,c),
(79,216,o),
(65,200,o),
(57,180,c),
(52,167,o),
(40,161,o),
(26,163,c),
(13,165,o),
(3,174,o),
(1,188,c),
(-2,199,o),
(0,209,o),
(6,218,c),
(13,230,o),
(20,242,o),
(29,253,c),
(72,309,o),
(122,360,o),
(173,410,c),
(209,446,o),
(246,482,o),
(283,517,c),
(287,522,o),
(292,526,o),
(296,533,c)
);
}
);
width = 330;
}
);
unicode = 55;
},
{
glyphname = eight;
lastChange = "2022-10-02 03:06:26 +0000";
layers = (
{
layerId = m01;
shapes = (
{
closed = 1;
nodes = (
(65,222,o),
(67,221,o),
(69,221,c),
(100,221,o),
(130,227,o),
(159,241,c),
(167,245,o),
(174,250,o),
(179,257,c),
(186,266,o),
(186,272,o),
(180,281,c),
(172,291,o),
(162,298,o),
(151,305,c),
(148,308,o),
(145,307,o),
(143,304,c),
(127,285,o),
(107,271,o),
(89,255,c),
(79,246,o),
(69,236,o),
(62,222,c)
);
},
{
closed = 1;
nodes = (
(262,555,o),
(253,553,o),
(244,550,c),
(207,537,o),
(175,517,o),
(148,489,c),
(135,476,o),
(125,461,o),
(117,444,c),
(107,420,o),
(111,403,o),
(132,386,c),
(138,382,o),
(143,378,o),
(149,386,c),
(151,390,o),
(156,391,o),
(160,392,c),
(168,394,o),
(174,398,o),
(179,402,c),
(205,421,o),
(228,442,o),
(249,466,c),
(259,477,o),
(267,489,o),
(274,502,c),
(280,513,o),
(286,525,o),
(287,538,c),
(288,551,o),
(284,556,o),
(271,556,c)
);
},
{
closed = 1;
nodes = (
(201,340,o),
(205,338,o),
(208,335,c),
(217,327,o),
(226,318,o),
(232,307,c),
(247,282,o),
(246,256,o),
(231,231,c),
(220,212,o),
(204,200,o),
(185,190,c),
(160,176,o),
(132,170,o),
(104,165,c),
(84,162,o),
(64,162,o),
(45,166,c),
(18,172,o),
(2,189,o),
(0,212,c),
(0,225,o),
(3,236,o),
(9,247,c),
(17,263,o),
(28,276,o),
(40,288,c),
(54,302,o),
(70,315,o),
(86,328,c),
(90,331,o),
(95,334,o),
(98,339,c),
(95,344,o),
(90,346,o),
(86,350,c),
(56,379,o),
(47,414,o),
(60,454,c),
(65,472,o),
(74,488,o),
(85,503,c),
(127,559,o),
(182,595,o),
(250,611,c),
(265,615,o),
(281,615,o),
(296,610,c),
(324,602,o),
(340,582,o),
(344,554,c),
(347,535,o),
(344,518,o),
(337,501,c),
(326,472,o),
(309,446,o),
(288,423,c),
(262,394,o),
(232,368,o),
(199,345,c)
);
}
);
width = 345;
}
);
unicode = 56;
},
{
glyphname = nine;
lastChange = "2022-10-02 03:06:28 +0000";
layers = (
{
layerId = m01;
shapes = (
{
closed = 1;
nodes = (
(216,536,o),
(216,548,o),
(211,559,c),
(208,568,o),
(205,569,o),
(197,565,c),
(187,561,o),
(178,555,o),
(170,548,c),
(118,504,o),
(90,446,o),
(78,380,c),
(77,373,o),
(77,366,o),
(78,359,c),
(80,349,o),
(83,348,o),
(92,352,c),
(100,356,o),
(107,360,o),
(113,364,c),
(145,386,o),
(171,413,o),
(196,442,c),
(203,451,o),
(208,460,o),
(210,472,c),
(214,489,o),
(216,506,o),
(217,524,c)
);
},
{
closed = 1;
nodes = (
(148,318,l),
(143,315,o),
(137,311,o),
(132,308,c),
(121,301,o),
(109,296,o),
(96,293,c),
(71,287,o),
(47,297,o),
(33,319,c),
(22,337,o),
(19,357,o),
(20,377,c),
(21,396,o),
(25,414,o),
(31,432,c),
(46,482,o),
(70,529,o),
(107,568,c),
(122,584,o),
(139,598,o),
(158,610,c),
(169,617,o),
(180,622,o),
(193,624,c),
(217,629,o),
(236,621,o),
(252,603,c),
(258,595,o),
(263,586,o),
(266,577,c),
(268,571,o),
(270,569,o),
(276,572,c),
(299,582,o),
(322,558,o),
(316,532,c),
(315,528,o),
(314,525,o),
(313,521,c),
(280,438,o),
(240,358,o),
(196,280,c),
(182,256,o),
(167,232,o),
(149,211,c),
(134,193,o),
(117,179,o),
(96,170,c),
(81,163,o),
(65,160,o),
(48,165,c),
(23,173,o),
(5,206,o),
(11,231,c),
(15,250,o),
(38,257,o),
(53,243,c),
(59,239,o),
(62,233,o),
(65,227,c),
(67,221,o),
(70,221,o),
(75,224,c),
(84,228,o),
(92,234,o),
(98,241,c),
(120,263,o),
(135,290,o),
(150,316,c)
);
}
);
width = 307;
}
);
unicode = 57;
},
{
glyphname = period;
lastChange = "2022-09-28 07:45:31 +0000";
layers = (
{
layerId = m01;
shapes = (
{
closed = 1;
nodes = (
(73,162,o),
(60,148,o),
(45,148,c),
(29,148,o),
(15,164,o),
(15,180,c),
(15,197,o),
(28,210,o),
(45,209,c),
(61,209,o),
(73,196,o),
(73,179,c)
);
}
);
width = 88;
}
);
unicode = 46;
},
{
glyphname = comma;
lastChange = "2022-09-28 07:45:31 +0000";
layers = (
{
layerId = m01;
shapes = (
{
closed = 1;
nodes = (
(19,154,o),
(23,174,o),
(32,192,c),
(39,207,o),
(54,213,o),
(69,207,c),
(83,202,o),
(91,187,o),
(86,171,c),
(83,157,o),
(78,144,o),
(74,130,c),
(72,124,o),
(69,117,o),
(64,112,c),
(55,103,o),
(43,101,o),
(32,105,c),
(21,110,o),
(14,122,o),
(15,136,c)
);
}
);
width = 102;
}
);
unicode = 44;
},
{
glyphname = colon;
lastChange = "2022-09-28 07:45:31 +0000";
layers = (
{
layerId = m01;
shapes = (
{
closed = 1;
nodes = (
(77,189,o),
(61,172,o),
(45,172,c),
(28,172,o),
(15,185,o),
(15,201,c),
(15,218,o),
(31,235,o),
(47,235,c),
(63,235,o),
(77,221,o),
(77,205,c)
);
},
{
closed = 1;
nodes = (
(59,277,o),
(46,292,o),
(46,311,c),
(46,328,o),
(60,341,o),
(76,340,c),
(93,340,o),
(106,324,o),
(106,306,c),
(106,289,o),
(93,276,o),
(76,277,c)
);
}
);
width = 121;
}
);
unicode = 58;
},
{
glyphname = semicolon;
lastChange = "2022-09-28 07:45:31 +0000";
layers = (
{
layerId = m01;
shapes = (
{
closed = 1;
nodes = (
(90,228,o),
(104,209,o),
(97,190,c),
(91,173,o),
(83,156,o),
(74,140,c),
(70,133,o),
(64,127,o),
(57,124,c),
(46,119,o),
(35,120,o),
(26,127,c),
(16,135,o),
(12,147,o),
(17,158,c),
(25,177,o),
(34,195,o),
(43,212,c),
(49,223,o),
(58,228,o),
(70,228,c)
);
},
{
closed = 1;
nodes = (
(132,293,o),
(117,280,o),
(99,281,c),
(81,282,o),
(68,295,o),
(68,311,c),
(69,329,o),
(83,341,o),
(102,340,c),
(120,340,o),
(133,327,o),
(133,310,c)
);
}
);
width = 148;
}
);
unicode = 59;
},
{
glyphname = ellipsis;
lastChange = "2022-09-28 07:45:31 +0000";
layers = (
{
layerId = m01;
shapes = (
{
closed = 1;
nodes = (
(236,160,o),
(224,146,o),
(207,146,c),
(191,145,o),
(177,159,o),
(177,177,c),
(178,195,o),
(191,209,o),
(207,209,c),
(224,209,o),
(237,195,o),
(237,177,c)
);
},
{
closed = 1;
nodes = (
(63,208,o),
(78,194,o),
(78,177,c),
(78,162,o),
(66,149,o),
(50,148,c),
(32,148,o),
(16,162,o),
(15,179,c),
(15,195,o),
(28,208,o),
(44,208,c)
);
},
{
closed = 1;
nodes = (
(406,158,o),
(391,144,o),
(375,145,c),
(359,146,o),
(346,160,o),
(347,176,c),
(348,193,o),
(365,208,o),
(380,207,c),
(396,206,o),
(408,193,o),
(407,177,c)
);
}
);
width = 422;
}
);
unicode = 8230;
},
{
glyphname = exclam;
lastChange = "2022-09-28 07:45:31 +0000";
layers = (
{
layerId = m01;
shapes = (
{
closed = 1;
nodes = (
(42,197,o),
(45,210,o),
(49,224,c),
(65,274,o),
(85,323,o),
(105,371,c),
(135,441,o),
(184,550,o),
(217,618,c),
(221,625,o),
(224,632,o),
(228,639,c),
(232,647,o),
(238,653,o),
(246,656,c),
(265,665,o),
(287,653,o),
(288,632,c),
(289,617,o),
(285,602,o),
(273,591,c),
(269,588,o),
(267,584,o),
(264,579,c),
(218,478,o),
(153,337,o),
(115,233,c),
(108,214,o),
(102,195,o),
(99,175,c),
(98,169,o),
(96,164,o),
(94,159,c),
(82,141,o),
(57,141,o),
(46,159,c),
(42,166,o),
(41,174,o),
(41,186,c)
);
},
{
closed = 1;
nodes = (
(28,50,o),
(14,64,o),
(15,80,c),
(15,97,o),
(33,115,o),
(51,115,c),
(68,115,o),
(83,100,o),
(83,83,c),
(83,65,o),
(64,49,o),
(44,49,c)
);
}
);
width = 303;
}
);
unicode = 33;
},
{
glyphname = exclamdown;
lastChange = "2022-09-28 07:45:31 +0000";
layers = (
{
layerId = m01;
shapes = (
{
closed = 1;
nodes = (
(262,512,o),
(258,499,o),
(254,485,c),
(239,435,o),
(219,386,o),
(198,338,c),
(168,268,o),
(119,159,o),
(86,91,c),
(83,84,o),
(79,77,o),
(75,70,c),
(71,62,o),
(65,56,o),
(57,52,c),
(38,43,o),
(16,56,o),
(15,77,c),
(14,92,o),
(18,107,o),
(30,118,c),
(34,121,o),
(37,125,o),
(39,130,c),
(85,230,o),
(151,372,o),
(189,476,c),
(195,495,o),
(201,514,o),
(204,534,c),
(205,540,o),
(207,545,o),
(210,550,c),
(221,568,o),
(246,568,o),
(257,550,c),
(261,543,o),
(263,535,o),
(262,523,c)
);
},
{
closed = 1;
nodes = (
(276,659,o),
(289,645,o),
(289,629,c),
(288,612,o),
(270,594,o),
(252,594,c),
(235,594,o),
(220,609,o),
(220,626,c),
(221,644,o),
(239,660,o),
(259,659,c)
);
}
);
width = 304;
}
);
unicode = 161;
},
{
glyphname = question;
lastChange = "2022-09-28 07:45:31 +0000";
layers = (
{
layerId = m01;
shapes = (
{
closed = 1;
nodes = (
(399,564,o),
(392,544,o),
(383,525,c),
(370,499,o),
(354,477,o),
(336,455,c),
(305,416,o),
(272,379,o),
(238,342,c),
(205,305,o),
(172,267,o),
(143,226,c),
(130,207,o),
(117,189,o),
(107,168,c),
(105,164,o),
(103,160,o),
(100,157,c),
(89,145,o),
(74,142,o),
(62,149,c),
(50,156,o),
(45,170,o),
(50,185,c),
(53,192,o),
(56,199,o),
(60,205,c),
(68,221,o),
(78,235,o),
(88,250,c),
(121,299,o),
(160,344,o),
(199,388,c),
(229,420,o),
(259,453,o),
(286,488,c),
(302,507,o),
(317,526,o),
(328,548,c),
(334,560,o),
(339,571,o),
(340,584,c),
(340,598,o),
(335,602,o),
(322,601,c),
(310,599,o),
(299,595,o),
(288,591,c),
(237,568,o),
(194,535,o),
(157,493,c),
(151,487,o),
(148,481,o),
(154,472,c),
(161,460,o),
(157,446,o),
(146,437,c),
(133,425,o),
(113,422,o),
(98,430,c),
(85,437,o),
(78,456,o),
(81,473,c),
(82,483,o),
(85,492,o),
(90,500,c),
(95,510,o),
(100,519,o),
(107,527,c),
(154,581,o),
(210,624,o),
(277,650,c),
(289,655,o),
(301,658,o),
(314,660,c),
(363,667,o),
(400,635,o),
(399,585,c)
);
},
{
closed = 1;
nodes = (
(68,111,o),
(79,97,o),
(78,81,c),
(77,63,o),
(60,48,o),
(42,49,c),
(26,50,o),
(14,65,o),
(15,81,c),
(16,97,o),
(36,114,o),
(53,112,c)
);
}
);
width = 414;
}
);
unicode = 63;
},
{
glyphname = questiondown;
lastChange = "2022-09-28 07:45:31 +0000";
layers = (
{
layerId = m01;
shapes = (
{
closed = 1;
nodes = (
(15,146,o),
(22,166,o),
(31,185,c),
(44,211,o),
(61,233,o),
(78,255,c),
(109,294,o),
(143,331,o),
(176,368,c),
(210,405,o),
(242,443,o),
(271,484,c),
(284,503,o),
(297,521,o),
(307,542,c),
(309,546,o),
(312,550,o),
(314,553,c),
(325,565,o),
(340,568,o),
(352,561,c),
(364,554,o),
(369,540,o),
(364,525,c),
(362,518,o),
(358,512,o),
(355,505,c),
(347,489,o),
(337,475,o),
(327,460,c),
(293,411,o),
(255,366,o),
(215,322,c),
(185,290,o),
(156,257,o),
(128,222,c),
(113,203,o),
(98,184,o),
(86,162,c),
(80,151,o),
(75,139,o),
(75,126,c),
(74,112,o),
(79,108,o),
(93,109,c),
(104,111,o),
(115,115,o),
(126,119,c),
(177,142,o),
(221,175,o),
(258,217,c),
(264,223,o),
(266,229,o),
(261,238,c),
(253,250,o),
(258,264,o),
(268,273,c),
(282,285,o),
(302,288,o),
(316,280,c),
(329,273,o),
(337,254,o),
(334,237,c),
(332,227,o),
(329,218,o),
(324,210,c),
(319,200,o),
(314,191,o),
(307,183,c),
(260,129,o),
(205,86,o),
(137,60,c),
(125,55,o),
(113,52,o),
(101,50,c),
(52,43,o),
(15,75,o),
(15,125,c)
);
},
{
closed = 1;
nodes = (
(346,599,o),
(335,613,o),
(336,629,c),
(337,647,o),
(354,662,o),
(372,661,c),
(388,660,o),
(401,646,o),
(399,629,c),
(398,613,o),
(378,597,o),
(361,598,c)
);
}
);
width = 414;
}
);
unicode = 191;
},
{
glyphname = periodcentered;
lastChange = "2022-09-28 07:45:31 +0000";
layers = (
{
layerId = m01;
shapes = (
{
closed = 1;
nodes = (
(75,254,o),
(63,242,o),
(47,242,c),
(29,242,o),
(15,256,o),
(15,273,c),
(16,289,o),
(29,301,o),
(44,301,c),
(62,301,o),
(75,287,o),
(75,269,c)
);
}
);
width = 90;
}
);
unicode = 183;
},
{
glyphname = bullet;
lastChange = "2022-09-28 07:45:31 +0000";
layers = (
{
layerId = m01;
shapes = (
{
closed = 1;
nodes = (
(116,240,o),
(102,219,o),
(76,214,c),
(44,206,o),
(12,233,o),
(15,266,c),
(16,282,o),
(22,298,o),
(32,312,c),
(52,339,o),
(90,337,o),
(107,307,c),
(114,296,o),
(117,283,o),
(117,270,c)
);
}
);
width = 132;
}
);
unicode = 8226;
},
{
glyphname = asterisk;
lastChange = "2022-09-28 07:45:31 +0000";
layers = (
{
layerId = m01;
shapes = (
{
closed = 1;
nodes = (
(53,487,o),
(50,492,o),
(49,497,c),
(42,521,o),
(56,540,o),
(81,538,c),
(87,538,o),
(89,539,o),
(91,544,c),
(92,547,o),
(94,550,o),
(96,553,c),
(105,565,o),
(118,570,o),
(131,565,c),
(144,560,o),
(151,549,o),
(150,535,c),
(150,531,o),
(149,528,o),
(149,525,c),
(154,523,o),
(157,525,o),
(161,526,c),
(173,528,o),
(184,524,o),
(190,514,c),
(195,505,o),
(195,492,o),
(188,483,c),
(181,474,o),
(172,469,o),
(163,464,c),
(161,462,o),
(158,462,o),
(157,459,c),
(159,454,o),
(164,452,o),
(167,448,c),
(175,436,o),
(176,424,o),
(168,413,c),
(161,402,o),
(147,398,o),
(133,403,c),
(121,408,o),
(112,416,o),
(104,426,c),
(99,432,o),
(94,433,o),
(87,429,c),
(79,426,o),
(71,423,o),
(63,419,c),
(56,416,o),
(49,415,o),
(41,416,c),
(27,418,o),
(17,428,o),
(15,442,c),
(13,455,o),
(20,467,o),
(33,473,c),
(40,476,o),
(48,477,o),
(56,482,c)
);
}
);
width = 209;
}
);
unicode = 42;
},
{
glyphname = numbersign;
lastChange = "2022-09-28 07:45:31 +0000";
layers = (
{
layerId = m01;
shapes = (
{
closed = 1;
nodes = (
(180,281,o),
(168,274,o),
(165,257,c),
(188,256,o),
(188,256,o),
(198,279,c)
);
},
{
closed = 1;
nodes = (
(233,342,o),
(243,347,o),
(250,361,c),
(253,368,o),
(258,375,o),
(263,381,c),
(274,393,o),
(289,396,o),
(301,389,c),
(314,382,o),
(320,367,o),
(314,351,c),
(312,344,o),
(312,339,o),
(317,332,c),
(329,313,o),
(315,290,o),
(292,290,c),
(289,289,o),
(286,290,o),
(283,290,c),
(278,291,o),
(274,289,o),
(271,283,c),
(268,277,o),
(264,271,o),
(260,264,c),
(267,262,o),
(273,261,o),
(279,259,c),
(295,252,o),
(304,237,o),
(301,220,c),
(297,202,o),
(280,192,o),
(264,199,c),
(253,204,o),
(243,203,o),
(233,203,c),
(226,203,o),
(222,200,o),
(219,194,c),
(212,179,o),
(204,165,o),
(197,151,c),
(193,143,o),
(189,134,o),
(183,128,c),
(173,116,o),
(160,113,o),
(148,119,c),
(136,126,o),
(130,139,o),
(135,154,c),
(137,162,o),
(140,169,o),
(144,177,c),
(145,181,o),
(148,184,o),
(148,190,c),
(132,190,o),
(119,187,o),
(112,170,c),
(107,158,o),
(100,146,o),
(94,133,c),
(86,113,o),
(62,108,o),
(47,123,c),
(39,131,o),
(36,142,o),
(39,153,c),
(41,160,o),
(41,165,o),
(33,168,c),
(21,172,o),
(16,181,o),
(15,194,c),
(15,207,o),
(22,216,o),
(33,221,c),
(45,227,o),
(59,230,o),
(72,234,c),
(79,236,o),
(85,239,o),
(86,247,c),
(86,250,o),
(84,250,o),
(82,250,c),
(68,253,o),
(59,261,o),
(57,275,c),
(55,290,o),
(62,301,o),
(74,309,c),
(80,314,o),
(87,316,o),
(95,318,c),
(100,320,o),
(105,322,o),
(110,323,c),
(132,325,o),
(144,336,o),
(153,355,c),
(158,368,o),
(166,379,o),
(174,390,c),
(181,400,o),
(191,406,o),
(204,403,c),
(223,400,o),
(233,380,o),
(225,362,c),
(223,356,o),
(218,352,o),
(217,345,c)
);
}
);
width = 336;
}
);
unicode = 35;
},
{
glyphname = slash;
lastChange = "2022-09-28 07:45:31 +0000";
layers = (
{
layerId = m01;
shapes = (
{
closed = 1;
nodes = (
(15,159,o),
(18,167,o),
(21,176,c),
(36,218,o),
(56,258,o),
(77,298,c),
(120,381,o),
(167,462,o),
(212,545,c),
(216,552,o),
(219,559,o),
(218,567,c),
(217,577,o),
(223,586,o),
(229,593,c),
(241,606,o),
(252,618,o),
(263,632,c),
(274,645,o),
(290,648,o),
(303,639,c),
(316,630,o),
(320,613,o),
(311,598,c),
(293,568,o),
(275,538,o),
(259,508,c),
(213,421,o),
(163,337,o),
(119,249,c),
(105,221,o),
(91,193,o),
(79,163,c),
(77,156,o),
(75,149,o),
(73,142,c),
(67,122,o),
(56,114,o),
(40,116,c),
(24,118,o),
(14,131,o),
(15,150,c)
);
}
);
width = 331;
}
);
unicode = 47;
},
{
glyphname = backslash;
lastChange = "2022-09-28 07:45:31 +0000";
layers = (
{
layerId = m01;
shapes = (
{
closed = 1;
nodes = (
(66,642,o),
(86,623,o),
(80,604,c),
(79,599,o),
(79,595,o),
(81,590,c),
(124,485,o),
(163,355,o),
(205,250,c),
(216,221,o),
(229,193,o),
(244,165,c),
(245,163,o),
(247,161,o),
(248,158,c),
(254,143,o),
(250,127,o),
(236,119,c),
(223,112,o),
(206,116,o),
(197,130,c),
(186,146,o),
(178,164,o),
(170,182,c),
(144,237,o),
(124,294,o),
(104,352,c),
(81,417,o),
(51,505,o),
(26,569,c),
(21,580,o),
(17,591,o),
(15,602,c),
(12,624,o),
(28,643,o),
(48,642,c)
);
}
);
width = 266;
}
);
unicode = 92;
},
{
glyphname = periodcentered.loclCAT;
lastChange = "2022-09-28 07:45:31 +0000";
layers = (
{
layerId = m01;
shapes = (
{
closed = 1;
nodes = (
(63,311,o),
(75,297,o),
(75,278,c),
(75,260,o),
(62,247,o),
(45,247,c),
(28,248,o),
(15,262,o),
(15,281,c),
(16,299,o),
(28,312,o),
(46,311,c)
);
}
);
width = 90;
}
);
},
{
glyphname = periodcentered.loclCAT.case;
lastChange = "2022-09-28 07:45:31 +0000";
layers = (
{
layerId = m01;
shapes = (
{
closed = 1;
nodes = (
(75,273,o),
(73,264,o),
(68,257,c),
(59,245,o),
(44,241,o),
(31,248,c),
(18,254,o),
(12,269,o),
(16,283,c),
(18,290,o),
(22,295,o),
(26,300,c),
(35,310,o),
(46,313,o),
(57,309,c),
(69,305,o),
(75,295,o),
(75,281,c)
);
}
);
width = 90;
}
);
},
{
glyphname = hyphen;
lastChange = "2022-09-28 07:45:31 +0000";
layers = (
{
layerId = m01;
shapes = (
{
closed = 1;
nodes = (
(136,286,o),
(155,286,o),
(175,284,c),
(199,282,o),
(212,258,o),
(198,238,c),
(191,227,o),
(179,224,o),
(167,225,c),
(141,227,o),
(115,227,o),
(90,227,c),
(77,227,o),
(64,227,o),
(51,225,c),
(34,222,o),
(20,231,o),
(16,246,c),
(13,262,o),
(21,275,o),
(37,282,c),
(48,286,o),
(60,285,o),
(72,286,c),
(75,287,o),
(77,287,o),
(80,287,c),
(92,287,o),
(104,287,o),
(116,287,c),
(116,287,o),
(116,287,o),
(116,287,c)
);
}
);
width = 219;
}
);
unicode = 45;
},
{
glyphname = endash;
lastChange = "2022-09-28 07:45:31 +0000";
layers = (
{
layerId = m01;
shapes = (
{
closed = 1;
nodes = (
(314,234,o),
(296,219,o),
(278,224,c),
(262,229,o),
(246,230,o),
(229,230,c),
(177,230,o),
(124,229,o),
(71,226,c),
(65,226,o),
(59,225,o),
(53,223,c),
(40,219,o),
(27,224,o),
(20,235,c),
(13,246,o),
(14,259,o),
(23,270,c),
(29,278,o),
(38,283,o),
(48,284,c),
(75,287,o),
(101,287,o),
(128,288,c),
(168,290,o),
(207,290,o),
(247,289,c),
(259,289,o),
(270,288,o),
(281,286,c),
(300,283,o),
(313,269,o),
(313,253,c)
);
}
);
width = 328;
}
);
unicode = 8211;
},
{
glyphname = emdash;
lastChange = "2022-09-28 07:45:31 +0000";
layers = (
{
layerId = m01;
shapes = (
{
closed = 1;
nodes = (
(440,245,o),
(435,234,o),
(424,226,c),
(414,219,o),
(403,217,o),
(393,224,c),
(387,228,o),
(382,229,o),
(376,229,c),
(292,227,o),
(132,230,o),
(48,225,c),
(30,224,o),
(17,235,o),
(15,251,c),
(14,268,o),
(24,280,o),
(42,284,c),
(52,286,o),
(63,286,o),
(73,286,c),
(130,287,o),
(264,287,o),
(321,288,c),
(349,288,o),
(376,288,o),
(404,291,c),
(425,293,o),
(440,279,o),
(440,256,c)
);
}
);
width = 455;
}
);
unicode = 8212;
},
{
glyphname = underscore;
lastChange = "2022-09-28 07:45:31 +0000";
layers = (
{
layerId = m01;
shapes = (
{
closed = 1;
nodes = (
(180,146,l),
(211,146,o),
(241,146,o),
(272,146,c),
(279,146,o),
(286,146,o),
(293,144,c),
(307,139,o),
(315,128,o),
(316,113,c),
(316,98,o),
(308,86,o),
(294,80,c),
(286,77,o),
(278,77,o),
(270,82,c),
(265,85,o),
(261,86,o),
(256,86,c),
(203,85,o),
(149,88,o),
(96,86,c),
(82,85,o),
(67,85,o),
(53,79,c),
(42,75,o),
(30,79,o),
(22,88,c),
(14,98,o),
(13,111,o),
(20,122,c),
(26,132,o),
(34,138,o),
(45,140,c),
(61,144,o),
(77,145,o),
(93,145,c),
(122,146,o),
(151,146,o),
(180,146,c)
);
}
);
width = 331;
}
);
unicode = 95;
},
{
glyphname = parenleft;
lastChange = "2022-09-28 07:45:31 +0000";
layers = (
{
layerId = m01;
shapes = (
{
closed = 1;
nodes = (
(15,309,o),
(27,353,o),
(43,397,c),
(74,475,o),
(121,542,o),
(184,599,c),
(195,610,o),
(208,619,o),
(222,626,c),
(237,634,o),
(253,639,o),
(271,634,c),
(278,632,o),
(285,629,o),
(291,624,c),
(301,615,o),
(303,603,o),
(299,591,c),
(294,579,o),
(283,570,o),
(270,574,c),
(251,579,o),
(238,568,o),
(226,557,c),
(157,495,o),
(109,421,o),
(84,331,c),
(74,294,o),
(71,257,o),
(78,219,c),
(81,202,o),
(87,187,o),
(101,176,c),
(105,173,o),
(109,168,o),
(111,163,c),
(117,153,o),
(116,143,o),
(109,134,c),
(102,124,o),
(92,121,o),
(81,124,c),
(64,128,o),
(51,139,o),
(41,154,c),
(31,168,o),
(25,184,o),
(21,201,c),
(17,221,o),
(14,241,o),
(15,254,c)
);
}
);
width = 316;
}
);
unicode = 40;
},
{
glyphname = parenright;
lastChange = "2022-09-28 07:45:31 +0000";
layers = (
{
layerId = m01;
shapes = (
{
closed = 1;
nodes = (
(276,397,o),
(259,344,o),
(230,296,c),
(198,240,o),
(155,194,o),
(106,154,c),
(92,142,o),
(77,133,o),
(60,129,c),
(52,127,o),
(45,126,o),
(37,128,c),
(26,130,o),
(18,137,o),
(16,148,c),
(13,159,o),
(17,168,o),
(25,175,c),
(30,180,o),
(37,183,o),
(43,185,c),
(52,188,o),
(60,193,o),
(67,199,c),
(118,240,o),
(161,288,o),
(191,348,c),
(203,373,o),
(211,399,o),
(215,427,c),
(222,473,o),
(211,516,o),
(191,556,c),
(188,561,o),
(185,563,o),
(181,565,c),
(164,576,o),
(159,603,o),
(171,620,c),
(179,631,o),
(194,635,o),
(207,629,c),
(215,625,o),
(222,619,o),
(227,611,c),
(259,564,o),
(275,511,o),
(277,457,c)
);
}
);
width = 292;
}
);
unicode = 41;
},
{
glyphname = braceleft;
lastChange = "2022-09-28 07:45:31 +0000";
layers = (
{
layerId = m01;
shapes = (
{
closed = 1;
nodes = (
(56,329,o),
(48,330,o),
(39,332,c),
(25,336,o),
(15,347,o),
(15,361,c),
(15,374,o),
(24,385,o),
(38,390,c),
(48,392,o),
(58,395,o),
(67,397,c),
(96,404,o),
(116,421,o),
(130,447,c),
(143,470,o),
(152,495,o),
(160,520,c),
(167,542,o),
(174,563,o),
(184,584,c),
(194,604,o),
(206,622,o),
(224,637,c),
(231,643,o),
(239,648,o),
(249,649,c),
(268,652,o),
(284,640,o),
(288,620,c),
(291,601,o),
(279,584,o),
(261,582,c),
(253,581,o),
(248,577,o),
(245,570,c),
(237,557,o),
(231,543,o),
(226,529,c),
(217,504,o),
(209,479,o),
(199,454,c),
(187,423,o),
(171,393,o),
(144,370,c),
(141,367,o),
(140,364,o),
(142,360,c),
(154,341,o),
(152,322,o),
(146,302,c),
(141,287,o),
(135,273,o),
(129,258,c),
(123,244,o),
(116,230,o),
(111,215,c),
(107,205,o),
(104,195,o),
(101,184,c),
(99,179,o),
(96,173,o),
(101,170,c),
(105,167,o),
(109,172,o),
(113,174,c),
(120,177,o),
(125,181,o),
(132,184,c),
(143,189,o),
(155,186,o),
(162,178,c),
(170,169,o),
(171,158,o),
(165,147,c),
(151,118,o),
(107,101,o),
(77,113,c),
(54,122,o),
(40,143,o),
(39,168,c),
(38,183,o),
(42,198,o),
(47,212,c),
(53,234,o),
(62,255,o),
(72,276,c),
(77,289,o),
(82,301,o),
(87,314,c),
(92,329,o),
(92,330,o),
(75,330,c),
(72,330,o),
(68,330,o),
(65,330,c)
);
}
);
width = 303;
}
);
unicode = 123;
},
{
glyphname = braceright;
lastChange = "2022-09-28 07:45:31 +0000";
layers = (
{
layerId = m01;
shapes = (
{
closed = 1;
nodes = (
(131,320,o),
(120,319,o),
(110,322,c),
(87,329,o),
(74,347,o),
(74,370,c),
(73,380,o),
(76,390,o),
(79,400,c),
(87,428,o),
(100,454,o),
(114,479,c),
(126,501,o),
(138,521,o),
(147,544,c),
(151,554,o),
(155,565,o),
(156,577,c),
(157,582,o),
(155,585,o),
(149,586,c),
(130,589,o),
(121,599,o),
(121,615,c),
(121,631,o),
(134,645,o),
(151,648,c),
(173,652,o),
(194,642,o),
(206,622,c),
(217,602,o),
(218,581,o),
(214,559,c),
(210,539,o),
(202,520,o),
(193,501,c),
(180,476,o),
(166,450,o),
(152,424,c),
(146,411,o),
(139,397,o),
(136,383,c),
(140,379,o),
(143,382,o),
(146,383,c),
(160,387,o),
(172,394,o),
(184,401,c),
(189,404,o),
(193,407,o),
(198,409,c),
(218,417,o),
(239,403,o),
(239,381,c),
(239,374,o),
(237,366,o),
(233,360,c),
(208,323,o),
(192,282,o),
(175,241,c),
(167,222,o),
(159,203,o),
(148,186,c),
(130,154,o),
(104,129,o),
(70,114,c),
(51,106,o),
(35,109,o),
(24,124,c),
(16,134,o),
(14,146,o),
(16,158,c),
(19,173,o),
(33,182,o),
(48,177,c),
(57,175,o),
(63,177,o),
(69,182,c),
(80,191,o),
(89,202,o),
(96,214,c),
(115,247,o),
(127,283,o),
(144,320,c)
);
}
);
width = 254;
}
);
unicode = 125;
},
{
glyphname = bracketleft;
lastChange = "2022-09-28 07:45:31 +0000";
layers = (
{
layerId = m01;
shapes = (
{
closed = 1;
nodes = (
(85,172,o),
(91,176,o),
(98,178,c),
(105,182,o),
(113,185,o),
(121,186,c),
(133,188,o),
(143,183,o),
(149,173,c),
(155,163,o),
(154,150,o),
(145,142,c),
(119,117,o),
(88,106,o),
(52,115,c),
(31,121,o),
(18,139,o),
(16,162,c),
(14,179,o),
(17,197,o),
(20,214,c),
(33,278,o),
(54,339,o),
(77,399,c),
(101,462,o),
(126,524,o),
(150,586,c),
(152,591,o),
(154,597,o),
(155,603,c),
(155,624,o),
(166,638,o),
(186,641,c),
(216,646,o),
(246,647,o),
(276,646,c),
(282,646,o),
(289,644,o),
(295,641,c),
(307,635,o),
(313,623,o),
(311,610,c),
(308,598,o),
(299,589,o),
(286,588,c),
(281,587,o),
(277,587,o),
(272,587,c),
(257,587,o),
(241,585,o),
(226,585,c),
(216,585,o),
(212,582,o),
(208,573,c),
(188,519,o),
(167,465,o),
(146,411,c),
(125,359,o),
(105,306,o),
(90,251,c),
(85,233,o),
(81,214,o),
(77,195,c),
(76,188,o),
(74,181,o),
(76,173,c)
);
}
);
width = 326;
}
);
unicode = 91;
},
{
glyphname = bracketright;
lastChange = "2022-09-28 07:45:31 +0000";
layers = (
{
layerId = m01;
shapes = (
{
closed = 1;
nodes = (
(263,650,o),
(272,649,o),
(280,648,c),
(304,644,o),
(321,626,o),
(323,602,c),
(324,589,o),
(321,576,o),
(318,563,c),
(309,533,o),
(297,505,o),
(284,476,c),
(255,410,o),
(224,344,o),
(199,275,c),
(182,231,o),
(167,185,o),
(156,139,c),
(153,127,o),
(148,117,o),
(136,112,c),
(132,110,o),
(128,109,o),
(123,110,c),
(99,114,o),
(75,111,o),
(51,110,c),
(46,109,o),
(41,109,o),
(36,111,c),
(24,115,o),
(16,124,o),
(15,137,c),
(14,150,o),
(21,161,o),
(33,166,c),
(38,168,o),
(44,169,o),
(50,169,c),
(64,170,o),
(79,171,o),
(93,171,c),
(101,171,o),
(104,175,o),
(106,182,c),
(116,221,o),
(129,259,o),
(143,296,c),
(168,364,o),
(198,429,o),
(227,495,c),
(239,520,o),
(250,545,o),
(258,571,c),
(259,575,o),
(260,579,o),
(261,583,c),
(262,588,o),
(261,590,o),
(256,590,c),
(245,588,o),
(233,590,o),
(223,579,c),
(214,570,o),
(199,570,o),
(188,578,c),
(177,586,o),
(172,602,o),
(177,616,c),
(182,630,o),
(192,638,o),
(206,642,c),
(222,647,o),
(238,648,o),
(254,649,c)
);
}
);
width = 338;
}
);
unicode = 93;
},
{
glyphname = quotesinglbase;
lastChange = "2022-09-28 07:45:31 +0000";
layers = (
{
layerId = m01;
shapes = (
{
closed = 1;
nodes = (
(15,85,o),
(19,94,o),
(22,104,c),
(29,126,o),
(40,147,o),
(50,169,c),
(58,184,o),
(74,189,o),
(88,183,c),
(103,177,o),
(109,162,o),
(104,145,c),
(101,136,o),
(96,128,o),
(92,119,c),
(86,105,o),
(79,91,o),
(75,76,c),
(73,67,o),
(69,59,o),
(62,53,c),
(52,45,o),
(42,43,o),
(31,48,c),
(19,53,o),
(15,63,o),
(15,74,c)
);
}
);
width = 121;
}
);
unicode = 8218;
},
{
glyphname = quotedblbase;
lastChange = "2022-09-28 07:45:31 +0000";
layers = (
{
layerId = m01;
shapes = (
{
closed = 1;
nodes = (
(85,91,o),
(89,101,o),
(93,110,c),
(102,130,o),
(112,151,o),
(122,171,c),
(128,182,o),
(140,187,o),
(152,185,c),
(165,183,o),
(175,173,o),
(176,160,c),
(178,151,o),
(176,142,o),
(171,134,c),
(161,115,o),
(151,96,o),
(143,76,c),
(141,69,o),
(136,64,o),
(131,59,c),
(121,51,o),
(111,50,o),
(100,55,c),
(90,61,o),
(85,70,o),
(85,81,c)
);
},
{
closed = 1;
nodes = (
(92,185,o),
(106,165,o),
(99,145,c),
(95,135,o),
(90,125,o),
(86,115,c),
(80,101,o),
(76,87,o),
(73,73,c),
(68,58,o),
(59,50,o),
(45,50,c),
(31,50,o),
(18,61,o),
(16,77,c),
(15,81,o),
(15,86,o),
(16,91,c),
(22,118,o),
(32,144,o),
(45,169,c),
(50,180,o),
(60,185,o),
(70,186,c)
);
}
);
width = 192;
}
);
unicode = 8222;
},
{
glyphname = quotedblleft;
lastChange = "2022-09-28 07:45:31 +0000";
layers = (
{
layerId = m01;
shapes = (
{
closed = 1;
nodes = (
(176,679,o),
(185,674,o),
(190,664,c),
(195,654,o),
(196,643,o),
(189,634,c),
(174,615,o),
(164,594,o),
(152,573,c),
(149,568,o),
(145,562,o),
(141,558,c),
(129,548,o),
(116,547,o),
(105,555,c),
(93,562,o),
(89,576,o),
(94,589,c),
(97,596,o),
(100,602,o),
(104,608,c),
(113,625,o),
(123,642,o),
(133,659,c),
(140,671,o),
(150,679,o),
(159,679,c)
);
},
{
closed = 1;
nodes = (
(94,678,o),
(103,674,o),
(108,664,c),
(114,654,o),
(114,643,o),
(107,634,c),
(91,615,o),
(81,593,o),
(71,570,c),
(65,557,o),
(53,551,o),
(41,553,c),
(28,554,o),
(20,562,o),
(16,574,c),
(14,580,o),
(14,586,o),
(17,592,c),
(25,617,o),
(38,641,o),
(54,663,c),
(61,673,o),
(71,679,o),
(83,679,c)
);
}
);
width = 209;
}
);
unicode = 8220;
},
{
glyphname = quotedblright;
lastChange = "2022-09-28 07:45:31 +0000";
layers = (
{
layerId = m01;
shapes = (
{
closed = 1;
nodes = (
(203,636,o),
(200,627,o),
(192,621,c),
(185,616,o),
(180,609,o),
(176,602,c),
(166,587,o),
(157,572,o),
(148,557,c),
(142,548,o),
(135,540,o),
(124,536,c),
(113,533,o),
(103,535,o),
(95,543,c),
(87,551,o),
(85,561,o),
(89,571,c),
(90,576,o),
(93,580,o),
(95,584,c),
(109,609,o),
(125,633,o),
(141,658,c),
(145,664,o),
(150,670,o),
(156,674,c),
(166,680,o),
(177,681,o),
(188,675,c),
(199,669,o),
(203,659,o),
(204,646,c)
);
},
{
closed = 1;
nodes = (
(26,548,o),
(13,564,o),
(15,582,c),
(16,589,o),
(18,595,o),
(21,601,c),
(30,623,o),
(43,644,o),
(56,664,c),
(66,679,o),
(83,683,o),
(97,674,c),
(110,666,o),
(114,650,o),
(107,635,c),
(105,631,o),
(103,628,o),
(101,624,c),
(90,607,o),
(80,589,o),
(72,570,c),
(67,557,o),
(58,548,o),
(44,548,c)
);
}
);
width = 219;
}
);
unicode = 8221;
},
{
glyphname = quoteleft;
lastChange = "2022-09-28 07:45:31 +0000";
layers = (
{
layerId = m01;
shapes = (
{
closed = 1;
nodes = (
(117,641,o),
(115,635,o),
(111,629,c),
(97,607,o),
(83,585,o),
(70,563,c),
(63,550,o),
(51,546,o),
(38,549,c),
(26,551,o),
(17,561,o),
(15,574,c),
(15,581,o),
(17,588,o),
(20,594,c),
(33,619,o),
(49,643,o),
(64,666,c),
(72,678,o),
(86,682,o),
(99,677,c),
(111,672,o),
(118,661,o),
(117,647,c)
);
}
);
width = 132;
}
);
unicode = 8216;
},
{
glyphname = quoteright;
lastChange = "2022-09-28 07:45:31 +0000";
layers = (
{
layerId = m01;
shapes = (
{
closed = 1;
nodes = (
(15,571,o),
(17,577,o),
(20,583,c),
(33,614,o),
(52,641,o),
(73,668,c),
(82,680,o),
(98,682,o),
(111,674,c),
(123,667,o),
(128,652,o),
(122,638,c),
(120,632,o),
(117,627,o),
(113,622,c),
(98,602,o),
(84,581,o),
(74,558,c),
(71,551,o),
(66,545,o),
(59,540,c),
(49,534,o),
(39,533,o),
(29,539,c),
(19,545,o),
(14,554,o),
(15,568,c)
);
}
);
width = 140;
}
);
unicode = 8217;
},
{
glyphname = guillemetleft;
lastChange = "2022-09-28 07:45:31 +0000";
layers = (
{
layerId = m01;
shapes = (
{
closed = 1;
nodes = (
(262,310,o),
(277,299,o),
(294,291,c),
(296,290,o),
(298,289,o),
(301,288,c),
(316,280,o),
(323,266,o),
(318,252,c),
(314,238,o),
(298,230,o),
(282,233,c),
(272,235,o),
(263,239,o),
(255,244,c),
(237,255,o),
(219,267,o),
(201,279,c),
(194,283,o),
(162,302,o),
(161,313,c),
(159,325,o),
(164,335,o),
(173,342,c),
(201,364,o),
(229,385,o),
(257,406,c),
(258,407,o),
(259,407,o),
(261,408,c),
(278,418,o),
(299,413,o),
(307,397,c),
(315,382,o),
(308,361,o),
(290,353,c),
(275,346,o),
(263,334,o),
(249,324,c),
(248,323,o),
(248,322,o),
(247,320,c)
);
},
{
closed = 1;
nodes = (
(180,247,o),
(163,232,o),
(143,239,c),
(106,253,o),
(69,266,o),
(37,290,c),
(31,295,o),
(25,301,o),
(21,307,c),
(10,326,o),
(15,348,o),
(33,358,c),
(38,361,o),
(43,363,o),
(48,365,c),
(78,377,o),
(107,389,o),
(134,407,c),
(141,412,o),
(150,414,o),
(159,414,c),
(171,413,o),
(180,407,o),
(185,396,c),
(190,385,o),
(188,375,o),
(181,366,c),
(176,360,o),
(169,356,o),
(162,352,c),
(141,343,o),
(123,331,o),
(102,320,c),
(122,312,o),
(142,303,o),
(162,295,c),
(176,286,o),
(181,274,o),
(181,268,c)
);
}
);
width = 335;
}
);
unicode = 171;
},
{
glyphname = guillemetright;
lastChange = "2022-09-28 07:45:31 +0000";
layers = (
{
layerId = m01;
shapes = (
{
closed = 1;
nodes = (
(215,331,o),
(210,331,o),
(208,332,c),
(196,339,o),
(184,345,o),
(173,351,c),
(163,357,o),
(153,364,o),
(145,373,c),
(134,385,o),
(134,401,o),
(143,413,c),
(153,424,o),
(169,427,o),
(181,418,c),
(206,398,o),
(236,386,o),
(263,370,c),
(273,364,o),
(283,358,o),
(292,352,c),
(314,335,o),
(311,304,o),
(286,293,c),
(249,277,o),
(214,259,o),
(179,239,c),
(176,238,o),
(173,236,o),
(171,235,c),
(159,231,o),
(145,235,o),
(138,245,c),
(130,255,o),
(129,266,o),
(136,277,c),
(138,281,o),
(190,313,o),
(214,325,c)
);
},
{
closed = 1;
nodes = (
(60,253,o),
(56,251,o),
(51,250,c),
(37,247,o),
(22,254,o),
(17,268,c),
(12,281,o),
(17,296,o),
(30,304,c),
(36,307,o),
(42,309,o),
(48,311,c),
(63,317,o),
(78,323,o),
(93,332,c),
(80,341,o),
(65,344,o),
(52,348,c),
(47,350,o),
(42,350,o),
(37,352,c),
(26,358,o),
(20,369,o),
(22,381,c),
(23,393,o),
(30,401,o),
(41,406,c),
(47,408,o),
(53,409,o),
(59,407,c),
(86,401,o),
(113,392,o),
(136,376,c),
(144,370,o),
(150,364,o),
(156,357,c),
(169,338,o),
(168,318,o),
(153,302,c),
(149,298,o),
(92,263,o),
(64,254,c)
);
}
);
width = 322;
}
);
unicode = 187;
},
{
glyphname = guilsinglleft;
lastChange = "2022-09-28 07:45:31 +0000";
layers = (
{
layerId = m01;
shapes = (
{
closed = 1;
nodes = (
(16,327,o),
(20,337,o),
(29,345,c),
(45,359,o),
(60,373,o),
(75,386,c),
(96,404,o),
(116,421,o),
(135,439,c),
(141,444,o),
(146,449,o),
(154,452,c),
(167,457,o),
(180,453,o),
(189,442,c),
(196,432,o),
(196,418,o),
(188,407,c),
(185,404,o),
(182,402,o),
(179,399,c),
(152,373,o),
(123,349,o),
(94,324,c),
(76,309,o),
(77,314,o),
(88,293,c),
(91,286,o),
(94,279,o),
(98,273,c),
(102,266,o),
(107,259,o),
(113,254,c),
(126,245,o),
(129,231,o),
(123,219,c),
(117,206,o),
(103,200,o),
(87,204,c),
(76,206,o),
(67,213,o),
(61,222,c),
(41,247,o),
(29,276,o),
(17,306,c),
(16,309,o),
(16,312,o),
(15,314,c)
);
}
);
width = 209;
}
);
unicode = 8249;
},
{
glyphname = guilsinglright;
lastChange = "2022-09-28 07:45:31 +0000";
layers = (
{
layerId = m01;
shapes = (
{
closed = 1;
nodes = (
(33,197,o),
(25,202,o),
(19,211,c),
(14,221,o),
(14,231,o),
(19,240,c),
(21,243,o),
(24,247,o),
(27,249,c),
(57,278,o),
(86,308,o),
(118,335,c),
(129,344,o),
(129,344,o),
(123,357,c),
(117,373,o),
(110,390,o),
(104,406,c),
(100,414,o),
(98,423,o),
(99,432,c),
(100,446,o),
(110,457,o),
(123,459,c),
(136,461,o),
(150,454,o),
(155,441,c),
(165,410,o),
(179,380,o),
(191,349,c),
(198,334,o),
(195,322,o),
(182,311,c),
(146,281,o),
(111,249,o),
(78,215,c),
(69,206,o),
(59,198,o),
(44,197,c)
);
}
);
width = 210;
}
);
unicode = 8250;
},
{
glyphname = quotedbl;
lastChange = "2022-09-28 07:45:31 +0000";
layers = (
{
layerId = m01;
shapes = (
{
closed = 1;
nodes = (
(92,580,o),
(95,599,o),
(100,617,c),
(101,624,o),
(102,630,o),
(100,637,c),
(94,654,o),
(103,665,o),
(115,675,c),
(125,683,o),
(136,686,o),
(148,680,c),
(162,673,o),
(167,661,o),
(167,646,c),
(167,639,o),
(165,632,o),
(164,626,c),
(157,603,o),
(152,581,o),
(149,558,c),
(146,540,o),
(132,529,o),
(116,531,c),
(101,533,o),
(90,546,o),
(90,563,c)
);
},
{
closed = 1;
nodes = (
(17,603,o),
(22,632,o),
(32,661,c),
(39,679,o),
(54,687,o),
(70,682,c),
(86,676,o),
(94,660,o),
(88,641,c),
(82,623,o),
(78,605,o),
(76,586,c),
(75,580,o),
(75,575,o),
(76,569,c),
(79,552,o),
(71,538,o),
(56,534,c),
(42,530,o),
(23,540,o),
(17,555,c),
(15,561,o),
(14,567,o),
(15,574,c)
);
}
);
width = 182;
}
);
unicode = 34;
},
{
glyphname = quotesingle;
lastChange = "2022-09-28 07:45:31 +0000";
layers = (
{
layerId = m01;
shapes = (
{
closed = 1;
nodes = (
(19,605,o),
(26,634,o),
(37,661,c),
(43,677,o),
(59,685,o),
(73,683,c),
(93,679,o),
(103,659,o),
(94,640,c),
(83,618,o),
(78,595,o),
(75,571,c),
(72,549,o),
(61,538,o),
(43,539,c),
(26,540,o),
(15,555,o),
(15,577,c)
);
}
);
width = 112;
}
);
unicode = 39;
},
{
glyphname = at;
lastChange = "2022-09-28 07:45:31 +0000";
layers = (
{
layerId = m01;
shapes = (
{
closed = 1;
nodes = (
(166,230,o),
(167,230,o),
(168,230,c),
(210,251,o),
(236,286,o),
(260,324,c),
(262,327,o),
(260,331,o),
(255,330,c),
(251,329,o),
(247,327,o),
(243,325,c),
(224,315,o),
(208,301,o),
(194,285,c),
(180,269,o),
(169,251,o),
(162,229,c)
);
},
{
closed = 1;
nodes = (
(309,261,o),
(317,271,o),
(325,281,c),
(345,309,o),
(356,342,o),
(358,376,c),
(360,409,o),
(344,430,o),
(311,436,c),
(275,442,o),
(240,433,o),
(208,416,c),
(158,390,o),
(123,350,o),
(99,300,c),
(87,274,o),
(78,247,o),
(75,219,c),
(74,208,o),
(75,197,o),
(77,186,c),
(80,168,o),
(90,154,o),
(106,145,c),
(116,139,o),
(127,137,o),
(138,142,c),
(144,145,o),
(150,147,o),
(156,149,c),
(170,154,o),
(183,150,o),
(189,139,c),
(197,128,o),
(195,114,o),
(184,104,c),
(163,83,o),
(137,75,o),
(108,81,c),
(59,92,o),
(22,134,o),
(16,185,c),
(14,205,o),
(15,226,o),
(19,246,c),
(38,337,o),
(84,410,o),
(164,459,c),
(209,487,o),
(258,501,o),
(312,496,c),
(366,491,o),
(408,454,o),
(416,403,c),
(420,384,o),
(418,364,o),
(414,345,c),
(402,283,o),
(372,232,o),
(322,193,c),
(312,185,o),
(301,178,o),
(289,174,c),
(269,166,o),
(243,167,o),
(228,191,c),
(228,192,o),
(226,193,o),
(225,194,c),
(215,189,o),
(206,183,o),
(196,178,c),
(183,171,o),
(169,166,o),
(155,166,c),
(124,165,o),
(102,186,o),
(101,216,c),
(100,230,o),
(103,243,o),
(108,256,c),
(129,308,o),
(164,347,o),
(212,376,c),
(224,383,o),
(237,389,o),
(252,391,c),
(284,394,o),
(310,376,o),
(318,346,c),
(324,324,o),
(319,303,o),
(312,282,c),
(308,272,o),
(303,263,o),
(299,254,c)
);
}
);
width = 433;
}
);
unicode = 64;
},
{
glyphname = ampersand;
lastChange = "2022-09-28 07:45:31 +0000";
layers = (
{
layerId = m01;
shapes = (
{
closed = 1;
nodes = (
(99,216,o),
(103,216,o),
(104,221,c),
(104,222,o),
(103,224,o),
(102,224,c),
(97,224,o),
(96,221,o),
(94,216,c)
);
},
{
closed = 1;
nodes = (
(187,489,o),
(165,435,o),
(154,375,c),
(158,374,o),
(159,376,o),
(160,378,c),
(181,403,o),
(200,429,o),
(215,459,c),
(224,478,o),
(232,497,o),
(234,519,c),
(234,523,o),
(236,528,o),
(230,534,c)
);
},
{
closed = 1;
nodes = (
(165,250,o),
(168,253,o),
(171,254,c),
(191,260,o),
(208,246,o),
(206,226,c),
(205,213,o),
(198,203,o),
(189,195,c),
(180,188,o),
(180,188,o),
(186,179,c),
(191,170,o),
(197,162,o),
(206,157,c),
(219,148,o),
(223,134,o),
(217,121,c),
(212,108,o),
(199,102,o),
(184,104,c),
(174,105,o),
(166,111,o),
(158,118,c),
(148,127,o),
(141,139,o),
(134,150,c),
(127,162,o),
(127,162,o),
(113,158,c),
(95,152,o),
(76,148,o),
(57,152,c),
(19,161,o),
(4,194,o),
(25,227,c),
(36,245,o),
(51,261,o),
(67,276,c),
(75,284,o),
(85,292,o),
(90,301,c),
(95,311,o),
(91,323,o),
(91,334,c),
(93,412,o),
(116,483,o),
(162,546,c),
(173,562,o),
(186,576,o),
(202,586,c),
(217,596,o),
(233,602,o),
(251,597,c),
(274,591,o),
(290,570,o),
(293,542,c),
(296,519,o),
(292,496,o),
(285,474,c),
(275,442,o),
(259,413,o),
(240,385,c),
(218,353,o),
(193,322,o),
(165,293,c),
(155,283,o),
(152,273,o),
(157,260,c),
(158,257,o),
(158,254,o),
(159,250,c)
);
}
);
width = 309;
}
);
unicode = 38;
},
{
glyphname = paragraph;
lastChange = "2022-09-28 07:45:31 +0000";
layers = (
{
layerId = m01;
shapes = (
{
closed = 1;
nodes = (
(89,364,o),
(98,372,o),
(106,380,c),
(141,412,o),
(172,448,o),
(200,486,c),
(209,497,o),
(217,508,o),
(211,523,c),
(211,524,o),
(210,526,o),
(209,529,c),
(137,493,o),
(98,434,o),
(77,359,c)
);
},
{
closed = 1;
nodes = (
(162,352,o),
(159,348,o),
(155,344,c),
(141,331,o),
(127,319,o),
(112,308,c),
(102,302,o),
(91,296,o),
(80,293,c),
(46,283,o),
(19,302,o),
(16,337,c),
(14,351,o),
(15,365,o),
(19,379,c),
(41,456,o),
(83,519,o),
(150,564,c),
(165,574,o),
(180,582,o),
(198,586,c),
(218,591,o),
(238,589,o),
(255,577,c),
(264,572,o),
(268,573,o),
(274,580,c),
(278,585,o),
(284,588,o),
(291,589,c),
(312,594,o),
(329,581,o),
(332,560,c),
(333,549,o),
(331,538,o),
(327,528,c),
(320,505,o),
(310,485,o),
(299,465,c),
(270,413,o),
(239,362,o),
(213,309,c),
(205,293,o),
(198,278,o),
(190,262,c),
(180,238,o),
(170,214,o),
(164,188,c),
(160,172,o),
(150,165,o),
(136,165,c),
(123,166,o),
(112,175,o),
(109,191,c),
(106,201,o),
(108,211,o),
(111,220,c),
(121,253,o),
(135,284,o),
(150,315,c),
(156,328,o),
(162,341,o),
(169,355,c)
);
},
{
closed = 1;
nodes = (
(206,198,o),
(208,205,o),
(211,213,c),
(224,257,o),
(244,298,o),
(264,339,c),
(296,405,o),
(332,470,o),
(370,533,c),
(375,541,o),
(380,549,o),
(384,558,c),
(386,565,o),
(391,571,o),
(395,577,c),
(404,589,o),
(419,593,o),
(431,587,c),
(444,582,o),
(451,567,o),
(448,552,c),
(446,543,o),
(441,534,o),
(436,526,c),
(405,476,o),
(376,426,o),
(348,374,c),
(327,333,o),
(306,291,o),
(287,248,c),
(279,230,o),
(272,212,o),
(266,193,c),
(264,186,o),
(262,179,o),
(257,173,c),
(249,161,o),
(236,157,o),
(224,161,c),
(213,165,o),
(206,176,o),
(206,191,c)
);
}
);
width = 464;
}
);
unicode = 182;
},
{
glyphname = section;
lastChange = "2022-09-28 07:45:31 +0000";
layers = (
{
layerId = m01;
shapes = (
{
closed = 1;
nodes = (
(146,356,o),
(152,350,o),
(158,344,c),
(159,345,o),
(161,347,o),
(162,348,c),
(170,355,o),
(170,356,o),
(162,363,c),
(156,369,o),
(148,373,o),
(140,377,c),
(131,383,o),
(120,388,o),
(111,395,c),
(103,400,o),
(97,405,o),
(91,411,c),
(90,410,o),
(88,408,o),
(87,407,c),
(79,400,o),
(79,399,o),
(87,392,c),
(93,386,o),
(101,382,o),
(109,378,c),
(118,372,o),
(129,367,o),
(138,361,c)
);
},
{
closed = 1;
nodes = (
(198,406,o),
(215,390,o),
(224,368,c),
(234,341,o),
(219,313,o),
(193,305,c),
(189,304,o),
(185,304,o),
(181,304,c),
(186,288,o),
(187,270,o),
(183,252,c),
(178,221,o),
(158,192,o),
(128,173,c),
(115,164,o),
(101,159,o),
(85,156,c),
(56,152,o),
(30,167,o),
(20,195,c),
(16,205,o),
(7,255,o),
(32,279,c),
(35,283,o),
(38,286,o),
(42,288,c),
(56,298,o),
(72,296,o),
(81,284,c),
(90,273,o),
(89,253,o),
(76,244,c),
(58,225,o),
(73,207,o),
(87,212,c),
(89,213,o),
(126,234,o),
(130,266,c),
(134,287,o),
(127,304,o),
(108,316,c),
(96,324,o),
(84,330,o),
(71,337,c),
(51,349,o),
(34,365,o),
(25,388,c),
(15,414,o),
(30,443,o),
(56,450,c),
(60,451,o),
(64,452,o),
(68,452,c),
(63,468,o),
(62,485,o),
(66,503,c),
(71,534,o),
(91,564,o),
(121,583,c),
(134,591,o),
(148,597,o),
(164,599,c),
(193,603,o),
(219,588,o),
(229,560,c),
(233,550,o),
(242,500,o),
(217,476,c),
(214,473,o),
(211,470,o),
(207,467,c),
(193,458,o),
(177,459,o),
(168,471,c),
(159,482,o),
(160,502,o),
(173,512,c),
(191,531,o),
(176,548,o),
(162,543,c),
(160,543,o),
(123,522,o),
(119,489,c),
(115,468,o),
(122,451,o),
(141,439,c),
(153,432,o),
(165,425,o),
(178,418,c)
);
}
);
width = 249;
}
);
unicode = 167;
},
{
glyphname = copyright;
lastChange = "2022-09-28 07:45:31 +0000";
layers = (
{
layerId = m01;
shapes = (
{
closed = 1;
nodes = (
(67,290,o),
(68,276,o),
(72,262,c),
(83,224,o),
(114,205,o),
(152,214,c),
(178,219,o),
(200,233,o),
(220,250,c),
(273,295,o),
(305,352,o),
(320,420,c),
(325,444,o),
(327,467,o),
(322,492,c),
(316,522,o),
(288,549,o),
(260,551,c),
(255,552,o),
(251,551,o),
(247,548,c),
(232,536,o),
(215,540,o),
(199,541,c),
(198,541,o),
(197,541,o),
(197,542,c),
(191,547,o),
(186,545,o),
(181,541,c),
(176,536,o),
(170,532,o),
(165,527,c),
(103,466,o),
(73,390,o),
(67,304,c)
);
},
{
closed = 1;
nodes = (
(21,405,o),
(57,495,o),
(132,567,c),
(146,580,o),
(161,591,o),
(178,600,c),
(196,608,o),
(214,613,o),
(234,604,c),
(237,603,o),
(241,603,o),
(245,604,c),
(304,608,o),
(366,561,o),
(375,491,c),
(380,446,o),
(372,403,o),
(357,362,c),
(334,297,o),
(297,243,o),
(242,202,c),
(215,181,o),
(185,165,o),
(150,161,c),
(97,154,o),
(48,183,o),
(27,232,c),
(18,255,o),
(15,278,o),
(15,312,c)
);
},
{
closed = 1;
nodes = (
(186,432,o),
(180,424,o),
(175,415,c),
(161,392,o),
(150,367,o),
(145,340,c),
(144,334,o),
(143,327,o),
(144,320,c),
(145,309,o),
(151,305,o),
(162,308,c),
(170,309,o),
(176,313,o),
(183,318,c),
(191,323,o),
(199,329,o),
(208,335,c),
(213,339,o),
(218,341,o),
(225,340,c),
(242,339,o),
(251,321,o),
(243,306,c),
(240,300,o),
(235,295,o),
(231,291,c),
(213,274,o),
(194,261,o),
(170,256,c),
(132,249,o),
(101,270,o),
(93,308,c),
(90,323,o),
(91,338,o),
(94,352,c),
(105,399,o),
(125,440,o),
(156,476,c),
(167,489,o),
(179,500,o),
(193,508,c),
(202,513,o),
(210,517,o),
(220,517,c),
(246,519,o),
(267,500,o),
(266,473,c),
(266,458,o),
(261,443,o),
(252,430,c),
(247,424,o),
(241,419,o),
(234,416,c),
(216,408,o),
(201,416,o),
(196,435,c),
(196,436,o),
(195,438,o),
(194,441,c)
);
}
);
width = 391;
}
);
unicode = 169;
},
{
glyphname = registered;
lastChange = "2022-09-28 07:45:31 +0000";
layers = (
{
layerId = m01;
shapes = (
{
closed = 1;
nodes = (
(148,513,o),
(163,526,o),
(173,545,c),
(174,549,o),
(176,552,o),
(176,556,c),
(176,558,o),
(176,560,o),
(174,561,c),
(170,563,o),
(166,561,o),
(161,560,c),
(158,559,o),
(157,557,o),
(157,553,c),
(157,548,o),
(155,544,o),
(152,540,c),
(141,530,o),
(137,515,o),
(130,502,c)
);
},
{
closed = 1;
nodes = (
(64,405,o),
(70,402,o),
(84,404,c),
(102,407,o),
(117,416,o),
(132,427,c),
(122,432,o),
(114,439,o),
(105,445,c),
(101,439,o),
(98,434,o),
(94,428,c),
(84,414,o),
(76,411,o),
(59,418,c)
);
},
{
closed = 1;
nodes = (
(74,485,o),
(90,515,o),
(105,544,c),
(106,547,o),
(106,549,o),
(106,552,c),
(102,564,o),
(107,573,o),
(115,581,c),
(133,596,o),
(153,604,o),
(176,602,c),
(199,601,o),
(216,583,o),
(217,561,c),
(217,549,o),
(215,539,o),
(210,529,c),
(201,509,o),
(187,493,o),
(170,479,c),
(167,477,o),
(163,474,o),
(159,470,c),
(165,468,o),
(168,464,o),
(172,462,c),
(175,462,o),
(176,464,o),
(178,466,c),
(193,482,o),
(206,501,o),
(216,521,c),
(224,536,o),
(230,553,o),
(232,571,c),
(235,589,o),
(232,606,o),
(223,622,c),
(221,626,o),
(217,631,o),
(213,634,c),
(208,638,o),
(205,637,o),
(202,631,c),
(202,630,o),
(202,629,o),
(201,628,c),
(193,614,o),
(175,613,o),
(166,627,c),
(164,629,o),
(164,631,o),
(162,633,c),
(119,613,o),
(59,511,o),
(58,453,c)
);
},
{
closed = 1;
nodes = (
(274,558,o),
(268,536,o),
(259,515,c),
(231,454,o),
(185,408,o),
(126,376,c),
(115,370,o),
(104,366,o),
(91,364,c),
(53,358,o),
(23,379,o),
(16,417,c),
(13,438,o),
(15,459,o),
(20,480,c),
(34,533,o),
(56,582,o),
(91,625,c),
(102,639,o),
(116,652,o),
(131,663,c),
(140,668,o),
(149,673,o),
(159,675,c),
(161,676,o),
(163,676,o),
(165,677,c),
(173,678,o),
(181,673,o),
(189,674,c),
(196,674,o),
(204,678,o),
(212,677,c),
(224,676,o),
(233,671,o),
(242,663,c),
(255,651,o),
(263,636,o),
(268,620,c),
(272,607,o),
(274,595,o),
(274,580,c)
);
}
);
width = 289;
}
);
unicode = 174;
},
{
glyphname = trademark;
lastChange = "2022-09-28 07:45:31 +0000";
layers = (
{
layerId = m01;
shapes = (
{
closed = 1;
nodes = (
(227,633,o),
(231,637,o),
(235,640,c),
(246,650,o),
(258,660,o),
(271,669,c),
(275,672,o),
(279,675,o),
(284,676,c),
(295,680,o),
(307,672,o),
(308,660,c),
(308,656,o),
(307,651,o),
(306,647,c),
(303,639,o),
(299,631,o),
(295,624,c),
(283,602,o),
(268,581,o),
(256,559,c),
(251,551,o),
(242,548,o),
(235,552,c),
(227,557,o),
(224,566,o),
(228,575,c),
(233,583,o),
(237,590,o),
(242,598,c),
(243,601,o),
(245,603,o),
(247,607,c),
(244,606,o),
(243,605,o),
(241,603,c),
(234,596,o),
(226,589,o),
(219,582,c),
(214,578,o),
(208,576,o),
(201,577,c),
(192,579,o),
(187,584,o),
(187,593,c),
(187,598,o),
(188,604,o),
(189,609,c),
(186,610,o),
(186,607,o),
(185,606,c),
(177,592,o),
(169,578,o),
(161,565,c),
(159,561,o),
(158,557,o),
(155,554,c),
(150,548,o),
(142,547,o),
(135,550,c),
(129,554,o),
(126,561,o),
(128,569,c),
(128,571,o),
(130,573,o),
(131,575,c),
(145,600,o),
(159,624,o),
(173,649,c),
(175,653,o),
(179,657,o),
(182,660,c),
(190,667,o),
(200,668,o),
(208,661,c),
(214,656,o),
(218,649,o),
(220,642,c),
(221,638,o),
(221,634,o),
(222,629,c)
);
},
{
closed = 1;
nodes = (
(52,631,o),
(48,629,o),
(44,628,c),
(40,628,o),
(36,627,o),
(32,627,c),
(23,629,o),
(16,635,o),
(15,644,c),
(14,653,o),
(19,661,o),
(28,664,c),
(35,666,o),
(43,668,o),
(50,669,c),
(67,673,o),
(84,675,o),
(101,677,c),
(110,677,o),
(119,677,o),
(128,675,c),
(130,675,o),
(133,674,o),
(135,673,c),
(146,669,o),
(152,659,o),
(148,649,c),
(145,639,o),
(133,633,o),
(123,636,c),
(121,637,o),
(120,638,o),
(118,638,c),
(111,640,o),
(108,639,o),
(104,633,c),
(93,616,o),
(83,598,o),
(74,580,c),
(73,576,o),
(71,573,o),
(71,569,c),
(70,556,o),
(61,547,o),
(50,548,c),
(38,550,o),
(30,561,o),
(32,574,c),
(33,578,o),
(34,582,o),
(36,587,c),
(41,599,o),
(47,611,o),
(53,622,c),
(54,625,o),
(56,627,o),
(57,631,c)
);
}
);
width = 323;
}
);
unicode = 8482;
},
{
glyphname = degree;
lastChange = "2022-09-28 07:45:31 +0000";
layers = (
{
layerId = m01;
shapes = (
{
closed = 1;
nodes = (
(60,619,o),
(60,617,o),
(59,616,c),
(57,614,o),
(56,611,o),
(54,609,c),
(52,604,o),
(49,599,o),
(48,593,c),
(48,588,o),
(49,585,o),
(55,587,c),
(66,589,o),
(89,611,o),
(89,625,c),
(89,630,o),
(77,644,o),
(61,620,c)
);
},
{
closed = 1;
nodes = (
(25,551,o),
(15,561,o),
(15,576,c),
(15,579,o),
(15,583,o),
(15,586,c),
(22,611,o),
(34,633,o),
(51,650,c),
(57,656,o),
(64,660,o),
(70,661,c),
(73,662,o),
(77,663,o),
(81,668,c),
(84,674,o),
(90,677,o),
(96,677,c),
(100,677,o),
(105,675,o),
(110,671,c),
(115,665,o),
(119,658,o),
(120,646,c),
(120,645,o),
(120,644,o),
(120,643,c),
(120,642,o),
(120,641,o),
(120,640,c),
(120,640,l),
(120,630,o),
(118,619,o),
(112,609,c),
(101,588,o),
(85,571,o),
(63,558,c),
(58,555,o),
(52,553,o),
(45,551,c),
(43,551,o),
(41,551,o),
(39,551,c)
);
}
);
width = 135;
}
);
unicode = 176;
},
{
glyphname = bar;
lastChange = "2022-09-28 07:45:31 +0000";
layers = (
{
layerId = m01;
shapes = (
{
closed = 1;
nodes = (
(14,192,o),
(16,198,o),
(18,204,c),
(36,264,o),
(58,323,o),
(81,381,c),
(117,470,o),
(153,558,o),
(189,646,c),
(193,656,o),
(198,666,o),
(202,675,c),
(207,685,o),
(214,691,o),
(224,694,c),
(236,699,o),
(248,696,o),
(256,687,c),
(264,678,o),
(267,664,o),
(261,655,c),
(240,621,o),
(228,584,o),
(213,547,c),
(179,462,o),
(142,378,o),
(110,292,c),
(97,257,o),
(85,222,o),
(75,186,c),
(73,180,o),
(71,175,o),
(68,170,c),
(61,158,o),
(48,153,o),
(36,157,c),
(23,160,o),
(15,171,o),
(15,186,c)
);
}
);
width = 279;
}
);
unicode = 124;
},
{
glyphname = cent;
lastChange = "2022-09-28 07:45:31 +0000";
layers = (
{
layerId = m01;
shapes = (
{
closed = 1;
nodes = (
(131,443,o),
(74,311,o),
(88,264,c),
(96,265,o),
(104,270,o),
(111,274,c),
(123,283,o),
(133,292,o),
(143,303,c),
(149,309,o),
(154,315,o),
(160,320,c),
(172,330,o),
(185,331,o),
(196,323,c),
(207,315,o),
(210,302,o),
(204,288,c),
(200,280,o),
(195,272,o),
(189,265,c),
(173,247,o),
(155,231,o),
(134,219,c),
(123,213,o),
(112,207,o),
(101,202,c),
(96,199,o),
(94,196,o),
(92,192,c),
(85,180,o),
(79,167,o),
(75,153,c),
(74,147,o),
(72,142,o),
(68,137,c),
(60,124,o),
(47,119,o),
(33,124,c),
(20,129,o),
(13,142,o),
(15,157,c),
(19,175,o),
(25,194,o),
(34,210,c),
(39,219,o),
(39,225,o),
(34,234,c),
(23,254,o),
(23,278,o),
(27,300,c),
(39,374,o),
(68,442,o),
(117,499,c),
(129,513,o),
(142,525,o),
(158,535,c),
(164,538,o),
(167,543,o),
(170,549,c),
(179,569,o),
(189,587,o),
(200,605,c),
(203,609,o),
(207,614,o),
(211,618,c),
(225,631,o),
(245,631,o),
(256,619,c),
(268,606,o),
(267,584,o),
(254,572,c),
(243,563,o),
(237,550,o),
(230,538,c),
(228,533,o),
(228,530,o),
(231,525,c),
(241,509,o),
(241,492,o),
(240,474,c),
(238,452,o),
(231,431,o),
(225,410,c),
(222,397,o),
(211,390,o),
(198,389,c),
(186,389,o),
(175,396,o),
(170,408,c),
(167,417,o),
(168,427,o),
(170,436,c),
(173,449,o),
(179,460,o),
(179,474,c)
);
}
);
width = 279;
}
);
unicode = 162;
},
{
glyphname = dollar;
lastChange = "2022-09-28 07:45:31 +0000";
layers = (
{
layerId = m01;
shapes = (
{
closed = 1;
nodes = (
(124,296,o),
(117,304,o),
(112,313,c),
(103,327,o),
(94,342,o),
(87,358,c),
(73,390,o),
(70,423,o),
(80,456,c),
(92,501,o),
(113,540,o),
(148,571,c),
(162,584,o),
(178,595,o),
(197,600,c),
(203,602,o),
(206,605,o),
(209,610,c),
(213,618,o),
(218,625,o),
(222,632,c),
(225,638,o),
(228,643,o),
(233,647,c),
(243,656,o),
(258,657,o),
(269,650,c),
(280,642,o),
(285,628,o),
(279,614,c),
(275,605,o),
(270,597,o),
(265,588,c),
(262,584,o),
(261,580,o),
(264,575,c),
(277,551,o),
(274,525,o),
(268,499,c),
(263,477,o),
(254,456,o),
(242,437,c),
(233,421,o),
(217,416,o),
(202,423,c),
(188,431,o),
(182,447,o),
(190,463,c),
(197,480,o),
(207,495,o),
(210,513,c),
(211,517,o),
(212,521,o),
(212,525,c),
(213,533,o),
(204,539,o),
(197,534,c),
(191,530,o),
(186,526,o),
(181,521,c),
(159,498,o),
(145,470,o),
(137,440,c),
(131,417,o),
(135,395,o),
(145,374,c),
(151,361,o),
(160,349,o),
(167,336,c),
(175,325,o),
(182,312,o),
(186,299,c),
(193,272,o),
(183,248,o),
(160,234,c),
(147,226,o),
(133,222,o),
(118,222,c),
(109,222,o),
(104,219,o),
(101,211,c),
(90,190,o),
(78,169,o),
(73,145,c),
(69,129,o),
(56,120,o),
(41,122,c),
(26,124,o),
(16,136,o),
(15,152,c),
(15,159,o),
(16,166,o),
(18,173,c),
(25,193,o),
(34,213,o),
(45,232,c),
(48,239,o),
(48,243,o),
(42,248,c),
(32,258,o),
(24,270,o),
(21,284,c),
(19,298,o),
(26,311,o),
(39,315,c),
(49,319,o),
(59,316,o),
(67,309,c),
(72,305,o),
(76,299,o),
(80,295,c),
(92,281,o),
(109,278,o),
(127,286,c)
);
}
);
width = 297;
}
);
unicode = 36;
},
{
glyphname = euro;
lastChange = "2022-09-28 07:45:31 +0000";
layers = (
{
layerId = m01;
shapes = (
{
closed = 1;
nodes = (
(150,379,o),
(158,380,o),
(166,381,c),
(175,382,o),
(184,382,o),
(193,380,c),
(199,378,o),
(205,375,o),
(210,370,c),
(219,362,o),
(222,350,o),
(218,339,c),
(214,328,o),
(204,320,o),
(191,321,c),
(166,323,o),
(143,316,o),
(119,311,c),
(112,309,o),
(108,306,o),
(107,298,c),
(104,288,o),
(102,278,o),
(103,267,c),
(103,257,o),
(107,253,o),
(116,250,c),
(128,246,o),
(140,248,o),
(152,251,c),
(166,255,o),
(179,261,o),
(191,269,c),
(200,274,o),
(208,279,o),
(216,283,c),
(233,293,o),
(248,291,o),
(256,278,c),
(265,266,o),
(262,251,o),
(248,238,c),
(221,213,o),
(188,197,o),
(151,190,c),
(134,187,o),
(117,187,o),
(100,192,c),
(65,203,o),
(44,229,o),
(43,266,c),
(43,274,o),
(41,279,o),
(33,282,c),
(11,292,o),
(9,322,o),
(28,337,c),
(35,343,o),
(43,348,o),
(52,350,c),
(63,354,o),
(68,362,o),
(70,372,c),
(68,374,o),
(66,374,o),
(64,374,c),
(47,378,o),
(38,387,o),
(37,401,c),
(36,416,o),
(45,431,o),
(60,436,c),
(70,440,o),
(81,444,o),
(91,445,c),
(107,447,o),
(116,454,o),
(124,467,c),
(144,497,o),
(166,525,o),
(193,549,c),
(208,562,o),
(224,574,o),
(242,583,c),
(253,589,o),
(264,593,o),
(277,593,c),
(303,594,o),
(323,577,o),
(327,551,c),
(329,540,o),
(328,529,o),
(325,518,c),
(320,501,o),
(312,486,o),
(302,471,c),
(297,464,o),
(292,456,o),
(287,449,c),
(278,436,o),
(265,431,o),
(252,436,c),
(238,441,o),
(230,454,o),
(233,470,c),
(234,479,o),
(239,487,o),
(245,494,c),
(252,503,o),
(260,512,o),
(264,528,c),
(235,510,o),
(214,487,o),
(195,463,c),
(197,459,o),
(201,459,o),
(204,457,c),
(223,445,o),
(223,420,o),
(204,408,c),
(196,403,o),
(187,402,o),
(178,401,c),
(173,400,o),
(168,399,o),
(163,399,c),
(149,399,o),
(144,390,o),
(141,377,c)
);
}
);
width = 343;
}
);
unicode = 8364;
},
{
glyphname = sterling;
lastChange = "2022-09-28 07:45:31 +0000";
layers = (
{
layerId = m01;
shapes = (
{
closed = 1;
nodes = (
(162,386,o),
(170,387,o),
(178,388,c),
(183,388,o),
(187,389,o),
(192,388,c),
(203,387,o),
(211,382,o),
(215,371,c),
(218,361,o),
(216,351,o),
(208,344,c),
(198,333,o),
(185,329,o),
(172,328,c),
(160,326,o),
(148,325,o),
(136,324,c),
(128,323,o),
(123,320,o),
(120,312,c),
(116,300,o),
(111,287,o),
(105,273,c),
(115,275,o),
(123,276,o),
(132,278,c),
(145,280,o),
(159,279,o),
(172,275,c),
(180,273,o),
(188,269,o),
(194,263,c),
(203,253,o),
(204,239,o),
(197,228,c),
(191,217,o),
(178,210,o),
(166,215,c),
(148,222,o),
(131,218,o),
(113,213,c),
(95,208,o),
(77,203,o),
(60,193,c),
(48,185,o),
(34,187,o),
(24,196,c),
(14,206,o),
(11,220,o),
(20,233,c),
(34,255,o),
(42,280,o),
(52,303,c),
(55,309,o),
(56,313,o),
(47,316,c),
(33,321,o),
(25,334,o),
(27,347,c),
(30,361,o),
(40,372,o),
(55,372,c),
(77,372,o),
(86,382,o),
(93,402,c),
(105,434,o),
(119,466,o),
(135,497,c),
(146,517,o),
(159,537,o),
(175,555,c),
(182,562,o),
(190,569,o),
(199,573,c),
(222,584,o),
(245,574,o),
(254,551,c),
(257,542,o),
(259,533,o),
(258,524,c),
(256,493,o),
(244,466,o),
(228,440,c),
(218,425,o),
(198,423,o),
(184,435,c),
(182,437,o),
(180,441,o),
(175,442,c),
(167,424,o),
(159,406,o),
(150,385,c)
);
}
);
width = 273;
}
);
unicode = 163;
},
{
glyphname = yen;
lastChange = "2022-09-28 07:45:31 +0000";
layers = (
{
layerId = m01;
shapes = (
{
closed = 1;
nodes = (
(216,390,o),
(220,387,o),
(225,384,c),
(238,376,o),
(242,363,o),
(238,351,c),
(234,338,o),
(222,331,o),
(207,332,c),
(199,332,o),
(191,334,o),
(182,335,c),
(170,335,o),
(163,331,o),
(159,319,c),
(164,317,o),
(168,314,o),
(172,312,c),
(183,304,o),
(187,293,o),
(184,282,c),
(181,270,o),
(171,262,o),
(157,262,c),
(148,262,o),
(139,262,o),
(130,262,c),
(123,263,o),
(119,260,o),
(116,254,c),
(109,240,o),
(101,228,o),
(98,213,c),
(96,204,o),
(91,196,o),
(83,191,c),
(66,182,o),
(45,194,o),
(41,214,c),
(40,222,o),
(40,229,o),
(43,237,c),
(45,242,o),
(44,246,o),
(37,247,c),
(24,250,o),
(16,259,o),
(15,273,c),
(13,286,o),
(20,296,o),
(31,303,c),
(43,310,o),
(58,312,o),
(72,315,c),
(78,317,o),
(86,315,o),
(88,324,c),
(85,327,o),
(82,325,o),
(78,324,c),
(61,322,o),
(46,332,o),
(43,348,c),
(41,364,o),
(50,378,o),
(67,382,c),
(81,385,o),
(95,387,o),
(109,389,c),
(120,390,o),
(121,390,o),
(119,401,c),
(113,439,o),
(110,476,o),
(101,513,c),
(99,518,o),
(98,523,o),
(99,528,c),
(99,546,o),
(111,560,o),
(127,560,c),
(144,561,o),
(161,546,o),
(161,528,c),
(162,502,o),
(170,477,o),
(172,451,c),
(172,450,o),
(173,449,o),
(174,448,c),
(178,448,o),
(179,452,o),
(181,454,c),
(200,481,o),
(219,509,o),
(238,536,c),
(242,541,o),
(245,546,o),
(249,550,c),
(260,563,o),
(277,565,o),
(289,555,c),
(302,546,o),
(305,529,o),
(296,515,c),
(288,503,o),
(280,492,o),
(272,480,c),
(254,455,o),
(236,430,o),
(219,405,c),
(216,401,o),
(212,398,o),
(211,392,c)
);
}
);
width = 316;
}
);
unicode = 165;
},
{
glyphname = plus;
lastChange = "2022-09-28 07:45:31 +0000";
layers = (
{
layerId = m01;
shapes = (
{
closed = 1;
nodes = (
(52,341,o),
(46,341,o),
(41,342,c),
(25,345,o),
(14,357,o),
(15,372,c),
(15,387,o),
(26,399,o),
(43,400,c),
(54,402,o),
(65,402,o),
(76,402,c),
(83,402,o),
(87,405,o),
(89,411,c),
(95,425,o),
(101,439,o),
(107,453,c),
(110,460,o),
(114,467,o),
(120,473,c),
(130,482,o),
(144,483,o),
(155,477,c),
(167,470,o),
(172,457,o),
(169,443,c),
(167,438,o),
(165,433,o),
(162,428,c),
(157,421,o),
(154,414,o),
(152,405,c),
(163,404,o),
(173,403,o),
(183,401,c),
(189,400,o),
(195,399,o),
(201,397,c),
(217,391,o),
(224,374,o),
(218,359,c),
(212,344,o),
(194,334,o),
(180,340,c),
(165,346,o),
(149,343,o),
(134,344,c),
(127,345,o),
(124,341,o),
(122,336,c),
(116,319,o),
(110,303,o),
(104,286,c),
(101,278,o),
(98,269,o),
(92,262,c),
(83,253,o),
(73,251,o),
(61,254,c),
(51,257,o),
(44,267,o),
(43,279,c),
(43,289,o),
(45,297,o),
(48,306,c),
(51,317,o),
(55,328,o),
(59,340,c)
);
}
);
width = 235;
}
);
unicode = 43;
},
{
glyphname = minus;
lastChange = "2022-09-28 07:45:31 +0000";
layers = (
{
layerId = m01;
shapes = (
{
closed = 1;
nodes = (
(31,333,o),
(20,341,o),
(16,353,c),
(12,366,o),
(17,379,o),
(27,387,c),
(34,391,o),
(41,393,o),
(49,394,c),
(93,396,o),
(138,398,o),
(182,400,c),
(185,400,o),
(187,400,o),
(190,400,c),
(205,399,o),
(215,390,o),
(218,377,c),
(220,364,o),
(213,352,o),
(200,345,c),
(190,341,o),
(179,341,o),
(169,340,c),
(139,339,o),
(109,337,o),
(79,336,c),
(67,335,o),
(56,334,o),
(41,333,c)
);
}
);
width = 233;
}
);
unicode = 8722;
},
{
glyphname = multiply;
lastChange = "2022-09-28 07:45:31 +0000";
layers = (
{
layerId = m01;
shapes = (
{
closed = 1;
nodes = (
(106,299,o),
(89,289,o),
(75,274,c),
(70,268,o),
(63,263,o),
(56,260,c),
(44,256,o),
(31,258,o),
(23,268,c),
(14,277,o),
(13,291,o),
(19,303,c),
(23,309,o),
(28,314,o),
(34,319,c),
(53,333,o),
(71,348,o),
(89,361,c),
(96,367,o),
(98,371,o),
(94,379,c),
(88,390,o),
(84,401,o),
(75,411,c),
(66,423,o),
(64,439,o),
(67,454,c),
(73,474,o),
(98,481,o),
(114,467,c),
(119,463,o),
(123,457,o),
(126,450,c),
(131,440,o),
(136,430,o),
(141,419,c),
(148,403,o),
(146,404,o),
(161,414,c),
(185,432,o),
(210,449,o),
(235,467,c),
(240,471,o),
(245,474,o),
(251,476,c),
(262,481,o),
(272,478,o),
(281,471,c),
(290,464,o),
(292,454,o),
(290,442,c),
(289,436,o),
(286,431,o),
(281,427,c),
(278,425,o),
(276,423,o),
(273,421,c),
(242,399,o),
(212,378,o),
(182,356,c),
(172,349,o),
(172,349,o),
(178,337,c),
(183,326,o),
(189,316,o),
(197,306,c),
(201,301,o),
(204,296,o),
(206,289,c),
(211,270,o),
(198,253,o),
(178,255,c),
(169,255,o),
(161,260,o),
(154,266,c),
(147,272,o),
(142,280,o),
(138,287,c),
(133,295,o),
(129,303,o),
(123,313,c)
);
}
);
width = 306;
}
);
unicode = 215;
},
{
glyphname = divide;
lastChange = "2022-09-28 07:45:31 +0000";
layers = (
{
layerId = m01;
shapes = (
{
closed = 1;
nodes = (
(153,393,o),
(176,393,o),
(199,393,c),
(205,393,o),
(211,393,o),
(217,391,c),
(229,386,o),
(237,376,o),
(236,363,c),
(236,351,o),
(229,340,o),
(217,336,c),
(210,334,o),
(203,334,o),
(196,334,c),
(156,333,o),
(117,334,o),
(77,331,c),
(70,331,o),
(62,330,o),
(55,328,c),
(45,326,o),
(35,329,o),
(27,335,c),
(17,342,o),
(13,351,o),
(15,362,c),
(16,374,o),
(23,382,o),
(33,386,c),
(40,389,o),
(48,390,o),
(55,390,c),
(80,391,o),
(105,392,o),
(134,393,c)
);
},
{
closed = 1;
nodes = (
(108,420,o),
(93,434,o),
(93,451,c),
(93,467,o),
(107,480,o),
(123,480,c),
(142,480,o),
(157,466,o),
(157,449,c),
(157,433,o),
(143,420,o),
(127,420,c)
);
},
{
closed = 1;
nodes = (
(142,268,o),
(126,253,o),
(108,253,c),
(91,253,o),
(78,266,o),
(78,283,c),
(78,299,o),
(94,314,o),
(112,314,c),
(128,314,o),
(142,301,o),
(142,285,c)
);
}
);
width = 251;
}
);
unicode = 247;
},
{
glyphname = equal;
lastChange = "2022-09-28 07:45:31 +0000";
layers = (
{
layerId = m01;
shapes = (
{
closed = 1;
nodes = (
(234,394,o),
(228,385,o),
(217,378,c),
(207,372,o),
(196,371,o),
(186,379,c),
(180,383,o),
(174,385,o),
(167,385,c),
(136,384,o),
(105,385,o),
(75,381,c),
(70,381,o),
(64,379,o),
(59,378,c),
(44,375,o),
(31,382,o),
(25,395,c),
(19,408,o),
(24,423,o),
(37,432,c),
(44,437,o),
(53,439,o),
(62,440,c),
(106,445,o),
(149,445,o),
(193,443,c),
(217,442,o),
(230,432,o),
(233,412,c),
(234,411,o),
(234,409,o),
(234,407,c)
);
},
{
closed = 1;
nodes = (
(106,296,o),
(79,295,o),
(52,290,c),
(35,286,o),
(21,294,o),
(16,310,c),
(12,324,o),
(19,339,o),
(35,346,c),
(46,350,o),
(57,351,o),
(68,353,c),
(104,356,o),
(142,357,o),
(179,353,c),
(197,352,o),
(209,339,o),
(209,322,c),
(208,306,o),
(195,294,o),
(176,294,c),
(169,294,o),
(162,295,o),
(155,295,c),
(148,296,o),
(141,295,o),
(134,295,c)
);
}
);
width = 249;
}
);
unicode = 61;
},
{
glyphname = greater;
lastChange = "2022-09-28 07:45:31 +0000";
layers = (
{
layerId = m01;
shapes = (
{
closed = 1;
nodes = (
(133,372,o),
(128,374,o),
(124,376,c),
(110,387,o),
(96,396,o),
(83,406,c),
(74,412,o),
(67,419,o),
(61,428,c),
(55,436,o),
(53,446,o),
(55,456,c),
(57,469,o),
(65,479,o),
(77,482,c),
(89,484,o),
(102,480,o),
(108,469,c),
(114,456,o),
(125,449,o),
(135,441,c),
(151,430,o),
(167,420,o),
(181,407,c),
(188,402,o),
(194,396,o),
(199,389,c),
(212,371,o),
(211,350,o),
(195,334,c),
(188,327,o),
(179,321,o),
(169,316,c),
(134,297,o),
(98,278,o),
(63,257,c),
(56,253,o),
(48,250,o),
(40,251,c),
(29,253,o),
(20,259,o),
(17,270,c),
(13,282,o),
(15,292,o),
(24,301,c),
(28,305,o),
(33,308,o),
(38,311,c),
(65,328,o),
(93,343,o),
(121,358,c),
(126,360,o),
(131,362,o),
(135,366,c)
);
}
);
width = 223;
}
);
unicode = 62;
},
{
glyphname = less;
lastChange = "2022-09-28 07:45:31 +0000";
layers = (
{
layerId = m01;
shapes = (
{
closed = 1;
nodes = (
(112,335,o),
(131,324,o),
(152,316,c),
(155,314,o),
(158,315,o),
(161,315,c),
(176,316,o),
(187,309,o),
(190,297,c),
(194,284,o),
(189,268,o),
(178,261,c),
(169,255,o),
(159,252,o),
(149,255,c),
(141,256,o),
(134,258,o),
(127,261,c),
(95,275,o),
(65,293,o),
(36,313,c),
(32,317,o),
(28,321,o),
(24,325,c),
(11,341,o),
(12,362,o),
(27,377,c),
(35,385,o),
(46,391,o),
(57,397,c),
(94,416,o),
(130,439,o),
(164,464,c),
(169,468,o),
(175,472,o),
(181,475,c),
(197,483,o),
(214,479,o),
(222,465,c),
(231,451,o),
(227,435,o),
(211,424,c),
(174,398,o),
(137,372,o),
(97,351,c),
(96,350,o),
(95,349,o),
(92,347,c)
);
}
);
width = 242;
}
);
unicode = 60;
},
{
glyphname = plusminus;
lastChange = "2022-09-28 07:45:31 +0000";
layers = (
{
layerId = m01;
shapes = (
{
closed = 1;
nodes = (
(107,357,o),
(102,357,o),
(96,358,c),
(80,361,o),
(70,374,o),
(71,389,c),
(71,404,o),
(82,415,o),
(98,417,c),
(109,418,o),
(120,418,o),
(131,418,c),
(138,419,o),
(142,422,o),
(145,428,c),
(150,442,o),
(157,456,o),
(163,470,c),
(166,477,o),
(170,484,o),
(176,489,c),
(186,498,o),
(200,500,o),
(211,493,c),
(223,487,o),
(228,473,o),
(224,460,c),
(223,454,o),
(221,449,o),
(218,445,c),
(213,438,o),
(210,431,o),
(208,422,c),
(219,420,o),
(229,419,o),
(239,418,c),
(245,417,o),
(251,416,o),
(257,414,c),
(272,407,o),
(279,391,o),
(273,375,c),
(268,360,o),
(250,351,o),
(236,356,c),
(220,362,o),
(205,360,o),
(190,361,c),
(183,361,o),
(180,358,o),
(178,352,c),
(172,336,o),
(165,319,o),
(160,303,c),
(157,294,o),
(153,286,o),
(147,279,c),
(139,270,o),
(129,267,o),
(117,271,c),
(107,274,o),
(100,284,o),
(99,296,c),
(98,305,o),
(101,314,o),
(103,323,c),
(107,334,o),
(111,344,o),
(115,357,c)
);
},
{
closed = 1;
nodes = (
(31,195,o),
(20,203,o),
(16,216,c),
(12,228,o),
(17,241,o),
(28,249,c),
(34,253,o),
(41,255,o),
(49,256,c),
(93,258,o),
(138,260,o),
(182,262,c),
(185,262,o),
(187,262,o),
(190,262,c),
(205,261,o),
(215,252,o),
(218,239,c),
(220,226,o),
(213,214,o),
(200,208,c),
(190,203,o),
(180,203,o),
(169,202,c),
(139,201,o),
(109,199,o),
(79,198,c),
(67,197,o),
(56,196,o),
(41,195,c)
);
}
);
width = 290;
}
);
unicode = 177;
},
{
glyphname = asciitilde;
lastChange = "2022-09-28 07:45:31 +0000";
layers = (
{
layerId = m01;
shapes = (
{
closed = 1;
nodes = (
(86,349,o),
(78,344,o),
(75,331,c),
(71,318,o),
(57,310,o),
(44,312,c),
(30,313,o),
(17,327,o),
(16,342,c),
(14,353,o),
(18,363,o),
(25,372,c),
(44,395,o),
(68,412,o),
(97,422,c),
(119,429,o),
(139,419,o),
(148,397,c),
(152,389,o),
(153,381,o),
(156,371,c),
(174,378,o),
(190,389,o),
(204,401,c),
(207,403,o),
(209,406,o),
(212,408,c),
(223,416,o),
(238,416,o),
(248,408,c),
(259,399,o),
(262,385,o),
(256,372,c),
(253,366,o),
(249,360,o),
(243,356,c),
(223,339,o),
(201,325,o),
(177,315,c),
(170,312,o),
(163,311,o),
(156,310,c),
(136,306,o),
(116,316,o),
(106,334,c),
(102,340,o),
(100,347,o),
(96,355,c)
);
}
);
width = 274;
}
);
unicode = 126;
},
{
glyphname = asciicircum;
lastChange = "2022-09-28 07:45:31 +0000";
layers = (
{
layerId = m01;
shapes = (
{
closed = 1;
nodes = (
(118,571,o),
(117,567,o),
(115,565,c),
(105,554,o),
(95,543,o),
(86,533,c),
(79,526,o),
(74,519,o),
(70,511,c),
(63,498,o),
(51,493,o),
(38,495,c),
(25,498,o),
(16,509,o),
(15,523,c),
(14,533,o),
(16,542,o),
(22,550,c),
(24,552,o),
(26,555,o),
(28,557,c),
(64,596,o),
(99,638,o),
(133,679,c),
(137,683,o),
(140,687,o),
(144,691,c),
(155,701,o),
(168,702,o),
(181,698,c),
(194,693,o),
(200,682,o),
(202,669,c),
(205,653,o),
(202,637,o),
(198,621,c),
(191,590,o),
(182,559,o),
(177,527,c),
(177,526,o),
(176,525,o),
(176,525,c),
(171,507,o),
(159,497,o),
(144,499,c),
(128,501,o),
(118,514,o),
(118,533,c),
(119,541,o),
(121,550,o),
(122,558,c),
(123,562,o),
(125,566,o),
(123,571,c)
);
}
);
width = 218;
}
);
unicode = 94;
},
{
glyphname = percent;
lastChange = "2022-09-28 07:45:31 +0000";
layers = (
{
layerId = m01;
shapes = (
{
closed = 1;
nodes = (
(15,188,o),
(17,195,o),
(20,201,c),
(26,215,o),
(33,228,o),
(40,241,c),
(62,279,o),
(86,315,o),
(111,351,c),
(167,431,o),
(225,510,o),
(284,589,c),
(287,594,o),
(291,600,o),
(296,604,c),
(309,614,o),
(324,614,o),
(334,604,c),
(344,594,o),
(344,579,o),
(334,567,c),
(258,470,o),
(187,370,o),
(118,268,c),
(99,238,o),
(79,208,o),
(65,176,c),
(63,171,o),
(60,167,o),
(57,164,c),
(49,155,o),
(39,153,o),
(29,157,c),
(20,161,o),
(15,169,o),
(15,181,c)
);
},
{
closed = 1;
nodes = (
(105,506,o),
(125,527,o),
(127,543,c),
(122,541,o),
(116,538,o),
(111,538,c),
(108,538,o),
(106,538,o),
(105,536,c),
(96,524,o),
(89,512,o),
(84,497,c)
);
},
{
closed = 1;
nodes = (
(45,437,o),
(28,453,o),
(27,477,c),
(27,482,o),
(27,488,o),
(28,493,c),
(36,527,o),
(52,556,o),
(75,581,c),
(81,587,o),
(88,592,o),
(96,595,c),
(100,596,o),
(102,597,o),
(105,600,c),
(118,612,o),
(133,613,o),
(149,607,c),
(172,598,o),
(186,574,o),
(184,548,c),
(182,533,o),
(178,520,o),
(170,508,c),
(152,478,o),
(126,456,o),
(94,442,c),
(86,439,o),
(77,437,o),
(68,437,c)
);
},
{
closed = 1;
nodes = (
(236,221,o),
(248,234,o),
(255,251,c),
(255,253,o),
(255,255,o),
(255,257,c),
(256,261,o),
(254,264,o),
(248,262,c),
(246,261,o),
(244,261,o),
(243,260,c),
(230,246,o),
(223,231,o),
(220,212,c)
);
},
{
closed = 1;
nodes = (
(307,247,o),
(306,237,o),
(302,228,c),
(289,200,o),
(269,178,o),
(242,163,c),
(233,159,o),
(224,156,o),
(215,155,c),
(190,153,o),
(171,168,o),
(166,192,c),
(165,202,o),
(165,212,o),
(167,221,c),
(175,255,o),
(190,285,o),
(217,307,c),
(219,309,o),
(221,310,o),
(222,312,c),
(232,326,o),
(245,327,o),
(261,323,c),
(288,316,o),
(307,289,o),
(308,258,c)
);
}
);
width = 356;
}
);
unicode = 37;
},
{
glyphname = perthousand;
lastChange = "2022-09-28 07:45:31 +0000";
layers = (
{
layerId = m01;
shapes = (
{
closed = 1;
nodes = (
(15,188,o),
(17,195,o),
(20,201,c),
(25,215,o),
(33,228,o),
(40,241,c),
(62,279,o),
(86,315,o),
(111,351,c),
(167,431,o),
(225,510,o),
(283,589,c),
(287,594,o),
(291,600,o),
(296,604,c),
(309,614,o),
(324,614,o),
(334,604,c),
(344,594,o),
(344,579,o),
(334,567,c),
(258,470,o),
(187,370,o),
(118,268,c),
(99,238,o),
(79,208,o),
(65,176,c),
(63,171,o),
(60,167,o),
(57,164,c),
(49,155,o),
(39,153,o),
(29,157,c),
(20,161,o),
(15,169,o),
(15,181,c)
);
},
{
closed = 1;
nodes = (
(105,506,o),
(125,527,o),
(127,543,c),
(122,541,o),
(116,538,o),
(111,538,c),
(108,538,o),
(106,538,o),
(105,536,c),
(96,524,o),
(89,512,o),
(84,497,c)
);
},
{
closed = 1;
nodes = (
(44,437,o),
(28,453,o),
(27,477,c),
(26,482,o),
(27,488,o),
(28,493,c),
(36,527,o),
(52,556,o),
(75,581,c),
(81,587,o),
(88,592,o),
(96,595,c),
(100,596,o),
(102,597,o),
(105,600,c),
(118,612,o),
(133,613,o),
(149,607,c),
(172,598,o),
(186,574,o),
(184,548,c),
(182,533,o),
(178,520,o),
(170,508,c),
(152,478,o),
(126,456,o),
(94,442,c),
(85,439,o),
(77,437,o),
(68,437,c)
);
},
{
closed = 1;
nodes = (
(236,221,o),
(248,234,o),
(255,251,c),
(255,253,o),
(255,255,o),
(255,257,c),
(255,261,o),
(254,264,o),
(248,262,c),
(246,261,o),
(244,261,o),
(243,260,c),
(230,246,o),
(222,231,o),
(220,212,c)
);
},
{
closed = 1;
nodes = (
(307,247,o),
(306,237,o),
(302,228,c),
(289,200,o),
(269,178,o),
(242,163,c),
(233,159,o),
(224,156,o),
(214,155,c),
(190,153,o),
(171,168,o),
(166,192,c),
(164,202,o),
(165,212,o),
(167,221,c),
(175,255,o),
(190,285,o),
(217,307,c),
(219,309,o),
(220,310,o),
(222,312,c),
(232,326,o),
(245,327,o),
(260,323,c),
(288,316,o),
(307,289,o),
(307,258,c)
);
},
{
closed = 1;
nodes = (
(397,221,o),
(409,234,o),
(415,251,c),
(415,253,o),
(416,255,o),
(416,257,c),
(416,261,o),
(414,264,o),
(409,262,c),
(407,261,o),
(404,261,o),
(403,260,c),
(390,246,o),
(383,231,o),
(380,212,c)
);
},
{
closed = 1;
nodes = (
(468,247,o),
(466,237,o),
(462,228,c),
(449,200,o),
(429,178,o),
(402,163,c),
(394,159,o),
(384,156,o),
(375,155,c),
(350,153,o),
(331,168,o),
(326,192,c),
(325,202,o),
(325,212,o),
(327,221,c),
(335,255,o),
(350,285,o),
(377,307,c),
(379,309,o),
(381,310,o),
(382,312,c),
(392,326,o),
(406,327,o),
(421,323,c),
(448,316,o),
(467,289,o),
(468,258,c)
);
}
);
width = 483;
}
);
unicode = 8240;
},
{
glyphname = dieresiscomb;
lastChange = "2022-09-28 17:28:29 +0000";
layers = (
{
anchors = (
{
name = _top;
pos = (50,427);
},
{
name = top;
pos = (50,425);
}
);
layerId = m01;
shapes = (
{
closed = 1;
nodes = (
(92,452,o),
(83,444,o),
(74,444,c),
(64,445,o),
(57,452,o),
(57,462,c),
(58,472,o),
(66,479,o),
(77,479,c),
(86,479,o),
(93,472,o),
(92,463,c)
);
},
{
closed = 1;
nodes = (
(23,445,o),
(15,453,o),
(15,462,c),
(16,472,o),
(23,479,o),
(33,479,c),
(43,479,o),
(50,471,o),
(50,461,c),
(49,452,o),
(42,444,o),
(32,445,c)
);
}
);
width = 107;
}
);
unicode = 776;
},
{
glyphname = dotaccentcomb;
lastChange = "2022-09-28 17:28:52 +0000";
layers = (
{
anchors = (
{
name = _top;
pos = (31,425);
},
{
name = top;
pos = (30,425);
}
);
layerId = m01;
shapes = (
{
closed = 1;
nodes = (
(22,445,o),
(15,453,o),
(15,462,c),
(15,472,o),
(23,479,o),
(33,479,c),
(42,478,o),
(49,470,o),
(49,461,c),
(49,451,o),
(41,444,o),
(31,445,c)
);
}
);
width = 64;
}
);
unicode = 775;
},
{
glyphname = gravecomb;
lastChange = "2022-09-28 17:29:31 +0000";
layers = (
{
anchors = (
{
name = _top;
pos = (55,419);
},
{
name = top;
pos = (55,419);
}
);
layerId = m01;
shapes = (
{
closed = 1;
nodes = (
(69,434,o),
(56,426,o),
(45,432,c),
(41,434,o),
(38,437,o),
(36,441,c),
(31,449,o),
(25,458,o),
(19,465,c),
(13,472,o),
(14,482,o),
(20,488,c),
(26,494,o),
(36,496,o),
(42,490,c),
(55,479,o),
(63,465,o),
(69,450,c),
(69,449,o),
(69,448,o),
(69,447,c)
);
}
);
width = 84;
}
);
unicode = 768;
},
{
glyphname = acutecomb;
lastChange = "2022-09-28 17:29:25 +0000";
layers = (
{
anchors = (
{
name = _top;
pos = (26,422);
},
{
name = top;
pos = (27,423);
}
);
layerId = m01;
shapes = (
{
closed = 1;
nodes = (
(19,431,o),
(12,444,o),
(17,455,c),
(18,458,o),
(21,461,o),
(23,463,c),
(32,472,o),
(41,480,o),
(51,487,c),
(61,495,o),
(70,494,o),
(77,487,c),
(83,480,o),
(82,470,o),
(74,462,c),
(64,452,o),
(53,443,o),
(43,434,c),
(40,432,o),
(36,431,o),
(34,431,c)
);
}
);
width = 96;
}
);
unicode = 769;
},
{
glyphname = hungarumlautcomb;
lastChange = "2022-09-28 17:29:39 +0000";
layers = (
{
anchors = (
{
name = _top;
pos = (53,419);
},
{
name = top;
pos = (53,418);
}
);
layerId = m01;
shapes = (
{
closed = 1;
nodes = (
(55,446,o),
(50,441,o),
(46,436,c),
(42,433,o),
(38,430,o),
(32,430,c),
(20,430,o),
(12,442,o),
(16,454,c),
(18,458,o),
(20,460,o),
(23,463,c),
(31,472,o),
(40,481,o),
(48,489,c),
(51,492,o),
(54,495,o),
(58,496,c),
(64,499,o),
(70,497,o),
(75,493,c),
(80,489,o),
(82,483,o),
(80,476,c),
(78,473,o),
(77,470,o),
(76,466,c),
(84,471,o),
(90,477,o),
(96,484,c),
(99,486,o),
(102,489,o),
(105,491,c),
(111,495,o),
(119,494,o),
(124,490,c),
(129,486,o),
(132,479,o),
(129,472,c),
(128,466,o),
(124,462,o),
(120,458,c),
(111,449,o),
(101,440,o),
(91,432,c),
(84,426,o),
(77,424,o),
(69,428,c),
(61,433,o),
(59,440,o),
(61,449,c),
(61,449,o),
(61,450,o),
(61,451,c)
);
}
);
width = 145;
}
);
unicode = 779;
},
{
glyphname = caroncomb.alt;
lastChange = "2022-09-28 17:29:49 +0000";
layers = (
{
anchors = (
{
name = _topright;
pos = (18,413);
}
);
layerId = m01;
shapes = (
{
closed = 1;
nodes = (
(64,475,o),
(63,471,o),
(61,467,c),
(58,459,o),
(54,450,o),
(50,442,c),
(49,438,o),
(47,435,o),
(44,432,c),
(38,426,o),
(31,425,o),
(24,428,c),
(18,431,o),
(14,438,o),
(15,446,c),
(16,448,o),
(16,450,o),
(17,453,c),
(22,464,o),
(26,475,o),
(31,486,c),
(34,494,o),
(42,498,o),
(50,497,c),
(58,495,o),
(64,488,o),
(64,479,c)
);
}
);
width = 79;
}
);
},
{
glyphname = circumflexcomb;
lastChange = "2022-09-28 17:30:04 +0000";
layers = (
{
anchors = (
{
name = _top;
pos = (64,416);
},
{
name = top;
pos = (64,419);
}
);
layerId = m01;
shapes = (
{
closed = 1;
nodes = (
(59,447,o),
(52,441,o),
(47,434,c),
(43,429,o),
(37,425,o),
(30,426,c),
(19,428,o),
(12,439,o),
(16,450,c),
(18,455,o),
(21,459,o),
(24,462,c),
(34,473,o),
(46,483,o),
(58,492,c),
(68,500,o),
(80,498,o),
(87,487,c),
(90,483,o),
(93,478,o),
(95,473,c),
(98,468,o),
(102,463,o),
(107,459,c),
(114,453,o),
(115,444,o),
(111,437,c),
(106,429,o),
(97,427,o),
(88,430,c),
(82,433,o),
(77,438,o),
(73,444,c),
(71,446,o),
(69,449,o),
(66,453,c)
);
}
);
width = 128;
}
);
unicode = 770;
},
{
glyphname = caroncomb;
lastChange = "2022-09-28 17:28:40 +0000";
layers = (
{
anchors = (
{
name = _top;
pos = (59,412);
},
{
name = top;
pos = (58,412);
}
);
layerId = m01;
shapes = (
{
closed = 1;
nodes = (
(67,476,o),
(72,482,o),
(77,488,c),
(81,493,o),
(85,496,o),
(91,497,c),
(97,499,o),
(103,497,o),
(108,492,c),
(112,487,o),
(113,481,o),
(110,475,c),
(109,473,o),
(108,471,o),
(107,470,c),
(97,457,o),
(86,444,o),
(74,431,c),
(71,429,o),
(68,426,o),
(64,425,c),
(54,423,o),
(47,426,o),
(41,434,c),
(40,435,o),
(39,437,o),
(38,438,c),
(32,449,o),
(25,461,o),
(18,472,c),
(13,480,o),
(15,490,o),
(22,495,c),
(29,501,o),
(39,500,o),
(46,493,c),
(49,490,o),
(51,486,o),
(53,482,c),
(56,478,o),
(58,473,o),
(61,470,c)
);
}
);
width = 127;
}
);
unicode = 780;
},
{
glyphname = brevecomb;
lastChange = "2022-09-28 17:30:13 +0000";
layers = (
{
anchors = (
{
name = _top;
pos = (58,414);
},
{
name = top;
pos = (58,415);
}
);
layerId = m01;
shapes = (
{
closed = 1;
nodes = (
(15,475,o),
(15,476,o),
(15,478,c),
(16,488,o),
(23,495,o),
(32,495,c),
(42,495,o),
(49,488,o),
(50,477,c),
(51,468,o),
(54,465,o),
(61,463,c),
(68,461,o),
(72,463,o),
(73,470,c),
(74,475,o),
(75,480,o),
(77,484,c),
(79,492,o),
(85,496,o),
(93,496,c),
(101,496,o),
(107,491,o),
(109,483,c),
(113,454,o),
(94,423,o),
(59,428,c),
(43,430,o),
(31,437,o),
(22,450,c),
(17,457,o),
(15,465,o),
(15,473,c)
);
}
);
width = 125;
}
);
unicode = 774;
},
{
glyphname = ringcomb;
lastChange = "2022-09-28 17:30:21 +0000";
layers = (
{
anchors = (
{
name = _top;
pos = (53,407);
},
{
name = top;
pos = (53,406);
}
);
layerId = m01;
shapes = (
{
closed = 1;
nodes = (
(40,454,o),
(40,441,o),
(50,444,c),
(60,448,o),
(67,452,o),
(70,460,c),
(72,466,o),
(72,475,o),
(68,477,c),
(65,479,o),
(59,480,o),
(45,462,c)
);
},
{
closed = 1;
nodes = (
(28,417,o),
(17,426,o),
(15,439,c),
(15,440,o),
(15,442,o),
(15,444,c),
(15,445,o),
(15,445,o),
(15,446,c),
(16,458,o),
(19,469,o),
(24,479,c),
(28,485,o),
(32,489,o),
(37,491,c),
(41,492,o),
(43,495,o),
(44,497,c),
(49,503,o),
(54,506,o),
(61,506,c),
(64,506,o),
(68,505,o),
(72,504,c),
(92,496,o),
(103,478,o),
(98,460,c),
(93,443,o),
(81,430,o),
(63,422,c),
(57,419,o),
(52,418,o),
(46,417,c),
(45,417,o),
(44,417,o),
(43,417,c)
);
}
);
width = 114;
}
);
unicode = 778;
},
